<svg width="24" height="29" viewBox="0 0 24 29" fill="none" xmlns="http://www.w3.org/2000/svg">
<path d="M12.2206 14L5.84619 6C5.84619 6 11.3195 10.4457 14.4205 14L12.2206 14Z" fill="#293543"/>
<path d="M12.2206 14L5.84619 22C5.84619 22 11.3195 17.5543 14.4205 14L12.2206 14Z" fill="#293543"/>
<path d="M10.3744 14L4 6C4 6 9.47335 10.4457 12.5743 14L10.3744 14Z" fill="#151D27"/>
<path d="M10.3744 14L4 22C4 22 9.47335 17.5543 12.5743 14L10.3744 14Z" fill="#151D27"/>
<path d="M14.0668 14L7.69232 6C7.69232 6 13.1657 10.4457 16.2666 14L14.0668 14Z" fill="#394A5C"/>
<path d="M14.0668 14L7.69232 22C7.69232 22 13.1657 17.5543 16.2666 14L14.0668 14Z" fill="#394A5C"/>
</svg>
