<svg width="19" height="21" viewBox="0 0 19 21" fill="none" xmlns="http://www.w3.org/2000/svg">
<path d="M7.73341 10.5L16.0999 21C16.0999 21 8.91609 15.165 4.84606 10.5L7.73341 10.5Z" fill="#19222D"/>
<path d="M7.73341 10.5L16.0999 1.90735e-06C16.0999 1.90735e-06 8.91609 5.83503 4.84606 10.5L7.73341 10.5Z" fill="#19222D"/>
<path d="M10.1565 10.5L18.5229 21C18.5229 21 11.3392 15.165 7.26916 10.5L10.1565 10.5Z" fill="#151D26"/>
<path d="M10.1565 10.5L18.5229 1.90735e-06C18.5229 1.90735e-06 11.3392 5.83503 7.26916 10.5L10.1565 10.5Z" fill="#151D26"/>
<path d="M2.88747 10.5L11.2539 21C11.2539 21 4.07014 15.165 0.000113487 10.5L2.88747 10.5Z" fill="#1F2F3D"/>
<path d="M2.88747 10.5L11.2539 1.90735e-06C11.2539 1.90735e-06 4.07014 5.83503 0.000113487 10.5L2.88747 10.5Z" fill="#1F2F3D"/>
<path d="M5.31032 10.5L13.6768 21C13.6768 21 6.49299 15.165 2.42297 10.5L5.31032 10.5Z" fill="#1E2935"/>
<path d="M5.31032 10.5L13.6768 1.90735e-06C13.6768 1.90735e-06 6.49299 5.83503 2.42297 10.5L5.31032 10.5Z" fill="#1E2935"/>
</svg>
