<svg width="49" height="50" viewBox="0 0 49 50" fill="none" xmlns="http://www.w3.org/2000/svg">
<path d="M28.5003 44.034L39.0893 37.9205M31.5773 12.6823C30.0434 10.0255 27.4568 8.12163 24.3862 7.38958C21.3158 6.65746 14.2048 6.77845 14.2048 6.77845C14.2048 6.77845 10.3124 13.0103 9.4112 16.0354C8.51002 19.0606 8.86545 22.2526 10.3993 24.9094C13.1736 29.7146 13.9397 33.7975 13.8801 36.9399C13.8223 39.9833 13.7935 41.5052 13.988 41.7838C14.2066 42.0967 14.3376 42.1755 14.7135 42.2204C15.0481 42.2603 16.1585 41.6192 18.3794 40.3369L26.6637 28.8219L40.948 27.307C43.1689 26.0248 44.2793 25.3836 44.412 25.074C44.5611 24.726 44.5584 24.573 44.3967 24.2273C44.2526 23.9196 42.9202 23.1836 40.2558 21.7119C37.5044 20.1924 34.3516 17.4874 31.5773 12.6823Z" stroke="url(#paint0_linear_934_7586)" stroke-width="3" stroke-linecap="round" stroke-linejoin="round"/>
<defs>
<linearGradient id="paint0_linear_934_7586" x1="15.2048" y1="8.77852" x2="38.9998" y2="50" gradientUnits="userSpaceOnUse">
<stop stop-color="#007AFF"/>
<stop offset="1" stop-color="#007AFF" stop-opacity="0"/>
</linearGradient>
</defs>
</svg>
