<svg width="49" height="50" viewBox="0 0 49 50" fill="none" xmlns="http://www.w3.org/2000/svg">
<path d="M9.91041 37.9205L20.4994 44.0341M38.6003 24.9095C40.1342 22.2527 40.4897 19.0607 39.5884 16.0354C38.6872 13.0103 34.7949 7.77849 34.7949 7.77849C34.7949 7.77849 27.6838 6.65748 24.6134 7.38959C21.543 8.12172 18.9562 10.0256 17.4224 12.6824C14.6481 17.4875 11.4953 20.1924 8.74402 21.712C6.07944 23.1836 4.74707 23.9196 4.60309 24.2274C4.44138 24.5731 4.43859 24.7261 4.58768 25.074C4.72042 25.3837 5.83087 26.0248 8.05179 27.3071L22.3361 28.8221L30.6203 40.337C32.8412 41.6192 33.9516 42.2604 34.2862 42.2205C34.662 42.1756 34.7932 42.0968 35.0117 41.7839C35.2062 41.5052 35.1773 39.9833 35.1197 36.94C35.06 33.7975 35.8261 29.7146 38.6003 24.9095Z" stroke="url(#paint0_linear_934_7581)" stroke-width="3" stroke-linecap="round" stroke-linejoin="round"/>
<defs>
<linearGradient id="paint0_linear_934_7581" x1="33.7949" y1="8.77861" x2="8.99994" y2="50" gradientUnits="userSpaceOnUse">
<stop stop-color="#21C004"/>
<stop offset="1" stop-color="#21C004" stop-opacity="0"/>
</linearGradient>
</defs>
</svg>
