<svg width="20" height="21" viewBox="0 0 20 21" fill="none" xmlns="http://www.w3.org/2000/svg">
<path d="M3.79794 16.3585L8.9244 19.3182M17.6876 10.0594C18.4302 8.77317 18.6023 7.22781 18.166 5.7632C17.7297 4.29864 16.3612 1.2499 16.3612 1.2499C16.3612 1.2499 12.4026 1.22305 10.9161 1.57748C9.42962 1.93193 8.17731 2.85365 7.43471 4.13988C6.09161 6.46619 4.56522 7.77574 3.23326 8.51143C1.94325 9.22387 1.29821 9.58019 1.2285 9.7292C1.15021 9.89658 1.14886 9.97063 1.22104 10.1391C1.28531 10.289 1.82291 10.5994 2.89812 11.2202L10.3612 11.3743L13.8243 17.5284C14.8995 18.1491 15.437 18.4595 15.599 18.4402C15.781 18.4185 15.8445 18.3803 15.9503 18.2288C16.0444 18.0939 16.0304 17.3571 16.0025 15.8838C15.9736 14.3624 16.3445 12.3857 17.6876 10.0594Z" stroke="#007AFF" stroke-width="2" stroke-linecap="round" stroke-linejoin="round"/>
</svg>
