<svg width="389" height="696" viewBox="0 0 389 696" fill="none" xmlns="http://www.w3.org/2000/svg">
<rect x="1.5" y="0.5" width="386" height="695" rx="29.5" stroke="url(#paint0_linear_890_27756)"/>
<rect x="1.5" y="0.5" width="386" height="695" rx="29.5" stroke="url(#paint1_linear_890_27756)"/>
<line x1="1.5" y1="338" x2="1.5" y2="236" stroke="url(#paint2_linear_890_27756)"/>
<line y1="-0.5" x2="102" y2="-0.5" transform="matrix(-4.37114e-08 1 1 4.37114e-08 2 345)" stroke="url(#paint3_linear_890_27756)"/>
<circle cx="1.5" cy="341.5" r="1.5" fill="#4A5766"/>
<circle cx="387.5" cy="341.5" r="1.5" fill="#4A5766"/>
<line x1="387.5" y1="338" x2="387.5" y2="236" stroke="url(#paint4_linear_890_27756)"/>
<line y1="-0.5" x2="102" y2="-0.5" transform="matrix(-4.37114e-08 1 1 4.37114e-08 388 345)" stroke="url(#paint5_linear_890_27756)"/>
<defs>
<linearGradient id="paint0_linear_890_27756" x1="194.5" y1="0" x2="194.5" y2="696" gradientUnits="userSpaceOnUse">
<stop stop-color="#53636F"/>
<stop offset="1" stop-color="#0D1316" stop-opacity="0"/>
</linearGradient>
<linearGradient id="paint1_linear_890_27756" x1="194.5" y1="0" x2="194.5" y2="696" gradientUnits="userSpaceOnUse">
<stop stop-color="#0D1316" stop-opacity="0"/>
<stop offset="1" stop-color="#131B22"/>
</linearGradient>
<linearGradient id="paint2_linear_890_27756" x1="3.99999" y1="343.667" x2="4.00004" y2="234" gradientUnits="userSpaceOnUse">
<stop stop-color="#304A66"/>
<stop offset="1" stop-color="#304A66" stop-opacity="0"/>
</linearGradient>
<linearGradient id="paint3_linear_890_27756" x1="-5.66667" y1="1.99999" x2="104" y2="2.00005" gradientUnits="userSpaceOnUse">
<stop stop-color="#304A66"/>
<stop offset="1" stop-color="#304A66" stop-opacity="0"/>
</linearGradient>
<linearGradient id="paint4_linear_890_27756" x1="390" y1="343.667" x2="390" y2="234" gradientUnits="userSpaceOnUse">
<stop stop-color="#304A66"/>
<stop offset="1" stop-color="#304A66" stop-opacity="0"/>
</linearGradient>
<linearGradient id="paint5_linear_890_27756" x1="-5.66667" y1="1.99999" x2="104" y2="2.00005" gradientUnits="userSpaceOnUse">
<stop stop-color="#304A66"/>
<stop offset="1" stop-color="#304A66" stop-opacity="0"/>
</linearGradient>
</defs>
</svg>
