<svg width="131" height="34" viewBox="0 0 131 34" fill="none" xmlns="http://www.w3.org/2000/svg">
<g clip-path="url(#clip0_609_2919)">
<path d="M46.0803 15.7047C47.4842 16.125 48.7071 16.5453 49.8498 17.1991C52.8518 18.927 54.1258 21.6692 53.3903 25.0097C52.9131 27.1798 51.6157 28.8143 49.8265 30.0752C47.5922 31.6528 45.0485 32.4102 42.3836 32.848C40.6499 33.1312 38.9059 33.1764 37.1547 33.1749C25.0681 33.1691 12.9819 33.173 0.896318 33.1866C0.216246 33.1866 0.000256939 33.0553 0.00171632 32.3256C0.0279852 21.8239 0.0279852 11.3221 0.00171632 0.820433C0.00171632 0.204573 0.114089 0.000257355 0.786865 0.00171674C42.5417 0.0192293 84.2956 0.0245827 126.049 0.0177723C126.705 0.0177723 127.362 0.0469608 128.019 0.032367C128.375 0.0250701 128.551 0.109712 128.547 0.513961C128.531 2.14263 128.535 3.7713 128.547 5.39998C128.547 5.74439 128.416 5.86406 128.073 5.8699C127.102 5.88449 126.133 5.956 125.163 5.956C106.9 5.96184 88.6373 5.96427 70.3746 5.96329C69.1648 5.96329 69.3428 5.83925 69.3428 7.01989C69.337 15.5038 69.3394 23.9876 69.3501 32.4715C69.3501 33.0027 69.283 33.2012 68.654 33.1939C66.2708 33.1399 63.8876 33.1458 61.503 33.1939C60.7894 33.2071 60.5588 33.048 60.5617 32.2818C60.5938 23.8174 60.5821 15.3632 60.5821 6.90314C60.5821 5.97351 60.5821 5.96767 59.6262 5.96767C42.9445 5.96767 26.2623 5.9633 9.57964 5.95454C8.95649 5.95454 8.75509 6.08734 8.75801 6.75136C8.78428 13.3886 8.7872 20.0254 8.76677 26.6617C8.76677 27.1579 8.79158 27.4556 9.4483 27.4527C18.3243 27.4221 27.2002 27.4527 36.0747 27.3914C38.3368 27.3768 40.5988 27.0908 42.6624 26.0356C44.8806 24.9032 45.4177 22.501 43.8576 20.7716C43.2403 20.0887 42.4347 19.6888 41.5708 19.3998C40.0734 18.8978 38.5236 18.8088 36.9635 18.8088C29.9585 18.8088 22.9534 18.7986 15.9484 18.8248C15.2391 18.8248 14.9487 18.6935 15.0085 17.9142C15.0781 16.8938 15.0781 15.8699 15.0085 14.8495C14.9633 14.1198 15.1735 13.8994 15.9294 13.9023C22.6183 13.9315 29.3061 13.9354 35.993 13.914C37.4728 13.914 38.9512 13.898 40.4149 13.5813C42.8959 13.0457 43.8999 11.8213 43.7846 9.30528C43.7642 8.88206 43.9306 8.81639 44.2765 8.81785C46.9033 8.81785 49.5302 8.83828 52.1571 8.81055C52.7292 8.80326 52.7336 9.07908 52.681 9.48479C52.4154 11.5104 51.4255 13.0788 49.7112 14.1898C48.6458 14.8816 47.4477 15.2727 46.0803 15.7047Z" fill="url(#paint0_linear_609_2919)"/>
<path d="M98.4732 33.1703C91.9571 33.1703 85.4424 33.1586 78.9263 33.1863C78.236 33.1863 78.0623 32.9791 78.0857 32.3238C78.1309 30.9637 78.1353 29.6006 78.0857 28.2376C78.0594 27.5706 78.2506 27.3853 78.9277 27.3867C87.9759 27.4091 97.0197 27.414 106.059 27.4013C109.318 27.4013 112.575 27.4159 115.837 27.4013C117.454 27.3897 119.034 27.1416 120.507 26.4002C122.238 25.5246 123.033 23.9557 122.644 22.2103C122.391 21.0807 121.666 20.3321 120.681 19.8111C118.944 18.8931 117.05 18.8026 115.145 18.8012C107.41 18.8012 99.6831 18.8304 91.9513 18.7881C88.8238 18.7705 85.7489 18.3167 82.8885 16.9449C80.2134 15.6635 78.1411 13.8276 77.4698 10.7775C77.0962 9.0817 77.1852 8.97371 78.9044 8.97371C81.2151 8.97371 83.5248 8.97371 85.8335 8.97371C86.1254 8.97371 86.4479 8.86425 86.4654 9.40423C86.5515 11.9508 87.7789 13.2716 90.3839 13.7152C91.3689 13.8646 92.3649 13.9305 93.361 13.9123C101.068 13.9123 108.775 13.8874 116.482 13.9283C119.429 13.9429 122.355 14.264 125.132 15.3497C127.909 16.4355 130.083 18.1824 130.758 21.2617C131.737 25.7333 129.854 29.3569 125.574 31.349C122.947 32.5675 120.163 33.1002 117.302 33.1294C111.027 33.1863 104.751 33.1469 98.4849 33.1469L98.4732 33.1703Z" fill="url(#paint1_linear_609_2919)"/>
</g>
<defs>
<linearGradient id="paint0_linear_609_2919" x1="64.2744" y1="0.00170898" x2="64.2744" y2="33.1946" gradientUnits="userSpaceOnUse">
<stop stop-color="#F0C673"/>
<stop offset="1" stop-color="#785E2A"/>
</linearGradient>
<linearGradient id="paint1_linear_609_2919" x1="104.151" y1="8.9646" x2="104.151" y2="33.1863" gradientUnits="userSpaceOnUse">
<stop stop-color="#F0C673"/>
<stop offset="1" stop-color="#785E2A"/>
</linearGradient>
<clipPath id="clip0_609_2919">
<rect width="131" height="33.1937" fill="white"/>
</clipPath>
</defs>
</svg>
