<svg width="80" height="27" viewBox="0 0 80 27" fill="none" xmlns="http://www.w3.org/2000/svg">
<g filter="url(#filter0_d_595_2548)">
<path d="M28.3816 11.9911C29.1854 12.2317 29.8855 12.4724 30.5397 12.8467C32.2584 13.8359 32.9878 15.4059 32.5667 17.3184C32.2935 18.5608 31.5507 19.4966 30.5264 20.2185C29.2472 21.1217 27.7909 21.5553 26.2652 21.806C25.2726 21.9681 24.2741 21.994 23.2715 21.9932C16.3517 21.9898 9.43217 21.992 2.51291 21.9998C2.12356 21.9998 1.9999 21.9247 2.00074 21.5069C2.01578 15.4945 2.01578 9.48202 2.00074 3.46959C2.00074 3.117 2.06507 3.00002 2.45025 3.00086C26.3557 3.01089 50.2606 3.01395 74.165 3.01005C74.541 3.01005 74.9169 3.02676 75.2929 3.01841C75.4968 3.01423 75.5979 3.06269 75.5954 3.29413C75.5862 4.22657 75.5887 5.15902 75.5954 6.09146C75.5954 6.28865 75.5202 6.35716 75.3238 6.3605C74.7682 6.36886 74.2134 6.4098 73.6578 6.4098C63.2021 6.41314 52.7463 6.41453 42.2906 6.41398C41.5979 6.41398 41.6998 6.34296 41.6998 7.01889C41.6965 11.8761 41.6979 16.7333 41.704 21.5904C41.704 21.8946 41.6656 22.0082 41.3055 22.004C39.9411 21.9731 38.5766 21.9765 37.2114 22.004C36.8028 22.0115 36.6708 21.9205 36.6725 21.4818C36.6909 16.6358 36.6842 11.7956 36.6842 6.95205C36.6842 6.41983 36.6842 6.41648 36.1369 6.41648C26.5863 6.41648 17.0354 6.41398 7.48428 6.40896C7.12751 6.40896 7.01221 6.485 7.01388 6.86516C7.02892 10.6651 7.03059 14.4648 7.0189 18.2642C7.0189 18.5483 7.0331 18.7187 7.40909 18.7171C12.4907 18.6995 17.5724 18.7171 22.6532 18.682C23.9483 18.6736 25.2434 18.5099 26.4248 17.9058C27.6948 17.2574 28.0023 15.8821 27.1091 14.892C26.7556 14.501 26.2944 14.2721 25.7998 14.1066C24.9426 13.8192 24.0552 13.7683 23.1621 13.7683C19.1515 13.7683 15.141 13.7624 11.1305 13.7775C10.7244 13.7775 10.5582 13.7023 10.5924 13.2561C10.6322 12.6719 10.6322 12.0857 10.5924 11.5015C10.5665 11.0837 10.6868 10.9576 11.1196 10.9592C14.9491 10.9759 18.7781 10.9782 22.6064 10.9659C23.4537 10.9659 24.3 10.9567 25.1381 10.7754C26.5585 10.4688 27.1333 9.76777 27.0673 8.32733C27.0556 8.08502 27.1509 8.04743 27.3489 8.04826C28.8528 8.04826 30.3568 8.05996 31.8607 8.04409C32.1882 8.03991 32.1907 8.19782 32.1607 8.4301C32.0086 9.5898 31.4418 10.4877 30.4604 11.1238C29.8504 11.5199 29.1645 11.7438 28.3816 11.9911Z" fill="url(#paint0_linear_595_2548)"/>
<path d="M58.3778 21.9907C54.6471 21.9907 50.9174 21.984 47.1868 21.9999C46.7916 21.9999 46.6921 21.8812 46.7055 21.5061C46.7314 20.7274 46.7339 19.947 46.7055 19.1666C46.6905 18.7848 46.7999 18.6787 47.1876 18.6795C52.3678 18.6923 57.5456 18.6951 62.7208 18.6879C64.5865 18.6879 66.4514 18.6962 68.3188 18.6879C69.2446 18.6812 70.1495 18.5391 70.9925 18.1147C71.9834 17.6134 72.4388 16.7152 72.2157 15.7159C72.0712 15.0692 71.6559 14.6406 71.0919 14.3423C70.0977 13.8168 69.0132 13.765 67.9228 13.7641C63.4945 13.7641 59.0704 13.7808 54.6438 13.7566C52.8533 13.7466 51.0928 13.4867 49.4552 12.7013C47.9237 11.9677 46.7372 10.9167 46.3529 9.17041C46.139 8.19953 46.19 8.13771 47.1742 8.13771C48.4971 8.13771 49.8195 8.13771 51.1413 8.13771C51.3084 8.13771 51.493 8.07504 51.5031 8.38419C51.5524 9.84218 52.255 10.5983 53.7465 10.8523C54.3104 10.9378 54.8806 10.9756 55.4509 10.9651C59.8633 10.9651 64.2757 10.9509 68.6881 10.9743C70.3751 10.9827 72.0503 11.1665 73.6403 11.7881C75.2303 12.4097 76.4752 13.4099 76.8612 15.1728C77.4219 17.7329 76.344 19.8075 73.8935 20.948C72.3895 21.6456 70.7953 21.9506 69.1577 21.9673C65.5649 21.9999 61.9722 21.9773 58.3844 21.9773L58.3778 21.9907Z" fill="url(#paint1_linear_595_2548)"/>
</g>
<defs>
<filter id="filter0_d_595_2548" x="0.000732422" y="3.00085" width="79.0056" height="23.0035" filterUnits="userSpaceOnUse" color-interpolation-filters="sRGB">
<feFlood flood-opacity="0" result="BackgroundImageFix"/>
<feColorMatrix in="SourceAlpha" type="matrix" values="0 0 0 0 0 0 0 0 0 0 0 0 0 0 0 0 0 0 127 0" result="hardAlpha"/>
<feOffset dy="2"/>
<feGaussianBlur stdDeviation="1"/>
<feComposite in2="hardAlpha" operator="out"/>
<feColorMatrix type="matrix" values="0 0 0 0 0 0 0 0 0 0 0 0 0 0 0 0 0 0 0.25 0"/>
<feBlend mode="normal" in2="BackgroundImageFix" result="effect1_dropShadow_595_2548"/>
<feBlend mode="normal" in="SourceGraphic" in2="effect1_dropShadow_595_2548" result="shape"/>
</filter>
<linearGradient id="paint0_linear_595_2548" x1="24.4456" y1="3.00084" x2="53.1369" y2="16.0172" gradientUnits="userSpaceOnUse">
<stop stop-color="#ECC271"/>
<stop offset="1" stop-color="#7F642E"/>
</linearGradient>
<linearGradient id="paint1_linear_595_2548" x1="24.4456" y1="3.00084" x2="53.1369" y2="16.0172" gradientUnits="userSpaceOnUse">
<stop stop-color="#ECC271"/>
<stop offset="1" stop-color="#7F642E"/>
</linearGradient>
</defs>
</svg>
