<svg width="47" height="51" viewBox="0 0 47 51" fill="none" xmlns="http://www.w3.org/2000/svg">
<path d="M0 0L23.5 7.22124L47 0V44.2301L23.5 51L0 44.2301V0Z" fill="url(#paint0_linear_878_18544)"/>
<path d="M47 44.2301V0L23.5 7.22124V51L47 44.2301Z" fill="url(#paint1_linear_878_18544)"/>
<path d="M5 8L23.5 13.5221L42 8V41.823L23.5 47L5 41.823V8Z" fill="url(#paint2_linear_878_18544)"/>
<path d="M42 41.823V8L24 13.5221V47L42 41.823Z" fill="url(#paint3_linear_878_18544)"/>
<path d="M38 13V14.3731C38 14.3731 31.7868 16.5007 24 19V17.2269L38 13Z" fill="url(#paint4_linear_878_18544)"/>
<path d="M9 13V14.3731C9 14.3731 15.657 16.5007 24 19V17.2269L9 13Z" fill="url(#paint5_linear_878_18544)"/>
<path d="M17.6499 31.0268C18.4949 31.0268 19.1799 30.3492 19.1799 29.5134C19.1799 28.6775 18.4949 27.9999 17.6499 27.9999C16.8049 27.9999 16.1199 28.6775 16.1199 29.5134C16.1199 30.3492 16.8049 31.0268 17.6499 31.0268Z" fill="url(#paint6_linear_878_18544)"/>
<path d="M25.2998 31.5134C25.2998 32.3492 24.6148 33.0268 23.7698 33.0268C22.9248 33.0268 22.2398 32.3492 22.2398 31.5134C22.2398 30.6775 22.9248 29.9999 23.7698 29.9999C24.6148 29.9999 25.2998 30.6775 25.2998 31.5134Z" fill="url(#paint7_linear_878_18544)"/>
<path d="M11.53 32.5671C12.375 32.5671 13.06 31.8896 13.06 31.0537C13.06 30.2178 12.375 29.5402 11.53 29.5402C10.685 29.5402 10 30.2178 10 31.0537C10 31.8896 10.685 32.5671 11.53 32.5671Z" fill="url(#paint8_linear_878_18544)"/>
<path d="M19.1799 34.0537C19.1799 34.8896 18.4949 35.5671 17.6499 35.5671C16.8049 35.5671 16.1199 34.8896 16.1199 34.0537C16.1199 33.2178 16.8049 32.5402 17.6499 32.5402C18.4949 32.5402 19.1799 33.2178 19.1799 34.0537Z" fill="url(#paint9_linear_878_18544)"/>
<path d="M23.7698 37.5671C24.6148 37.5671 25.2998 36.8896 25.2998 36.0537C25.2998 35.2178 24.6148 34.5402 23.7698 34.5402C22.9248 34.5402 22.2398 35.2178 22.2398 36.0537C22.2398 36.8896 22.9248 37.5671 23.7698 37.5671Z" fill="url(#paint10_linear_878_18544)"/>
<path d="M13.06 35.594C13.06 36.4299 12.375 37.1074 11.53 37.1074C10.685 37.1074 10 36.4299 10 35.594C10 34.7581 10.685 34.0806 11.53 34.0806C12.375 34.0806 13.06 34.7581 13.06 35.594Z" fill="url(#paint11_linear_878_18544)"/>
<path d="M17.6499 40.1074C18.4949 40.1074 19.1799 39.4299 19.1799 38.594C19.1799 37.7581 18.4949 37.0806 17.6499 37.0806C16.8049 37.0806 16.1199 37.7581 16.1199 38.594C16.1199 39.4299 16.8049 40.1074 17.6499 40.1074Z" fill="url(#paint12_linear_878_18544)"/>
<path d="M25.2998 40.594C25.2998 41.4299 24.6148 42.1074 23.7698 42.1074C22.9248 42.1074 22.2398 41.4299 22.2398 40.594C22.2398 39.7581 22.9248 39.0806 23.7698 39.0806C24.6148 39.0806 25.2998 39.7581 25.2998 40.594Z" fill="url(#paint13_linear_878_18544)"/>
<path d="M17.6499 26.1074C18.4949 26.1074 19.1799 25.4299 19.1799 24.594C19.1799 23.7581 18.4949 23.0806 17.6499 23.0806C16.8049 23.0806 16.1199 23.7581 16.1199 24.594C16.1199 25.4299 16.8049 26.1074 17.6499 26.1074Z" fill="url(#paint14_linear_878_18544)"/>
<path d="M25.2998 26.594C25.2998 27.4299 24.6148 28.1074 23.7698 28.1074C22.9248 28.1074 22.2398 27.4299 22.2398 26.594C22.2398 25.7581 22.9248 25.0806 23.7698 25.0806C24.6148 25.0806 25.2998 25.7581 25.2998 26.594Z" fill="url(#paint15_linear_878_18544)"/>
<path d="M35.6499 29.0268C34.8049 29.0268 34.1199 28.3492 34.1199 27.5134C34.1199 26.6775 34.8049 25.9999 35.6499 25.9999C36.4949 25.9999 37.1799 26.6775 37.1799 27.5134C37.1799 28.3492 36.4949 29.0268 35.6499 29.0268Z" fill="url(#paint16_linear_878_18544)"/>
<path d="M28 29.5134C28 30.3492 28.685 31.0268 29.53 31.0268C30.375 31.0268 31.06 30.3492 31.06 29.5134C31.06 28.6775 30.375 27.9999 29.53 27.9999C28.685 27.9999 28 28.6775 28 29.5134Z" fill="url(#paint17_linear_878_18544)"/>
<path d="M34.1199 32.0537C34.1199 32.8896 34.8049 33.5671 35.6499 33.5671C36.4949 33.5671 37.1799 32.8896 37.1799 32.0537C37.1799 31.2178 36.4949 30.5402 35.6499 30.5402C34.8049 30.5402 34.1199 31.2178 34.1199 32.0537Z" fill="url(#paint18_linear_878_18544)"/>
<path d="M29.53 35.5671C28.685 35.5671 28 34.8896 28 34.0537C28 33.2178 28.685 32.5402 29.53 32.5402C30.375 32.5402 31.06 33.2178 31.06 34.0537C31.06 34.8896 30.375 35.5671 29.53 35.5671Z" fill="url(#paint19_linear_878_18544)"/>
<path d="M35.6499 38.1074C34.8049 38.1074 34.1199 37.4299 34.1199 36.594C34.1199 35.7581 34.8049 35.0806 35.6499 35.0806C36.4949 35.0806 37.1799 35.7581 37.1799 36.594C37.1799 37.4299 36.4949 38.1074 35.6499 38.1074Z" fill="url(#paint20_linear_878_18544)"/>
<path d="M28 38.594C28 39.4299 28.685 40.1074 29.53 40.1074C30.375 40.1074 31.06 39.4299 31.06 38.594C31.06 37.7581 30.375 37.0806 29.53 37.0806C28.685 37.0806 28 37.7581 28 38.594Z" fill="url(#paint21_linear_878_18544)"/>
<path d="M35.6499 24.1074C34.8049 24.1074 34.1199 23.4299 34.1199 22.594C34.1199 21.7581 34.8049 21.0806 35.6499 21.0806C36.4949 21.0806 37.1799 21.7581 37.1799 22.594C37.1799 23.4299 36.4949 24.1074 35.6499 24.1074Z" fill="url(#paint22_linear_878_18544)"/>
<path d="M28 24.594C28 25.4299 28.685 26.1074 29.53 26.1074C30.375 26.1074 31.06 25.4299 31.06 24.594C31.06 23.7581 30.375 23.0806 29.53 23.0806C28.685 23.0806 28 23.7581 28 24.594Z" fill="url(#paint23_linear_878_18544)"/>
<defs>
<linearGradient id="paint0_linear_878_18544" x1="23.5" y1="0" x2="23.5" y2="51" gradientUnits="userSpaceOnUse">
<stop stop-color="#324559"/>
<stop offset="1" stop-color="#131D28"/>
</linearGradient>
<linearGradient id="paint1_linear_878_18544" x1="35.25" y1="0" x2="35.25" y2="51" gradientUnits="userSpaceOnUse">
<stop stop-color="#111921"/>
<stop offset="1" stop-color="#0D1116"/>
</linearGradient>
<linearGradient id="paint2_linear_878_18544" x1="9" y1="15" x2="23.5" y2="47" gradientUnits="userSpaceOnUse">
<stop stop-color="#405973"/>
<stop offset="1" stop-color="#131D28"/>
</linearGradient>
<linearGradient id="paint3_linear_878_18544" x1="33" y1="8" x2="33" y2="47" gradientUnits="userSpaceOnUse">
<stop stop-color="#1D2C3D"/>
<stop offset="1" stop-color="#0D1116"/>
</linearGradient>
<linearGradient id="paint4_linear_878_18544" x1="28.1894" y1="13" x2="34.2136" y2="14.6157" gradientUnits="userSpaceOnUse">
<stop stop-color="#ECC271"/>
<stop offset="1" stop-color="#7F642E"/>
</linearGradient>
<linearGradient id="paint5_linear_878_18544" x1="19.5114" y1="13" x2="13.1203" y2="14.8365" gradientUnits="userSpaceOnUse">
<stop stop-color="#ECC271"/>
<stop offset="1" stop-color="#7F642E"/>
</linearGradient>
<linearGradient id="paint6_linear_878_18544" x1="18.1334" y1="21.0806" x2="30.3993" y2="22.903" gradientUnits="userSpaceOnUse">
<stop stop-color="#ECC271"/>
<stop offset="1" stop-color="#7F642E"/>
</linearGradient>
<linearGradient id="paint7_linear_878_18544" x1="18.1334" y1="21.0806" x2="30.3993" y2="22.903" gradientUnits="userSpaceOnUse">
<stop stop-color="#ECC271"/>
<stop offset="1" stop-color="#7F642E"/>
</linearGradient>
<linearGradient id="paint8_linear_878_18544" x1="18.1334" y1="21.0806" x2="30.3993" y2="22.903" gradientUnits="userSpaceOnUse">
<stop stop-color="#ECC271"/>
<stop offset="1" stop-color="#7F642E"/>
</linearGradient>
<linearGradient id="paint9_linear_878_18544" x1="18.1334" y1="21.0806" x2="30.3993" y2="22.903" gradientUnits="userSpaceOnUse">
<stop stop-color="#ECC271"/>
<stop offset="1" stop-color="#7F642E"/>
</linearGradient>
<linearGradient id="paint10_linear_878_18544" x1="18.1334" y1="21.0806" x2="30.3993" y2="22.903" gradientUnits="userSpaceOnUse">
<stop stop-color="#ECC271"/>
<stop offset="1" stop-color="#7F642E"/>
</linearGradient>
<linearGradient id="paint11_linear_878_18544" x1="18.1334" y1="21.0806" x2="30.3993" y2="22.903" gradientUnits="userSpaceOnUse">
<stop stop-color="#ECC271"/>
<stop offset="1" stop-color="#7F642E"/>
</linearGradient>
<linearGradient id="paint12_linear_878_18544" x1="18.1334" y1="21.0806" x2="30.3993" y2="22.903" gradientUnits="userSpaceOnUse">
<stop stop-color="#ECC271"/>
<stop offset="1" stop-color="#7F642E"/>
</linearGradient>
<linearGradient id="paint13_linear_878_18544" x1="18.1334" y1="21.0806" x2="30.3993" y2="22.903" gradientUnits="userSpaceOnUse">
<stop stop-color="#ECC271"/>
<stop offset="1" stop-color="#7F642E"/>
</linearGradient>
<linearGradient id="paint14_linear_878_18544" x1="18.1334" y1="21.0806" x2="30.3993" y2="22.903" gradientUnits="userSpaceOnUse">
<stop stop-color="#ECC271"/>
<stop offset="1" stop-color="#7F642E"/>
</linearGradient>
<linearGradient id="paint15_linear_878_18544" x1="18.1334" y1="21.0806" x2="30.3993" y2="22.903" gradientUnits="userSpaceOnUse">
<stop stop-color="#ECC271"/>
<stop offset="1" stop-color="#7F642E"/>
</linearGradient>
<linearGradient id="paint16_linear_878_18544" x1="18.1334" y1="21.0806" x2="30.3993" y2="22.903" gradientUnits="userSpaceOnUse">
<stop stop-color="#ECC271"/>
<stop offset="1" stop-color="#7F642E"/>
</linearGradient>
<linearGradient id="paint17_linear_878_18544" x1="18.1334" y1="21.0806" x2="30.3993" y2="22.903" gradientUnits="userSpaceOnUse">
<stop stop-color="#ECC271"/>
<stop offset="1" stop-color="#7F642E"/>
</linearGradient>
<linearGradient id="paint18_linear_878_18544" x1="18.1334" y1="21.0806" x2="30.3993" y2="22.903" gradientUnits="userSpaceOnUse">
<stop stop-color="#ECC271"/>
<stop offset="1" stop-color="#7F642E"/>
</linearGradient>
<linearGradient id="paint19_linear_878_18544" x1="18.1334" y1="21.0806" x2="30.3993" y2="22.903" gradientUnits="userSpaceOnUse">
<stop stop-color="#ECC271"/>
<stop offset="1" stop-color="#7F642E"/>
</linearGradient>
<linearGradient id="paint20_linear_878_18544" x1="18.1334" y1="21.0806" x2="30.3993" y2="22.903" gradientUnits="userSpaceOnUse">
<stop stop-color="#ECC271"/>
<stop offset="1" stop-color="#7F642E"/>
</linearGradient>
<linearGradient id="paint21_linear_878_18544" x1="18.1334" y1="21.0806" x2="30.3993" y2="22.903" gradientUnits="userSpaceOnUse">
<stop stop-color="#ECC271"/>
<stop offset="1" stop-color="#7F642E"/>
</linearGradient>
<linearGradient id="paint22_linear_878_18544" x1="18.1334" y1="21.0806" x2="30.3993" y2="22.903" gradientUnits="userSpaceOnUse">
<stop stop-color="#ECC271"/>
<stop offset="1" stop-color="#7F642E"/>
</linearGradient>
<linearGradient id="paint23_linear_878_18544" x1="18.1334" y1="21.0806" x2="30.3993" y2="22.903" gradientUnits="userSpaceOnUse">
<stop stop-color="#ECC271"/>
<stop offset="1" stop-color="#7F642E"/>
</linearGradient>
</defs>
</svg>
