<svg width="35" height="34" viewBox="0 0 35 34" fill="none" xmlns="http://www.w3.org/2000/svg">
<rect x="10" y="10" width="3" height="3" fill="url(#paint0_linear_337_4339)"/>
<rect x="10" y="16" width="3" height="3" fill="url(#paint1_linear_337_4339)"/>
<rect x="10" y="22" width="3" height="3" fill="url(#paint2_linear_337_4339)"/>
<rect x="16" y="10" width="3" height="3" fill="url(#paint3_linear_337_4339)"/>
<rect x="16" y="16" width="3" height="3" fill="url(#paint4_linear_337_4339)"/>
<rect x="16" y="22" width="3" height="3" fill="url(#paint5_linear_337_4339)"/>
<rect x="22" y="10" width="3" height="3" fill="url(#paint6_linear_337_4339)"/>
<rect x="22" y="16" width="3" height="3" fill="url(#paint7_linear_337_4339)"/>
<rect x="22" y="22" width="3" height="3" fill="url(#paint8_linear_337_4339)"/>
<defs>
<linearGradient id="paint0_linear_337_4339" x1="11.5224" y1="10" x2="11.5224" y2="13" gradientUnits="userSpaceOnUse">
<stop stop-color="#ECC271"/>
<stop offset="1" stop-color="#7F642E"/>
</linearGradient>
<linearGradient id="paint1_linear_337_4339" x1="11.5224" y1="16" x2="11.5224" y2="19" gradientUnits="userSpaceOnUse">
<stop stop-color="#ECC271"/>
<stop offset="1" stop-color="#7F642E"/>
</linearGradient>
<linearGradient id="paint2_linear_337_4339" x1="11.5224" y1="22" x2="11.5224" y2="25" gradientUnits="userSpaceOnUse">
<stop stop-color="#ECC271"/>
<stop offset="1" stop-color="#7F642E"/>
</linearGradient>
<linearGradient id="paint3_linear_337_4339" x1="17.5224" y1="10" x2="17.5224" y2="13" gradientUnits="userSpaceOnUse">
<stop stop-color="#ECC271"/>
<stop offset="1" stop-color="#7F642E"/>
</linearGradient>
<linearGradient id="paint4_linear_337_4339" x1="17.5224" y1="16" x2="17.5224" y2="19" gradientUnits="userSpaceOnUse">
<stop stop-color="#ECC271"/>
<stop offset="1" stop-color="#7F642E"/>
</linearGradient>
<linearGradient id="paint5_linear_337_4339" x1="17.5224" y1="22" x2="17.5224" y2="25" gradientUnits="userSpaceOnUse">
<stop stop-color="#ECC271"/>
<stop offset="1" stop-color="#7F642E"/>
</linearGradient>
<linearGradient id="paint6_linear_337_4339" x1="23.5224" y1="10" x2="23.5224" y2="13" gradientUnits="userSpaceOnUse">
<stop stop-color="#ECC271"/>
<stop offset="1" stop-color="#7F642E"/>
</linearGradient>
<linearGradient id="paint7_linear_337_4339" x1="23.5224" y1="16" x2="23.5224" y2="19" gradientUnits="userSpaceOnUse">
<stop stop-color="#ECC271"/>
<stop offset="1" stop-color="#7F642E"/>
</linearGradient>
<linearGradient id="paint8_linear_337_4339" x1="23.5224" y1="22" x2="23.5224" y2="25" gradientUnits="userSpaceOnUse">
<stop stop-color="#ECC271"/>
<stop offset="1" stop-color="#7F642E"/>
</linearGradient>
</defs>
</svg>
