<svg width="24" height="24" viewBox="0 0 24 24" fill="none" xmlns="http://www.w3.org/2000/svg">
<path d="M6.08372 5.21943L6.24665 5.13897L6.3199 4.97267L6.68743 4.13828C8.04044 3.11004 9.72759 2.5 11.5586 2.5H13.4414C15.2932 2.5 16.998 3.12402 18.3587 4.1736L18.7168 4.9717L18.8003 5.15771L18.99 5.23232L19.7353 5.52542C20.8398 6.90466 21.5 8.65388 21.5 10.5586V12.4414C21.5 14.3452 20.8405 16.0936 19.7369 17.4726L18.8007 17.8927L18.6147 17.9762L18.54 18.1659L18.247 18.911C16.9053 19.9094 15.243 20.5 13.4414 20.5H11.5586C9.82544 20.5 8.22137 19.9534 6.90749 19.0232L6.49886 18.1957L6.4184 18.0328L6.2521 17.9595L5.32775 17.5524C4.18535 16.1614 3.5 14.3821 3.5 12.4414V10.5586C3.5 8.72678 4.11058 7.03895 5.13964 5.68564L6.08372 5.21943Z" stroke="#2F4252"/>
<path d="M16.8183 15.8182L12.5468 12.7681L8.18195 15.818L11.4817 11.703L8.18195 7.18182L12.5823 10.6023L17.2499 7.18203L13.6474 11.6675L16.8183 15.8182Z" fill="#2F4252"/>
</svg>
