<svg width="69" height="69" viewBox="0 0 69 69" fill="none" xmlns="http://www.w3.org/2000/svg">
<g filter="url(#filter0_d_597_2586)">
<path fill-rule="evenodd" clip-rule="evenodd" d="M4 27.4775C4 21.0958 6.17553 15.2223 9.8254 10.5581L13.1895 8.89675L14.5341 5.84413C19.2022 2.18297 25.0849 0 31.4774 0H37.5224C43.9817 0 49.9205 2.22881 54.6115 5.95933L55.9237 8.88355L58.7083 9.97861C62.6383 14.7313 64.9998 20.8286 64.9998 27.4775V33.5225C64.9998 40.1537 62.6509 46.2362 58.7396 50.9834L55.3855 52.4885L54.2796 55.3005C49.6417 58.8745 43.8303 61 37.5224 61H31.4774C25.422 61 19.8242 59.0412 15.2829 55.7228L13.7938 52.7075L10.4813 51.2484C6.43766 46.4636 4 40.2777 4 33.5225V27.4775Z" fill="url(#paint0_linear_597_2586)"/>
<ellipse cx="34.5" cy="30.5001" rx="26.4333" ry="26.4334" fill="url(#paint1_linear_597_2586)"/>
<circle cx="34.5" cy="30.5" r="23" fill="url(#paint2_linear_597_2586)" stroke="#1D2025"/>
<g clip-path="url(#clip0_597_2586)">
<g filter="url(#filter1_d_597_2586)">
<path d="M37.043 40.8633C36.9453 40.8672 36.8828 40.875 36.8203 40.875C35.4844 40.875 34.1523 40.8711 32.8164 40.8789C32.6289 40.8789 32.5781 40.8281 32.5781 40.6406C32.582 37.5313 32.582 34.418 32.582 31.3086C32.582 31.2266 32.582 31.1445 32.582 31.0391C31.8555 31.0391 31.1484 31.0391 30.4297 31.0391C30.4297 29.9297 30.4297 28.8399 30.4297 27.7188C30.5039 27.7188 30.5742 27.7188 30.6406 27.7188C31.2266 27.7188 31.8125 27.7149 32.3984 27.7227C32.5469 27.7227 32.5859 27.6797 32.5859 27.5352C32.5781 26.6641 32.5781 25.7891 32.5859 24.918C32.5898 24.3086 32.6875 23.7149 32.9688 23.1641C33.3711 22.3867 34.0078 21.8828 34.8125 21.5703C35.4688 21.3125 36.1602 21.2188 36.8555 21.207C37.9883 21.1914 39.1211 21.1992 40.2539 21.1953C40.3594 21.1953 40.4453 21.1914 40.4453 21.3399C40.4414 22.4141 40.4414 23.4883 40.4414 24.5625C40.4414 24.5742 40.4375 24.5859 40.4219 24.6367C40.3555 24.6367 40.2812 24.6367 40.207 24.6367C39.5039 24.6367 38.8008 24.6328 38.0977 24.6367C37.6914 24.6367 37.3633 24.8008 37.1563 25.1563C37.0938 25.2617 37.0547 25.3984 37.0547 25.5234C37.043 26.1875 37.0547 26.8516 37.0469 27.5156C37.0469 27.6719 37.0938 27.7149 37.2461 27.7149C38.2227 27.707 39.1992 27.7109 40.1758 27.7109C40.2539 27.7109 40.3281 27.7109 40.4609 27.7109C40.3242 28.8281 40.1914 29.9219 40.0547 31.0274C39.0391 31.0274 38.0508 31.0274 37.043 31.0274C37.043 34.3125 37.043 37.5781 37.043 40.8633Z" fill="#0D0D0D"/>
</g>
</g>
</g>
<defs>
<filter id="filter0_d_597_2586" x="0" y="0" width="69" height="69" filterUnits="userSpaceOnUse" color-interpolation-filters="sRGB">
<feFlood flood-opacity="0" result="BackgroundImageFix"/>
<feColorMatrix in="SourceAlpha" type="matrix" values="0 0 0 0 0 0 0 0 0 0 0 0 0 0 0 0 0 0 127 0" result="hardAlpha"/>
<feOffset dy="4"/>
<feGaussianBlur stdDeviation="2"/>
<feComposite in2="hardAlpha" operator="out"/>
<feColorMatrix type="matrix" values="0 0 0 0 0 0 0 0 0 0 0 0 0 0 0 0 0 0 0.25 0"/>
<feBlend mode="normal" in2="BackgroundImageFix" result="effect1_dropShadow_597_2586"/>
<feBlend mode="normal" in="SourceGraphic" in2="effect1_dropShadow_597_2586" result="shape"/>
</filter>
<filter id="filter1_d_597_2586" x="29.4297" y="21.1953" width="12.0312" height="21.6836" filterUnits="userSpaceOnUse" color-interpolation-filters="sRGB">
<feFlood flood-opacity="0" result="BackgroundImageFix"/>
<feColorMatrix in="SourceAlpha" type="matrix" values="0 0 0 0 0 0 0 0 0 0 0 0 0 0 0 0 0 0 127 0" result="hardAlpha"/>
<feOffset dy="1"/>
<feGaussianBlur stdDeviation="0.5"/>
<feComposite in2="hardAlpha" operator="out"/>
<feColorMatrix type="matrix" values="0 0 0 0 1 0 0 0 0 1 0 0 0 0 1 0 0 0 0.15 0"/>
<feBlend mode="normal" in2="BackgroundImageFix" result="effect1_dropShadow_597_2586"/>
<feBlend mode="normal" in="SourceGraphic" in2="effect1_dropShadow_597_2586" result="shape"/>
</filter>
<linearGradient id="paint0_linear_597_2586" x1="22.2537" y1="-4.23674e-05" x2="50.023" y2="3.19182" gradientUnits="userSpaceOnUse">
<stop stop-color="#1D2126"/>
<stop offset="1" stop-color="#3F4B58"/>
</linearGradient>
<linearGradient id="paint1_linear_597_2586" x1="27.7527" y1="3.12381" x2="55.8942" y2="62.5775" gradientUnits="userSpaceOnUse">
<stop stop-color="#414E5B"/>
<stop offset="1" stop-color="#141519"/>
</linearGradient>
<linearGradient id="paint2_linear_597_2586" x1="28.5015" y1="6.16179" x2="53.52" y2="59.0177" gradientUnits="userSpaceOnUse">
<stop stop-color="#414E5B"/>
<stop offset="1" stop-color="#141519"/>
</linearGradient>
<clipPath id="clip0_597_2586">
<rect width="20" height="20" fill="white" transform="translate(25 21)"/>
</clipPath>
</defs>
</svg>
