<svg width="69" height="69" viewBox="0 0 69 69" fill="none" xmlns="http://www.w3.org/2000/svg">
<g filter="url(#filter0_d_597_2560)">
<path fill-rule="evenodd" clip-rule="evenodd" d="M4 27.4775C4 21.0958 6.17553 15.2223 9.8254 10.5581L13.1895 8.89675L14.5341 5.84413C19.2022 2.18297 25.0849 0 31.4774 0H37.5224C43.9817 0 49.9205 2.22881 54.6115 5.95933L55.9237 8.88355L58.7083 9.97861C62.6383 14.7313 64.9998 20.8286 64.9998 27.4775V33.5225C64.9998 40.1537 62.6509 46.2362 58.7396 50.9834L55.3855 52.4885L54.2796 55.3005C49.6417 58.8745 43.8303 61 37.5224 61H31.4774C25.422 61 19.8242 59.0412 15.2829 55.7228L13.7938 52.7075L10.4813 51.2484C6.43766 46.4636 4 40.2777 4 33.5225V27.4775Z" fill="url(#paint0_linear_597_2560)"/>
<ellipse cx="34.5" cy="30.5001" rx="26.4333" ry="26.4334" fill="url(#paint1_linear_597_2560)"/>
<circle cx="34.5" cy="30.5" r="23" fill="url(#paint2_linear_597_2560)" stroke="#1D2025"/>
<g clip-path="url(#clip0_597_2560)">
<g filter="url(#filter1_d_597_2560)">
<path d="M35.5 29.2V33H41C40.3 35.3 38.4 37 35.6 37C32.3 37 29.6 34.3 29.6 31C29.6 27.7 32.3 25 35.6 25C37.1 25 38.5 25.5 39.5 26.5L42.3 23.7C40.5 22 38.1 21 35.5 21C30 21 25.5 25.5 25.5 31C25.5 36.5 30 41 35.5 41C43.9 41 45.7 33.1 44.9 29.3L35.5 29.2Z" fill="#0D0D0D"/>
</g>
</g>
</g>
<defs>
<filter id="filter0_d_597_2560" x="0" y="0" width="69" height="69" filterUnits="userSpaceOnUse" color-interpolation-filters="sRGB">
<feFlood flood-opacity="0" result="BackgroundImageFix"/>
<feColorMatrix in="SourceAlpha" type="matrix" values="0 0 0 0 0 0 0 0 0 0 0 0 0 0 0 0 0 0 127 0" result="hardAlpha"/>
<feOffset dy="4"/>
<feGaussianBlur stdDeviation="2"/>
<feComposite in2="hardAlpha" operator="out"/>
<feColorMatrix type="matrix" values="0 0 0 0 0 0 0 0 0 0 0 0 0 0 0 0 0 0 0.25 0"/>
<feBlend mode="normal" in2="BackgroundImageFix" result="effect1_dropShadow_597_2560"/>
<feBlend mode="normal" in="SourceGraphic" in2="effect1_dropShadow_597_2560" result="shape"/>
</filter>
<filter id="filter1_d_597_2560" x="24.5" y="21" width="21.5723" height="22" filterUnits="userSpaceOnUse" color-interpolation-filters="sRGB">
<feFlood flood-opacity="0" result="BackgroundImageFix"/>
<feColorMatrix in="SourceAlpha" type="matrix" values="0 0 0 0 0 0 0 0 0 0 0 0 0 0 0 0 0 0 127 0" result="hardAlpha"/>
<feOffset dy="1"/>
<feGaussianBlur stdDeviation="0.5"/>
<feComposite in2="hardAlpha" operator="out"/>
<feColorMatrix type="matrix" values="0 0 0 0 1 0 0 0 0 1 0 0 0 0 1 0 0 0 0.15 0"/>
<feBlend mode="normal" in2="BackgroundImageFix" result="effect1_dropShadow_597_2560"/>
<feBlend mode="normal" in="SourceGraphic" in2="effect1_dropShadow_597_2560" result="shape"/>
</filter>
<linearGradient id="paint0_linear_597_2560" x1="22.2537" y1="-4.23674e-05" x2="50.023" y2="3.19182" gradientUnits="userSpaceOnUse">
<stop stop-color="#1D2126"/>
<stop offset="1" stop-color="#3F4B58"/>
</linearGradient>
<linearGradient id="paint1_linear_597_2560" x1="27.7527" y1="3.12381" x2="55.8942" y2="62.5775" gradientUnits="userSpaceOnUse">
<stop stop-color="#414E5B"/>
<stop offset="1" stop-color="#141519"/>
</linearGradient>
<linearGradient id="paint2_linear_597_2560" x1="28.5015" y1="6.16179" x2="53.52" y2="59.0177" gradientUnits="userSpaceOnUse">
<stop stop-color="#414E5B"/>
<stop offset="1" stop-color="#141519"/>
</linearGradient>
<clipPath id="clip0_597_2560">
<rect width="24" height="24" fill="white" transform="translate(23 19)"/>
</clipPath>
</defs>
</svg>
