<svg width="52" height="52" viewBox="0 0 52 52" fill="none" xmlns="http://www.w3.org/2000/svg">
<path fill-rule="evenodd" clip-rule="evenodd" d="M0 23.4234C0 17.9833 1.85456 12.9764 4.96593 9.00031L7.83373 7.58411L8.97996 4.98188C12.9593 1.86089 17.974 0 23.4234 0H28.5766C34.0829 0 39.1454 1.89997 43.1444 5.08008L44.2629 7.57286L46.6367 8.50636C49.9869 12.5579 52 17.7556 52 23.4234V28.5766C52 34.2294 49.9976 39.4145 46.6634 43.4612L43.8041 44.7443L42.8614 47.1414C38.9078 50.1881 33.9538 52 28.5766 52H23.4234C18.2615 52 13.4895 50.3302 9.61821 47.5014L8.34887 44.931L5.52508 43.6872C2.07801 39.6083 0 34.3351 0 28.5766V23.4234Z" fill="url(#paint0_linear_1313_5023)"/>
<ellipse cx="26" cy="26" rx="23.1386" ry="23.1386" fill="url(#paint1_linear_1313_5023)"/>
<ellipse cx="26" cy="26.0003" rx="19.9471" ry="19.9471" fill="url(#paint2_linear_1313_5023)"/>
<line x1="30.1668" y1="9.37404" x2="21.4935" y2="41.7433" stroke="url(#paint3_linear_1313_5023)"/>
<line x1="36.8299" y1="16.3779" x2="15.289" y2="35.3791" stroke="url(#paint4_linear_1313_5023)" stroke-width="2"/>
<defs>
<linearGradient id="paint0_linear_1313_5023" x1="15.5606" y1="-3.61164e-05" x2="39.2329" y2="2.72092" gradientUnits="userSpaceOnUse">
<stop stop-color="#16202B"/>
<stop offset="1" stop-color="#101419"/>
</linearGradient>
<linearGradient id="paint1_linear_1313_5023" x1="16.7095" y1="2.86129" x2="40.8748" y2="57.4024" gradientUnits="userSpaceOnUse">
<stop stop-color="#20303D"/>
<stop offset="1" stop-color="#0C131B"/>
</linearGradient>
<linearGradient id="paint2_linear_1313_5023" x1="20.9084" y1="5.34174" x2="37.1703" y2="45.1495" gradientUnits="userSpaceOnUse">
<stop stop-color="#0B0C10"/>
<stop offset="1" stop-color="#1D2835"/>
</linearGradient>
<linearGradient id="paint3_linear_1313_5023" x1="20.904" y1="42.7272" x2="29.5677" y2="9.18755" gradientUnits="userSpaceOnUse">
<stop stop-color="#F20000"/>
<stop offset="1" stop-color="#007AFF"/>
</linearGradient>
<linearGradient id="paint4_linear_1313_5023" x1="29.7224" y1="21.3139" x2="26.456" y2="19.2939" gradientUnits="userSpaceOnUse">
<stop stop-color="#ECC271"/>
<stop offset="1" stop-color="#7F642E"/>
</linearGradient>
</defs>
</svg>
