<svg width="50" height="54" viewBox="0 0 50 54" fill="none" xmlns="http://www.w3.org/2000/svg">
<path d="M43.9393 5.94385L49.9999 8.7559V46.7186L43.9393 43.9065V5.94385Z" fill="#182533"/>
<path d="M0 5.94385L21.9697 12.3358L43.9394 5.94385V45.0948L21.9697 51.0873L0 45.0948V5.94385Z" fill="#010203"/>
<path d="M6.06061 8.85693L28.0303 15.2489L50 8.85693V46.5516L28.0303 54.0004L6.06061 48.0079V8.85693Z" fill="url(#paint0_linear_1313_195)"/>
<path d="M9.09088 11.769L19.6969 14.6815V51.0875L9.09088 48.175V11.769Z" fill="#121C26"/>
<path d="M39.3939 13.2255L48.4848 10.313V45.9909L39.3939 48.9033V13.2255Z" fill="#0F151C"/>
<path d="M39.3939 13.2255L48.4849 10.313L34.8485 42.3503H24.2424L39.3939 13.2255Z" fill="#131C27"/>
<path d="M19.697 14.6815L9.09094 11.769L24.2425 42.3501H34.8485L19.697 14.6815Z" fill="#1E2A34"/>
<path d="M0 5.94385L6.06061 8.85633V48.1748L0 45.2623V5.94385Z" fill="#273647"/>
<path fill-rule="evenodd" clip-rule="evenodd" d="M13 17.7032C13 17.0755 13.214 16.4978 13.573 16.039L13.9039 15.8756L14.0361 15.5753C14.4953 15.2152 15.0739 15.0005 15.7027 15.0005L16.2973 15.0005C16.9326 15.0005 17.5168 15.2197 17.9782 15.5867L18.1073 15.8743L18.3812 15.982C18.7677 16.4495 19 17.0492 19 17.7032L19 18.2978C19 18.95 18.769 19.5483 18.3842 20.0152L18.0543 20.1633L17.9455 20.4399C17.4894 20.7914 16.9177 21.0005 16.2973 21.0005L15.7027 21.0005C15.1071 21.0005 14.5565 20.8078 14.1098 20.4814L13.9633 20.1848L13.6375 20.0413C13.2398 19.5707 13 18.9622 13 18.2978L13 17.7032Z" fill="url(#paint1_linear_1313_195)"/>
<circle cx="15.9918" cy="17.976" r="2.40327" fill="url(#paint2_radial_1313_195)"/>
<path fill-rule="evenodd" clip-rule="evenodd" d="M40 15.7032C40 15.0755 40.214 14.4978 40.573 14.039L40.9039 13.8756L41.0361 13.5753C41.4953 13.2152 42.0739 13.0005 42.7027 13.0005L43.2973 13.0005C43.9326 13.0005 44.5168 13.2197 44.9782 13.5867L45.1073 13.8743L45.3812 13.982C45.7677 14.4495 46 15.0492 46 15.7032L46 16.2978C46 16.95 45.769 17.5483 45.3842 18.0152L45.0543 18.1633L44.9455 18.4399C44.4894 18.7914 43.9177 19.0005 43.2973 19.0005L42.7027 19.0005C42.1071 19.0005 41.5565 18.8078 41.1098 18.4814L40.9633 18.1848L40.6375 18.0413C40.2398 17.5707 40 16.9622 40 16.2978L40 15.7032Z" fill="url(#paint3_linear_1313_195)"/>
<circle cx="42.9918" cy="15.976" r="2.40327" fill="url(#paint4_radial_1313_195)"/>
<path fill-rule="evenodd" clip-rule="evenodd" d="M30.5965 0.848991L27.1356 1.01961C27.2203 1.01391 27.3052 1.00896 27.3903 1.00476L30.3401 0.859321C30.4258 0.8551 30.5112 0.851659 30.5965 0.848991ZM42.6415 15.1545L44.5328 15.0612L44.5776 15.9108C44.7416 19.0189 43.7458 21.9264 41.9547 24.2456L40.3551 25.0317L39.885 26.3764C37.7103 28.1631 34.927 29.2992 31.8489 29.451L28.8991 29.5964C25.9442 29.7421 23.1641 28.9587 20.866 27.5125L20.0648 26.135L18.4123 25.5309C16.3207 23.3854 14.9782 20.5447 14.8111 17.3784L14.7663 16.5287L16.5857 16.439C16.5679 16.8109 16.5685 17.1868 16.5886 17.5659C16.9392 24.1986 23.0841 28.287 30.3106 27.9312C37.537 27.5754 43.1085 22.9103 42.7578 16.2776C42.7377 15.8979 42.6987 15.5233 42.6415 15.1545Z" fill="url(#paint5_linear_1313_195)"/>
<defs>
<linearGradient id="paint0_linear_1313_195" x1="28.0303" y1="8.85693" x2="39.7157" y2="54.1058" gradientUnits="userSpaceOnUse">
<stop stop-color="#091722"/>
<stop offset="1" stop-color="#263A4A"/>
</linearGradient>
<linearGradient id="paint1_linear_1313_195" x1="14.7955" y1="15.0005" x2="17.5269" y2="15.3144" gradientUnits="userSpaceOnUse">
<stop stop-color="#ECC271"/>
<stop offset="1" stop-color="#7F642E"/>
</linearGradient>
<radialGradient id="paint2_radial_1313_195" cx="0" cy="0" r="1" gradientUnits="userSpaceOnUse" gradientTransform="translate(15.9918 17.976) rotate(90) scale(3.08899)">
<stop stop-color="#36424B"/>
<stop offset="1" stop-color="#0C0C0C"/>
</radialGradient>
<linearGradient id="paint3_linear_1313_195" x1="41.7955" y1="13.0005" x2="44.5269" y2="13.3144" gradientUnits="userSpaceOnUse">
<stop stop-color="#ECC271"/>
<stop offset="1" stop-color="#7F642E"/>
</linearGradient>
<radialGradient id="paint4_radial_1313_195" cx="0" cy="0" r="1" gradientUnits="userSpaceOnUse" gradientTransform="translate(42.9918 15.976) rotate(90) scale(3.08899)">
<stop stop-color="#36424B"/>
<stop offset="1" stop-color="#0C0C0C"/>
</radialGradient>
<linearGradient id="paint5_linear_1313_195" x1="22.8864" y1="1.22547" x2="39.1354" y2="34.6837" gradientUnits="userSpaceOnUse">
<stop stop-color="#ECC271"/>
<stop offset="1" stop-color="#7F642E"/>
</linearGradient>
</defs>
</svg>
