<svg width="50" height="50" viewBox="0 0 50 50" fill="none" xmlns="http://www.w3.org/2000/svg">
<path d="M0 4.55957L22.0272 10.9936L44.0545 4.55957V43.968L22.0272 49.9999L0 43.968V4.55957Z" fill="#1A2632"/>
<path d="M44.0545 43.968V4.55957L22.0273 10.9936V49.9999L44.0545 43.968Z" fill="#111921"/>
<path d="M3.03821 7.49121L12.1529 10.3143V45.6025L3.03821 42.7794V7.49121Z" fill="#141B23"/>
<path d="M31.9016 9.01234L42.5355 6.02539V42.6155L31.9016 45.6025V9.01234Z" fill="#0D1218"/>
<path d="M33.8004 8.69052L44.0544 6.02539L28.6733 35.3418H18.2294L33.8004 8.69052Z" fill="#1A232D"/>
<path d="M13.0465 10.1436L3.03819 7.49121L17.3358 35.3418H27.3441L13.0465 10.1436Z" fill="#21313D"/>
<path d="M26.5927 25.5873L22.2418 27.3516L23.717 23.5628L23.8317 23.2681L23.6146 23.0381C21.7099 21.0214 20.571 18.4256 20.571 15.5991V12.945C20.571 10.3119 21.5593 7.87963 23.2338 5.92882L24.7819 5.24471L24.9481 5.17125L25.0284 5.00819L25.631 3.78402C27.8198 2.27965 30.5658 1.38135 33.5526 1.38135H36.5185C39.5383 1.38135 42.312 2.29963 44.5124 3.83413L45.0999 5.0057L45.1904 5.1862L45.3809 5.25323L46.6288 5.69237C48.4296 7.68146 49.5 10.2047 49.5 12.9451V15.5991C49.5 18.3357 48.4325 20.8558 46.6361 22.8437L45.0965 23.4619L44.9072 23.5379L44.8251 23.7247L44.3401 24.8281C42.168 26.2915 39.46 27.1628 36.5185 27.1628H33.5526C32.0678 27.1628 30.9785 27.1229 29.9916 26.9139C29.0182 26.7078 28.1249 26.3323 27.0542 25.6321L26.8352 25.4889L26.5927 25.5873Z" fill="url(#paint0_radial_1313_1628)" stroke="url(#paint1_linear_1313_1628)"/>
<path d="M29.5 16.168C29.084 16.168 28.724 16.024 28.42 15.736C28.132 15.432 27.988 15.072 27.988 14.656C27.988 14.24 28.132 13.888 28.42 13.6C28.724 13.296 29.084 13.144 29.5 13.144C29.916 13.144 30.268 13.296 30.556 13.6C30.86 13.888 31.012 14.24 31.012 14.656C31.012 15.072 30.86 15.432 30.556 15.736C30.268 16.024 29.916 16.168 29.5 16.168ZM35.5 16.168C35.084 16.168 34.724 16.024 34.42 15.736C34.132 15.432 33.988 15.072 33.988 14.656C33.988 14.24 34.132 13.888 34.42 13.6C34.724 13.296 35.084 13.144 35.5 13.144C35.916 13.144 36.268 13.296 36.556 13.6C36.86 13.888 37.012 14.24 37.012 14.656C37.012 15.072 36.86 15.432 36.556 15.736C36.268 16.024 35.916 16.168 35.5 16.168ZM41.5 16.168C41.084 16.168 40.724 16.024 40.42 15.736C40.132 15.432 39.988 15.072 39.988 14.656C39.988 14.24 40.132 13.888 40.42 13.6C40.724 13.296 41.084 13.144 41.5 13.144C41.916 13.144 42.268 13.296 42.556 13.6C42.86 13.888 43.012 14.24 43.012 14.656C43.012 15.072 42.86 15.432 42.556 15.736C42.268 16.024 41.916 16.168 41.5 16.168Z" fill="url(#paint2_linear_1313_1628)"/>
<defs>
<radialGradient id="paint0_radial_1313_1628" cx="0" cy="0" r="1" gradientUnits="userSpaceOnUse" gradientTransform="translate(35.0355 14.566) rotate(90) scale(17.5892 19.2342)">
<stop stop-color="#36424B"/>
<stop offset="1" stop-color="#0C0C0C"/>
</radialGradient>
<linearGradient id="paint1_linear_1313_1628" x1="29.0271" y1="0.881322" x2="42.4575" y2="34.0286" gradientUnits="userSpaceOnUse">
<stop stop-color="#ECC271"/>
<stop offset="1" stop-color="#7F642E"/>
</linearGradient>
<linearGradient id="paint2_linear_1313_1628" x1="30.8826" y1="-1.31964e-05" x2="41.2899" y2="1.44807" gradientUnits="userSpaceOnUse">
<stop stop-color="#ECC271"/>
<stop offset="1" stop-color="#7F642E"/>
</linearGradient>
</defs>
</svg>
