<svg width="47" height="51" viewBox="0 0 47 51" fill="none" xmlns="http://www.w3.org/2000/svg">
<path d="M0 0L23.5 7.22124L47 0V44.2301L23.5 51L0 44.2301V0Z" fill="url(#paint0_linear_878_18609)"/>
<path d="M47 44.2301V0L23.5 7.22124V51L47 44.2301Z" fill="url(#paint1_linear_878_18609)"/>
<path d="M34.4904 49.1035L34.4904 49.1035C34.5828 49.9431 34.0376 50.5 33.5603 50.5H13.4396C12.9629 50.5 12.4172 49.9435 12.5096 49.1035C12.5096 49.1035 12.5096 49.1035 12.5096 49.1035L13.3456 41.5H33.6545L34.4904 49.1035Z" fill="url(#paint2_radial_878_18609)" stroke="url(#paint3_linear_878_18609)"/>
<mask id="path-4-inside-1_878_18609" fill="white">
<path fill-rule="evenodd" clip-rule="evenodd" d="M13.7815 37.4612L16.7638 16.737L23.3249 12L29.886 16.737L33.4648 37.4612H23.9214V20.8812H22.7284V37.4612H13.7815Z"/>
</mask>
<path fill-rule="evenodd" clip-rule="evenodd" d="M13.7815 37.4612L16.7638 16.737L23.3249 12L29.886 16.737L33.4648 37.4612H23.9214V20.8812H22.7284V37.4612H13.7815Z" fill="url(#paint4_radial_878_18609)"/>
<path d="M16.7638 16.737L16.1784 15.9262L15.8344 16.1746L15.774 16.5945L16.7638 16.737ZM13.7815 37.4612L12.7917 37.3188L12.6273 38.4612H13.7815V37.4612ZM23.3249 12L23.9103 11.1892L23.3249 10.7666L22.7395 11.1892L23.3249 12ZM29.886 16.737L30.8714 16.5668L30.802 16.1649L30.4714 15.9262L29.886 16.737ZM33.4648 37.4612V38.4612H34.6523L34.4502 37.291L33.4648 37.4612ZM23.9214 37.4612H22.9214V38.4612H23.9214V37.4612ZM23.9214 20.8812H24.9214V19.8812H23.9214V20.8812ZM22.7284 20.8812V19.8812H21.7284V20.8812H22.7284ZM22.7284 37.4612V38.4612H23.7284V37.4612H22.7284ZM15.774 16.5945L12.7917 37.3188L14.7713 37.6037L17.7536 16.8794L15.774 16.5945ZM22.7395 11.1892L16.1784 15.9262L17.3492 17.5477L23.9103 12.8108L22.7395 11.1892ZM30.4714 15.9262L23.9103 11.1892L22.7395 12.8108L29.3006 17.5477L30.4714 15.9262ZM34.4502 37.291L30.8714 16.5668L28.9006 16.9071L32.4794 37.6314L34.4502 37.291ZM23.9214 38.4612H33.4648V36.4612H23.9214V38.4612ZM22.9214 20.8812V37.4612H24.9214V20.8812H22.9214ZM22.7284 21.8812H23.9214V19.8812H22.7284V21.8812ZM23.7284 37.4612V20.8812H21.7284V37.4612H23.7284ZM13.7815 38.4612H22.7284V36.4612H13.7815V38.4612Z" fill="url(#paint5_linear_878_18609)" mask="url(#path-4-inside-1_878_18609)"/>
<path d="M33.375 23.5484L22 40H23.0833L35 23L33.375 23.5484Z" fill="url(#paint6_radial_878_18609)" stroke="url(#paint7_linear_878_18609)"/>
<defs>
<linearGradient id="paint0_linear_878_18609" x1="23.5" y1="0" x2="23.5" y2="51" gradientUnits="userSpaceOnUse">
<stop stop-color="#324559"/>
<stop offset="1" stop-color="#131D28"/>
</linearGradient>
<linearGradient id="paint1_linear_878_18609" x1="35.25" y1="0" x2="35.25" y2="51" gradientUnits="userSpaceOnUse">
<stop stop-color="#111921"/>
<stop offset="1" stop-color="#0D1116"/>
</linearGradient>
<radialGradient id="paint2_radial_878_18609" cx="0" cy="0" r="1" gradientUnits="userSpaceOnUse" gradientTransform="translate(23.5 41) rotate(90) scale(10 31.0556)">
<stop stop-color="#485661"/>
<stop offset="1" stop-color="#090A0A"/>
</radialGradient>
<linearGradient id="paint3_linear_878_18609" x1="18.8826" y1="41" x2="21.5015" y2="54.5949" gradientUnits="userSpaceOnUse">
<stop stop-color="#ECC271"/>
<stop offset="1" stop-color="#7F642E"/>
</linearGradient>
<radialGradient id="paint4_radial_878_18609" cx="0" cy="0" r="1" gradientUnits="userSpaceOnUse" gradientTransform="translate(23.6231 12) rotate(90) scale(25.4612 26.5772)">
<stop stop-color="#485661"/>
<stop offset="1" stop-color="#090A0A"/>
</radialGradient>
<linearGradient id="paint5_linear_878_18609" x1="19.6716" y1="12" x2="35.1589" y2="39.0224" gradientUnits="userSpaceOnUse">
<stop stop-color="#ECC271"/>
<stop offset="1" stop-color="#7F642E"/>
</linearGradient>
<radialGradient id="paint6_radial_878_18609" cx="0" cy="0" r="1" gradientUnits="userSpaceOnUse" gradientTransform="translate(28.5 23) rotate(90) scale(17 17.5531)">
<stop stop-color="#485661"/>
<stop offset="1" stop-color="#090A0A"/>
</radialGradient>
<linearGradient id="paint7_linear_878_18609" x1="25.8902" y1="23" x2="36.2873" y2="40.9448" gradientUnits="userSpaceOnUse">
<stop stop-color="#ECC271"/>
<stop offset="1" stop-color="#7F642E"/>
</linearGradient>
</defs>
</svg>
