<svg width="357" height="318" viewBox="0 0 357 318" fill="none" xmlns="http://www.w3.org/2000/svg">
<g filter="url(#filter0_d_1065_43437)">
<path fill-rule="evenodd" clip-rule="evenodd" d="M205.483 165.642C205.483 157.87 207.407 150.662 210.69 144.727L215.856 141.525L217.946 135.571C222.699 131.381 228.491 128.922 234.741 128.922H245.079C251.39 128.922 257.235 131.43 262.014 135.695L264.092 141.507L268.543 143.703C272.182 149.824 274.337 157.417 274.337 165.642V178.616C274.337 186.757 272.226 194.279 268.654 200.367L263.485 203.279L261.758 208.789C257.026 212.917 251.278 215.336 245.079 215.336H234.741C228.88 215.336 223.421 213.173 218.843 209.448L216.538 203.589L211.389 200.742C207.682 194.589 205.483 186.925 205.483 178.616V165.642Z" fill="url(#paint0_linear_1065_43437)"/>
<path fill-rule="evenodd" clip-rule="evenodd" d="M83.1282 165.642C83.1282 157.87 85.052 150.662 88.3347 144.727L93.5009 141.525L95.5906 135.571C100.344 131.381 106.136 128.922 112.386 128.922H122.724C129.035 128.922 134.88 131.43 139.659 135.695L141.737 141.506L146.188 143.703C149.827 149.824 151.982 157.417 151.982 165.642V178.616C151.982 186.757 149.871 194.279 146.299 200.367L141.13 203.278L139.403 208.789C134.671 212.917 128.923 215.336 122.724 215.336H112.386C106.525 215.336 101.065 213.173 96.4883 209.447L94.183 203.589L89.0342 200.742C85.327 194.589 83.1282 186.925 83.1282 178.616V165.642Z" fill="url(#paint1_linear_1065_43437)"/>
<path d="M122.673 145.648L129.418 147.885L136.164 145.648V159.347L129.418 161.444L122.673 159.347V145.648Z" fill="url(#paint2_linear_1065_43437)"/>
<path d="M219.44 145.648L226.418 147.885L233.397 145.648V159.347L226.418 161.444L219.44 159.347V145.648Z" fill="url(#paint3_linear_1065_43437)"/>
<path d="M178.365 217.719L210.398 205.309C210.398 205.309 197.316 228.062 178.365 239.581V217.719Z" fill="url(#paint4_linear_1065_43437)"/>
<path d="M178.356 217.719L146.323 205.309C146.323 205.309 159.404 228.062 178.356 239.581V217.719Z" fill="url(#paint5_linear_1065_43437)"/>
<path d="M178.526 253.837L212.042 243.289C212.042 243.289 193.417 254.99 178.526 258.636V253.837Z" fill="url(#paint6_linear_1065_43437)"/>
<path d="M178.519 253.837L145.004 243.289C145.004 243.289 163.629 254.99 178.519 258.636V253.837Z" fill="url(#paint7_linear_1065_43437)"/>
<path d="M255.515 17.5697C250.369 24.4298 247.354 32.7617 247.354 41.7453V49.858C275.879 52.9378 298.38 81.4314 301.054 107.127H309.423C319.14 107.127 328.151 104.33 335.568 99.5592L338.275 93.1891L346.378 89.8241C351.978 82.7866 355.287 66.1527 355.287 56.7426V44.9209C355.287 35.4141 351.909 26.6373 346.205 19.562L339.227 17.0226L335.97 10.305C328.478 5.37484 319.316 2.47582 309.423 2.47582H293.218C283.421 2.47582 274.341 2.14304 266.889 6.98598L263.614 13.8686L255.515 17.5697Z" fill="url(#paint8_linear_1065_43437)"/>
<path d="M98.4744 16.7768C103.465 24.2113 106.39 33.2407 106.39 42.9765V51.7679C78.7251 55.1055 56.9029 85.3202 54.3098 113.167H46.1933C36.7695 113.167 28.0301 110.136 20.837 104.966L18.2118 98.0625L10.3531 94.4158C4.92238 86.7891 1.71338 69.4272 1.71338 59.2294V42.9765C1.71338 32.6737 4.98871 26.3377 10.5213 18.67L17.2881 15.918L20.4469 8.6381C27.7132 3.29514 36.5985 0.153413 46.1934 0.153413H61.9097C71.4111 0.153413 80.2167 0.0586368 87.4434 5.30704L90.6203 12.7658L98.4744 16.7768Z" fill="url(#paint9_linear_1065_43437)"/>
<path d="M178.504 299.018L212.02 306.391C212.02 306.391 193.246 300.441 178.356 296.795L178.504 299.018Z" fill="white"/>
<path d="M178.497 299.018L144.981 306.391C144.981 306.391 163.61 300.441 178.501 296.795L178.497 299.018Z" fill="white"/>
<path d="M265.963 35.1577C265.963 6.28829 328.501 1.85904 298.895 1.85904C271.657 1.85904 251.032 12.4718 247.623 38.1373C238.484 34.7647 229.29 32.6897 220.413 31.4536C207.156 29.5991 194.525 29.506 183.493 29.4986C181.786 29.4986 180.118 29.5053 178.501 29.5053C176.888 29.5053 175.222 29.4986 173.507 29.4986C163.7 29.5053 152.633 29.5857 140.98 30.8955C132.248 31.8831 123.171 33.5687 114.073 36.4905C112.51 36.9877 110.94 37.5384 109.377 38.1159C105.954 12.4584 83.4751 0 56.2449 0C26.6379 0.00066998 89.6414 8.14734 89.6414 37.0161C89.6414 63.0441 80.802 52.305 47.6499 104.452C45.9072 107.985 44.2063 111.625 42.6229 115.508C24.3998 159.967 18.8837 185.001 18.8837 208.181C18.8837 216.174 19.5445 223.005 20.5708 228.741C21.604 234.478 23.0019 239.112 24.5448 242.806C28.7529 252.875 35.3434 260.874 42.7534 267.067C53.8901 276.377 66.8031 281.899 77.904 285.882C83.4545 287.864 88.5722 289.448 92.7453 290.805C94.8254 291.477 96.6643 292.094 98.1515 292.652C99.6387 293.202 100.782 293.706 101.375 294.029C104.019 295.426 107.587 297.568 111.995 299.939C118.606 303.513 127.166 307.596 138.102 310.713C149.032 313.843 162.338 316.007 178.501 316C200.05 316.013 216.523 312.138 229.057 307.335C235.325 304.937 240.599 302.324 245.007 299.94C249.408 297.569 252.976 295.427 255.627 294.029C256.419 293.599 258.175 292.86 260.448 292.082C264.456 290.671 270.076 288.992 276.363 286.842C285.805 283.591 296.824 279.252 307.092 272.414C312.223 268.988 317.161 264.932 321.534 260.029C325.907 255.139 329.695 249.403 332.456 242.807C333.999 239.119 335.397 234.478 336.43 228.742C337.464 223.005 338.117 216.174 338.117 208.174C338.111 185.002 332.601 159.961 314.378 115.509C312.794 111.627 311.108 107.973 309.365 104.453C284.749 54.7321 265.963 61.1791 265.963 35.1577ZM328.19 208.173C328.19 215.146 327.618 220.868 326.798 225.422C325.986 229.97 324.918 233.349 323.996 235.537C321.097 242.43 316.689 247.87 311.186 252.504C302.956 259.422 282.443 264.259 272.333 267.845C267.278 269.645 262.402 271.157 258.029 272.581C255.833 273.293 253.766 273.985 251.817 274.71C249.861 275.441 248.029 276.195 246.218 277.149C242.837 278.955 239.42 281.01 235.475 283.133C229.579 286.317 222.542 289.661 213.368 292.281C204.202 294.9 192.886 296.788 178.501 296.795C159.314 296.781 145.609 293.451 135.134 289.453C129.893 287.445 125.458 285.255 121.525 283.133C117.579 281.01 114.163 278.954 110.782 277.149C108.371 275.886 105.906 274.952 103.192 273.998C98.4682 272.345 93.0071 270.727 87.1805 268.725C78.455 265.736 57.8482 261.907 49.8653 256.561C45.8639 253.901 42.2348 250.871 39.1498 247.412C36.0647 243.953 33.5093 240.077 31.6086 235.536C30.6853 233.347 29.6178 229.969 28.8059 225.421C27.9863 220.867 27.4079 215.145 27.4141 208.179C27.4079 187.982 35.5054 164.369 52.9976 121.704C59.8436 104.999 67.9907 84.8417 76.7643 75.7675C83.3479 68.9565 90.3038 63.8921 97.5276 60.023C108.354 54.233 119.862 51.1571 131.473 49.5311C143.071 47.9057 162.625 48.7009 173.507 48.7009C175.181 48.7009 176.847 48.7143 178.501 48.7143C180.147 48.7143 181.813 48.7009 183.493 48.7009C193.163 48.7009 211.347 48.8081 221.663 49.9765C229.397 50.8502 237.145 52.3148 244.685 54.7321C256 58.3727 266.854 64.0823 276.916 73.4319C286.963 82.7948 296.296 103.846 304.002 122.632C321.494 165.294 328.198 187.983 328.19 208.173Z" fill="url(#paint10_linear_1065_43437)"/>
</g>
<g filter="url(#filter1_d_1065_43437)">
<path d="M306.662 105.182L309.997 104.657L309.999 104.657L310.006 104.656L310.041 104.65L310.183 104.627C310.309 104.607 310.498 104.575 310.741 104.533C311.229 104.45 311.938 104.324 312.814 104.159C314.566 103.828 316.976 103.337 319.609 102.702C324.666 101.482 330.185 99.8065 333.581 97.8431L335.974 92.2114L336.373 91.2718L337.316 90.8803L344.797 87.7736C347.089 84.6225 349.075 79.3937 350.504 73.5765C351.993 67.5175 352.787 61.2094 352.787 56.7426V44.9209C352.787 36.2604 349.796 28.2328 344.685 21.6693L338.372 19.3718L337.42 19.0252L336.978 18.1133L334.027 12.027C327.109 7.66932 318.3 5.55539 309.261 4.9706C304.499 4.66248 301.878 4.50895 300.45 4.43257C299.737 4.39437 299.327 4.37573 299.1 4.3667C298.987 4.3622 298.922 4.36022 298.89 4.35939C298.885 4.35923 298.88 4.35912 298.877 4.35904C285.548 4.36141 274.124 6.966 265.689 12.4676C257.343 17.9111 251.715 26.3193 250.101 38.4665L249.69 41.5648L246.758 40.4827C237.816 37.1831 228.802 35.1458 220.069 33.9297L220.067 33.9295C206.999 32.1015 194.523 32.006 183.492 31.9986C182.641 31.9986 181.8 32.0003 180.968 32.002L180.933 32.002C180.113 32.0037 179.301 32.0053 178.501 32.0053C177.705 32.0053 176.896 32.0037 176.078 32.002L176.037 32.002C175.205 32.0003 174.362 31.9986 173.508 31.9986C163.705 32.0053 152.762 32.0871 141.261 33.3797L306.662 105.182ZM306.662 105.182L308.137 108.219M306.662 105.182L308.137 108.219M308.137 108.219L309.684 111.403L309.754 111.547L309.83 111.663L309.83 111.664L309.833 111.668C309.834 111.669 309.835 111.671 309.837 111.673C309.837 111.674 309.836 111.672 309.837 111.674C309.838 111.675 309.839 111.677 309.84 111.678C309.84 111.679 309.84 111.679 309.84 111.68C309.854 111.702 309.882 111.748 309.923 111.821C310.006 111.965 310.143 112.214 310.332 112.586C310.71 113.331 311.294 114.567 312.064 116.453L312.065 116.457C330.236 160.781 335.611 185.472 335.617 208.174L308.137 108.219ZM114.838 38.8708L114.831 38.873C113.314 39.3553 111.782 39.8926 110.243 40.461L107.312 41.5437L106.899 38.4465C105.387 27.1165 99.9736 18.6012 92.026 12.697C84.0448 6.7677 73.3867 3.38968 61.3374 2.65341H46.1934C37.391 2.65341 29.2217 5.45821 22.4675 10.262L19.5816 16.9132L19.1753 17.8494L18.23 18.2339L12.1321 20.7138C7.02814 27.8789 4.21338 33.6489 4.21338 42.9765V59.2294C4.21338 64.1119 4.98757 70.8154 6.43549 77.2369C7.82561 83.4019 9.76644 88.9844 12.029 92.4374L19.2641 95.7948L20.1869 96.223L20.5485 97.1739L22.9049 103.371C29.5866 108.106 34.8648 110.667 43.3031 110.667H46.6328L45.7038 113.865L45.0236 116.206L44.9865 116.334L44.9361 116.457C26.7652 160.788 21.3837 185.472 21.3837 208.181C21.3837 216.036 22.0331 222.719 23.0316 228.3C24.0369 233.881 25.3877 238.337 26.8514 241.842L114.838 38.8708ZM114.838 38.8708C123.742 36.0112 132.65 34.3535 141.26 33.3798L114.838 38.8708ZM42.7534 267.067L44.3568 265.149C55.1521 274.173 67.7327 279.576 78.7447 283.527C82.9984 285.046 86.983 286.325 90.5182 287.46C91.5579 287.794 92.5587 288.115 93.516 288.427C93.5168 288.427 93.5175 288.427 93.5183 288.427L42.7534 267.067ZM42.7534 267.067L44.3567 265.149M42.7534 267.067L44.3567 265.149M44.3567 265.149C37.1992 259.167 30.8797 251.481 26.8517 241.843L44.3567 265.149Z" stroke="url(#paint11_angular_1065_43437)" stroke-width="5" shape-rendering="crispEdges"/>
</g>
<defs>
<filter id="filter0_d_1065_43437" x="0.713379" y="0" width="355.573" height="318" filterUnits="userSpaceOnUse" color-interpolation-filters="sRGB">
<feFlood flood-opacity="0" result="BackgroundImageFix"/>
<feColorMatrix in="SourceAlpha" type="matrix" values="0 0 0 0 0 0 0 0 0 0 0 0 0 0 0 0 0 0 127 0" result="hardAlpha"/>
<feOffset dy="1"/>
<feGaussianBlur stdDeviation="0.5"/>
<feComposite in2="hardAlpha" operator="out"/>
<feColorMatrix type="matrix" values="0 0 0 0 1 0 0 0 0 1 0 0 0 0 1 0 0 0 0.1 0"/>
<feBlend mode="normal" in2="BackgroundImageFix" result="effect1_dropShadow_1065_43437"/>
<feBlend mode="normal" in="SourceGraphic" in2="effect1_dropShadow_1065_43437" result="shape"/>
</filter>
<filter id="filter1_d_1065_43437" x="0.713379" y="0.15332" width="355.573" height="317.847" filterUnits="userSpaceOnUse" color-interpolation-filters="sRGB">
<feFlood flood-opacity="0" result="BackgroundImageFix"/>
<feColorMatrix in="SourceAlpha" type="matrix" values="0 0 0 0 0 0 0 0 0 0 0 0 0 0 0 0 0 0 127 0" result="hardAlpha"/>
<feOffset dy="1"/>
<feGaussianBlur stdDeviation="0.5"/>
<feComposite in2="hardAlpha" operator="out"/>
<feColorMatrix type="matrix" values="0 0 0 0 1 0 0 0 0 1 0 0 0 0 1 0 0 0 0.1 0"/>
<feBlend mode="normal" in2="BackgroundImageFix" result="effect1_dropShadow_1065_43437"/>
<feBlend mode="normal" in="SourceGraphic" in2="effect1_dropShadow_1065_43437" result="shape"/>
</filter>
<linearGradient id="paint0_linear_1065_43437" x1="178.501" y1="-3.17562" x2="178.501" y2="316" gradientUnits="userSpaceOnUse">
<stop stop-color="#2F3B45"/>
<stop offset="1" stop-color="#141C22"/>
</linearGradient>
<linearGradient id="paint1_linear_1065_43437" x1="178.501" y1="-3.17562" x2="178.501" y2="316" gradientUnits="userSpaceOnUse">
<stop stop-color="#2F3B45"/>
<stop offset="1" stop-color="#141C22"/>
</linearGradient>
<linearGradient id="paint2_linear_1065_43437" x1="178.501" y1="-3.17562" x2="178.501" y2="316" gradientUnits="userSpaceOnUse">
<stop stop-color="#2F3B45"/>
<stop offset="1" stop-color="#141C22"/>
</linearGradient>
<linearGradient id="paint3_linear_1065_43437" x1="178.501" y1="-3.17562" x2="178.501" y2="316" gradientUnits="userSpaceOnUse">
<stop stop-color="#2F3B45"/>
<stop offset="1" stop-color="#141C22"/>
</linearGradient>
<linearGradient id="paint4_linear_1065_43437" x1="178.501" y1="-3.17562" x2="178.501" y2="316" gradientUnits="userSpaceOnUse">
<stop stop-color="#2F3B45"/>
<stop offset="1" stop-color="#141C22"/>
</linearGradient>
<linearGradient id="paint5_linear_1065_43437" x1="178.501" y1="-3.17562" x2="178.501" y2="316" gradientUnits="userSpaceOnUse">
<stop stop-color="#2F3B45"/>
<stop offset="1" stop-color="#141C22"/>
</linearGradient>
<linearGradient id="paint6_linear_1065_43437" x1="178.501" y1="-3.17562" x2="178.501" y2="316" gradientUnits="userSpaceOnUse">
<stop stop-color="#2F3B45"/>
<stop offset="1" stop-color="#141C22"/>
</linearGradient>
<linearGradient id="paint7_linear_1065_43437" x1="178.501" y1="-3.17562" x2="178.501" y2="316" gradientUnits="userSpaceOnUse">
<stop stop-color="#2F3B45"/>
<stop offset="1" stop-color="#141C22"/>
</linearGradient>
<linearGradient id="paint8_linear_1065_43437" x1="178.501" y1="-3.17562" x2="178.501" y2="316" gradientUnits="userSpaceOnUse">
<stop stop-color="#2F3B45"/>
<stop offset="1" stop-color="#141C22"/>
</linearGradient>
<linearGradient id="paint9_linear_1065_43437" x1="178.501" y1="-3.17562" x2="178.501" y2="316" gradientUnits="userSpaceOnUse">
<stop stop-color="#2F3B45"/>
<stop offset="1" stop-color="#141C22"/>
</linearGradient>
<linearGradient id="paint10_linear_1065_43437" x1="178.501" y1="-3.17562" x2="178.501" y2="316" gradientUnits="userSpaceOnUse">
<stop stop-color="#2F3B45"/>
<stop offset="1" stop-color="#141C22"/>
</linearGradient>
<radialGradient id="paint11_angular_1065_43437" cx="0" cy="0" r="1" gradientUnits="userSpaceOnUse" gradientTransform="translate(178.5 158) rotate(89.8796) scale(229.293 233.018)">
<stop stop-color="#007AFF"/>
<stop offset="1" stop-color="#21C004" stop-opacity="0"/>
</radialGradient>
</defs>
</svg>
