<svg width="339" height="304" viewBox="0 0 339 304" fill="none" xmlns="http://www.w3.org/2000/svg">
<g filter="url(#filter0_d_1065_43348)">
<path fill-rule="evenodd" clip-rule="evenodd" d="M195.218 158.303C195.218 150.876 197.052 143.987 200.181 138.315L205.105 135.255L207.097 129.565C211.627 125.561 217.148 123.21 223.105 123.21H232.958C238.974 123.21 244.544 125.607 249.1 129.683L251.08 135.237L255.323 137.337C258.791 143.187 260.845 150.443 260.845 158.303V170.703C260.845 178.483 258.833 185.672 255.428 191.49L250.501 194.272L248.855 199.539C244.346 203.484 238.867 205.796 232.958 205.796H223.105C217.518 205.796 212.315 203.729 207.952 200.168L205.755 194.569L200.848 191.849C197.314 185.968 195.218 178.644 195.218 170.703V158.303Z" fill="url(#paint0_linear_1065_43348)"/>
<path fill-rule="evenodd" clip-rule="evenodd" d="M78.5986 158.303C78.5986 150.875 80.4323 143.987 83.5611 138.315L88.4851 135.255L90.4769 129.564C95.0076 125.56 100.528 123.21 106.485 123.21H116.338C122.354 123.21 127.924 125.607 132.48 129.683L134.46 135.237L138.703 137.337C142.171 143.186 144.225 150.443 144.225 158.303V170.703C144.225 178.483 142.213 185.672 138.808 191.49L133.881 194.272L132.235 199.539C127.726 203.484 122.247 205.796 116.338 205.796H106.485C100.898 205.796 95.6951 203.728 91.3325 200.168L89.1352 194.569L84.2278 191.849C80.6944 185.968 78.5986 178.643 78.5986 170.703V158.303Z" fill="url(#paint1_linear_1065_43348)"/>
<path d="M116.289 139.195L122.719 141.333L129.149 139.195V152.288L122.719 154.292L116.289 152.288V139.195Z" fill="url(#paint2_linear_1065_43348)"/>
<path d="M208.521 139.195L215.172 141.333L221.824 139.195V152.288L215.172 154.292L208.521 152.288V139.195Z" fill="url(#paint3_linear_1065_43348)"/>
<path d="M169.371 208.074L199.903 196.213C199.903 196.213 187.434 217.958 169.371 228.967V208.074Z" fill="url(#paint4_linear_1065_43348)"/>
<path d="M169.362 208.074L138.831 196.213C138.831 196.213 151.299 217.958 169.362 228.967V208.074Z" fill="url(#paint5_linear_1065_43348)"/>
<path d="M169.525 242.591L201.47 232.51C201.47 232.51 183.718 243.693 169.525 247.178V242.591Z" fill="url(#paint6_linear_1065_43348)"/>
<path d="M169.519 242.591L137.574 232.51C137.574 232.51 155.326 243.693 169.519 247.178V242.591Z" fill="url(#paint7_linear_1065_43348)"/>
<path d="M242.905 16.7913C238.001 23.3475 235.126 31.3102 235.126 39.8959V47.6491C262.314 50.5925 283.761 77.8237 286.309 102.381H294.286C303.548 102.381 312.136 99.708 319.206 95.1484L321.786 89.0605L329.509 85.8446C334.846 79.1189 338 63.2219 338 54.2287V42.9308C338 33.8451 334.781 25.4572 329.344 18.6953L322.693 16.2684L319.589 9.84849C312.448 5.13671 303.716 2.36613 294.286 2.36613H278.84C269.503 2.36613 260.849 2.04809 253.746 6.67648L250.624 13.2541L242.905 16.7913Z" fill="url(#paint8_linear_1065_43348)"/>
<path d="M93.2255 16.0335C97.982 23.1387 100.77 31.768 100.77 41.0725V49.4744C74.4019 52.6641 53.6026 81.5402 51.131 108.153H43.395C34.4129 108.153 26.0832 105.257 19.2272 100.316L16.725 93.718L9.23475 90.2328C4.05859 82.944 1 66.3514 1 56.6053V41.0724C1 31.2261 4.12181 25.1708 9.39508 17.8429L15.8447 15.2128L18.8555 8.2554C25.7811 3.14915 34.2499 0.146616 43.3951 0.146616H58.3747C67.4307 0.146616 75.8236 0.0560389 82.7115 5.07192L85.7396 12.2003L93.2255 16.0335Z" fill="url(#paint9_linear_1065_43348)"/>
<path d="M169.504 285.771L201.449 292.816C201.449 292.816 183.555 287.13 169.362 283.646L169.504 285.771Z" fill="white"/>
<path d="M169.497 285.771L137.552 292.816C137.552 292.816 155.308 287.131 169.501 283.646L169.497 285.771Z" fill="white"/>
<path d="M252.863 33.6001C252.863 6.0097 312.47 1.77668 284.251 1.77668C258.29 1.77668 238.633 11.9192 235.383 36.4477C226.672 33.2245 217.909 31.2415 209.449 30.0601C196.813 28.2878 184.774 28.1988 174.259 28.1917C172.632 28.1917 171.043 28.1981 169.501 28.1981C167.964 28.1981 166.376 28.1917 164.741 28.1917C155.394 28.1981 144.846 28.275 133.739 29.5267C125.416 30.4705 116.765 32.0815 108.093 34.8739C106.603 35.349 105.107 35.8753 103.617 36.4272C100.354 11.9064 78.9293 0 52.9754 0C24.7562 0.000640297 84.8065 7.78638 84.8065 35.3761C84.8065 60.251 76.3815 49.9877 44.7833 99.8247C43.1223 103.2 41.5011 106.68 39.992 110.391C22.623 152.88 17.3655 176.805 17.3655 198.958C17.3655 206.596 17.9953 213.125 18.9735 218.607C19.9583 224.089 21.2907 228.518 22.7612 232.049C26.7721 241.672 33.0537 249.316 40.1164 255.235C50.731 264.132 63.0388 269.41 73.6193 273.216C78.9096 275.11 83.7874 276.624 87.765 277.921C89.7475 278.563 91.5003 279.154 92.9178 279.686C94.3353 280.212 95.4248 280.694 95.9898 281.002C98.5105 282.337 101.911 284.385 106.112 286.651C112.413 290.066 120.573 293.969 130.996 296.947C141.413 299.939 154.095 302.006 169.501 302C190.04 302.012 205.741 298.309 217.687 293.719C223.661 291.427 228.688 288.93 232.89 286.651C237.084 284.386 240.485 282.338 243.012 281.003C243.767 280.592 245.44 279.885 247.607 279.141C251.427 277.793 256.783 276.188 262.776 274.134C271.775 271.027 282.278 266.88 292.064 260.345C296.955 257.071 301.662 253.195 305.83 248.508C309.998 243.835 313.608 238.353 316.24 232.049C317.711 228.525 319.043 224.09 320.028 218.608C321.012 213.126 321.636 206.597 321.636 198.951C321.63 176.805 316.378 152.874 299.009 110.392C297.499 106.681 295.892 103.19 294.231 99.8254C270.768 52.3072 252.863 58.4686 252.863 33.6001ZM312.174 198.951C312.174 205.614 311.629 211.083 310.847 215.435C310.073 219.781 309.055 223.01 308.176 225.102C305.413 231.689 301.211 236.888 295.966 241.317C288.122 247.929 268.57 252.551 258.935 255.979C254.117 257.699 249.47 259.144 245.302 260.504C243.208 261.185 241.238 261.846 239.38 262.539C237.516 263.238 235.77 263.958 234.044 264.87C230.821 266.596 227.565 268.561 223.805 270.589C218.185 273.632 211.477 276.828 202.734 279.332C193.997 281.835 183.212 283.639 169.501 283.646C151.213 283.632 138.15 280.45 128.166 276.63C123.171 274.71 118.944 272.617 115.196 270.589C111.434 268.561 108.178 266.595 104.956 264.87C102.658 263.663 100.308 262.77 97.7222 261.859C93.2196 260.28 88.0144 258.733 82.4609 256.819C74.1444 253.963 54.5036 250.304 46.8949 245.194C43.081 242.652 39.622 239.757 36.6816 236.451C33.7412 233.145 31.3056 229.441 29.4939 225.101C28.6139 223.008 27.5965 219.78 26.8226 215.434C26.0415 211.082 25.4902 205.613 25.4961 198.956C25.4902 179.653 33.208 157.087 49.8803 116.312C56.4054 100.347 64.1707 81.0829 72.533 72.4107C78.808 65.9014 85.4379 61.0614 92.3231 57.3637C102.642 51.8303 113.611 48.8907 124.678 47.3367C135.732 45.7833 154.37 46.5433 164.741 46.5433C166.336 46.5433 167.925 46.5561 169.501 46.5561C171.069 46.5561 172.658 46.5433 174.259 46.5433C183.475 46.5433 200.807 46.6457 210.64 47.7624C218.011 48.5973 225.396 49.997 232.583 52.3072C243.368 55.7866 253.713 61.2432 263.303 70.1786C272.879 79.1267 281.774 99.2453 289.12 117.199C305.792 157.971 312.181 179.655 312.174 198.951Z" fill="url(#paint10_linear_1065_43348)"/>
</g>
<defs>
<filter id="filter0_d_1065_43348" x="0" y="0" width="339" height="304" filterUnits="userSpaceOnUse" color-interpolation-filters="sRGB">
<feFlood flood-opacity="0" result="BackgroundImageFix"/>
<feColorMatrix in="SourceAlpha" type="matrix" values="0 0 0 0 0 0 0 0 0 0 0 0 0 0 0 0 0 0 127 0" result="hardAlpha"/>
<feOffset dy="1"/>
<feGaussianBlur stdDeviation="0.5"/>
<feComposite in2="hardAlpha" operator="out"/>
<feColorMatrix type="matrix" values="0 0 0 0 1 0 0 0 0 1 0 0 0 0 1 0 0 0 0.1 0"/>
<feBlend mode="normal" in2="BackgroundImageFix" result="effect1_dropShadow_1065_43348"/>
<feBlend mode="normal" in="SourceGraphic" in2="effect1_dropShadow_1065_43348" result="shape"/>
</filter>
<linearGradient id="paint0_linear_1065_43348" x1="169.501" y1="-3.03493" x2="169.501" y2="302" gradientUnits="userSpaceOnUse">
<stop stop-color="#2F3B45"/>
<stop offset="1" stop-color="#141C22"/>
</linearGradient>
<linearGradient id="paint1_linear_1065_43348" x1="169.501" y1="-3.03493" x2="169.501" y2="302" gradientUnits="userSpaceOnUse">
<stop stop-color="#2F3B45"/>
<stop offset="1" stop-color="#141C22"/>
</linearGradient>
<linearGradient id="paint2_linear_1065_43348" x1="169.501" y1="-3.03493" x2="169.501" y2="302" gradientUnits="userSpaceOnUse">
<stop stop-color="#2F3B45"/>
<stop offset="1" stop-color="#141C22"/>
</linearGradient>
<linearGradient id="paint3_linear_1065_43348" x1="169.501" y1="-3.03493" x2="169.501" y2="302" gradientUnits="userSpaceOnUse">
<stop stop-color="#2F3B45"/>
<stop offset="1" stop-color="#141C22"/>
</linearGradient>
<linearGradient id="paint4_linear_1065_43348" x1="169.501" y1="-3.03493" x2="169.501" y2="302" gradientUnits="userSpaceOnUse">
<stop stop-color="#2F3B45"/>
<stop offset="1" stop-color="#141C22"/>
</linearGradient>
<linearGradient id="paint5_linear_1065_43348" x1="169.501" y1="-3.03493" x2="169.501" y2="302" gradientUnits="userSpaceOnUse">
<stop stop-color="#2F3B45"/>
<stop offset="1" stop-color="#141C22"/>
</linearGradient>
<linearGradient id="paint6_linear_1065_43348" x1="169.501" y1="-3.03493" x2="169.501" y2="302" gradientUnits="userSpaceOnUse">
<stop stop-color="#2F3B45"/>
<stop offset="1" stop-color="#141C22"/>
</linearGradient>
<linearGradient id="paint7_linear_1065_43348" x1="169.501" y1="-3.03493" x2="169.501" y2="302" gradientUnits="userSpaceOnUse">
<stop stop-color="#2F3B45"/>
<stop offset="1" stop-color="#141C22"/>
</linearGradient>
<linearGradient id="paint8_linear_1065_43348" x1="169.501" y1="-3.03493" x2="169.501" y2="302" gradientUnits="userSpaceOnUse">
<stop stop-color="#2F3B45"/>
<stop offset="1" stop-color="#141C22"/>
</linearGradient>
<linearGradient id="paint9_linear_1065_43348" x1="169.501" y1="-3.03493" x2="169.501" y2="302" gradientUnits="userSpaceOnUse">
<stop stop-color="#2F3B45"/>
<stop offset="1" stop-color="#141C22"/>
</linearGradient>
<linearGradient id="paint10_linear_1065_43348" x1="169.501" y1="-3.03493" x2="169.501" y2="302" gradientUnits="userSpaceOnUse">
<stop stop-color="#2F3B45"/>
<stop offset="1" stop-color="#141C22"/>
</linearGradient>
</defs>
</svg>
