<svg width="52" height="52" viewBox="0 0 52 52" fill="none" xmlns="http://www.w3.org/2000/svg">
<path fill-rule="evenodd" clip-rule="evenodd" d="M0 23.4234C0 17.9833 1.85456 12.9764 4.96593 9.00031L7.83373 7.58411L8.97996 4.98188C12.9593 1.86089 17.974 0 23.4234 0H28.5766C34.0829 0 39.1454 1.89997 43.1444 5.08008L44.2629 7.57286L46.6367 8.50636C49.9869 12.5579 52 17.7556 52 23.4234V28.5766C52 34.2294 49.9976 39.4145 46.6634 43.4612L43.8041 44.7443L42.8614 47.1414C38.9078 50.1881 33.9538 52 28.5766 52H23.4234C18.2615 52 13.4895 50.3302 9.61821 47.5014L8.34887 44.931L5.52508 43.6872C2.07801 39.6083 0 34.3351 0 28.5766V23.4234Z" fill="url(#paint0_linear_878_18550)"/>
<ellipse cx="26" cy="25.9997" rx="23.1386" ry="23.1386" fill="url(#paint1_linear_878_18550)"/>
<ellipse cx="26.0001" cy="26.0001" rx="19.9471" ry="19.9471" fill="url(#paint2_linear_878_18550)"/>
<path d="M38.9814 26.6441C38.9814 33.7314 33.3074 39.4662 26.3209 39.4662C19.3344 39.4662 13.6604 33.7314 13.6604 26.6441C13.6604 19.5569 19.3344 13.822 26.3209 13.822C33.3074 13.822 38.9814 19.5569 38.9814 26.6441Z" fill="url(#paint3_radial_878_18550)" stroke="url(#paint4_linear_878_18550)"/>
<path d="M31.3158 20.3054C30.3762 19.5509 29.2226 19.0421 27.9798 18.834C26.863 18.6474 25.6954 18.7092 24.5736 19.0115L23.9572 17.1216L23.0243 17.4334L23.6408 19.3233C22.5617 19.7566 21.5874 20.4108 20.8 21.2339C19.9239 22.1502 19.2964 23.2543 18.9854 24.4268C18.9652 24.5034 18.9461 24.5799 18.9287 24.6566C19.0958 24.6161 19.2788 24.5672 19.4731 24.5074C19.6562 24.4512 19.8489 24.3853 20.0479 24.3094C20.9254 23.9728 21.9186 23.4275 22.6859 22.5521L23.3093 21.8403L23.5308 22.7647C23.5386 22.797 24.3248 25.9462 26.4015 26.2009C27.9203 24.7444 26.6988 21.7407 26.6859 21.7097L26.323 20.8351L27.2398 21.03C28.3716 21.2709 29.4905 21.1099 30.3934 20.8514C30.5978 20.7928 30.7915 20.7291 30.9714 20.6641C31.1626 20.595 31.3385 20.524 31.4966 20.4558C31.4375 20.4047 31.377 20.3547 31.3158 20.3054Z" fill="url(#paint5_linear_878_18550)"/>
<defs>
<linearGradient id="paint0_linear_878_18550" x1="15.5606" y1="-3.61164e-05" x2="39.2329" y2="2.72092" gradientUnits="userSpaceOnUse">
<stop stop-color="#16202B"/>
<stop offset="1" stop-color="#101419"/>
</linearGradient>
<linearGradient id="paint1_linear_878_18550" x1="16.7094" y1="2.86104" x2="40.8748" y2="57.4021" gradientUnits="userSpaceOnUse">
<stop stop-color="#20303D"/>
<stop offset="1" stop-color="#0C131B"/>
</linearGradient>
<linearGradient id="paint2_linear_878_18550" x1="20.9085" y1="5.3415" x2="37.1704" y2="45.1493" gradientUnits="userSpaceOnUse">
<stop stop-color="#0B0C10"/>
<stop offset="1" stop-color="#1D2835"/>
</linearGradient>
<radialGradient id="paint3_radial_878_18550" cx="0" cy="0" r="1" gradientUnits="userSpaceOnUse" gradientTransform="translate(26.3209 13.322) rotate(90) scale(26.6442 35.5397)">
<stop stop-color="#485661"/>
<stop offset="1" stop-color="#090A0A"/>
</radialGradient>
<linearGradient id="paint4_linear_878_18550" x1="21.0368" y1="13.322" x2="35.064" y2="44.5973" gradientUnits="userSpaceOnUse">
<stop stop-color="#ECC271"/>
<stop offset="1" stop-color="#7F642E"/>
</linearGradient>
<linearGradient id="paint5_linear_878_18550" x1="20.9676" y1="18.1209" x2="28.3503" y2="28.3316" gradientUnits="userSpaceOnUse">
<stop stop-color="#ECC271"/>
<stop offset="1" stop-color="#7F642E"/>
</linearGradient>
</defs>
</svg>
