<svg width="52" height="52" viewBox="0 0 52 52" fill="none" xmlns="http://www.w3.org/2000/svg">
<path fill-rule="evenodd" clip-rule="evenodd" d="M0 23.4234C0 17.9833 1.85456 12.9764 4.96593 9.00031L7.83373 7.58411L8.97996 4.98188C12.9593 1.86089 17.974 0 23.4234 0H28.5766C34.0829 0 39.1454 1.89997 43.1444 5.08008L44.2629 7.57286L46.6367 8.50636C49.9869 12.5579 52 17.7556 52 23.4234V28.5766C52 34.2294 49.9976 39.4145 46.6634 43.4612L43.8041 44.7443L42.8614 47.1414C38.9078 50.1881 33.9538 52 28.5766 52H23.4234C18.2615 52 13.4895 50.3302 9.61821 47.5014L8.34887 44.931L5.52508 43.6872C2.07801 39.6083 0 34.3351 0 28.5766V23.4234Z" fill="url(#paint0_linear_878_18662)"/>
<ellipse cx="26" cy="26" rx="23.1386" ry="23.1386" fill="url(#paint1_linear_878_18662)"/>
<ellipse cx="26.0001" cy="26.0001" rx="19.9471" ry="19.9471" fill="url(#paint2_linear_878_18662)"/>
<path d="M28.5196 31.7016V35.7149C28.5196 36.4275 28.6509 37.0816 28.893 37.667C28.059 37.8668 27.2047 37.986 26.321 37.986C20.1531 37.986 15.1228 32.9053 15.1228 26.6509C15.1228 20.3826 20.1535 15.3022 26.321 15.3022C32.4886 15.3022 37.5193 20.3826 37.5193 26.6509C37.5193 26.7957 37.5141 26.9384 37.5058 27.0821C37.3642 27.071 37.2205 27.0655 37.0748 27.0655H33.1079C31.77 27.0655 30.6143 27.524 29.7923 28.3555C28.9709 29.1866 28.5196 30.353 28.5196 31.7016Z" fill="url(#paint3_radial_878_18662)" stroke="url(#paint4_linear_878_18662)"/>
<path fill-rule="evenodd" clip-rule="evenodd" d="M24.0022 12.0215C24.0022 12.839 24.6569 13.5017 25.4644 13.5017L27.5324 13.5017C28.34 13.5017 28.9947 12.839 28.9947 12.0215C28.9947 11.204 28.34 10.5413 27.5324 10.5412L25.4645 10.5413C24.6569 10.5412 24.0021 11.204 24.0022 12.0215Z" fill="url(#paint5_linear_878_18662)"/>
<line x1="25.3586" y1="17.7842" x2="25.3586" y2="26.6656" stroke="url(#paint6_linear_878_18662)"/>
<line x1="26.821" y1="17.7842" x2="26.821" y2="26.6656" stroke="url(#paint7_linear_878_18662)"/>
<path d="M36.9371 29.6047H33.2647C31.6603 29.6047 30.7078 30.569 30.7078 32.1803V35.9105C30.7078 37.5219 31.6603 38.4861 33.2647 38.4861H36.9371C38.5289 38.4861 39.4814 37.5219 39.4814 35.9105V32.1803C39.4814 30.569 38.5289 29.6047 36.9371 29.6047ZM34.3676 36.0247C34.3676 36.4307 34.0418 36.7606 33.6281 36.7606C33.2271 36.7606 32.9012 36.4307 32.9012 36.0247V32.0662C32.9012 31.6601 33.2271 31.3303 33.6281 31.3303C34.0418 31.3303 34.3676 31.6601 34.3676 32.0662V36.0247ZM37.288 36.0247C37.288 36.4307 36.9621 36.7606 36.5611 36.7606C36.16 36.7606 35.8216 36.4307 35.8216 36.0247V32.0662C35.8216 31.6601 36.16 31.3303 36.5611 31.3303C36.9621 31.3303 37.288 31.6601 37.288 32.0662V36.0247Z" fill="url(#paint8_linear_878_18662)"/>
<defs>
<linearGradient id="paint0_linear_878_18662" x1="15.5606" y1="-3.61164e-05" x2="39.2329" y2="2.72092" gradientUnits="userSpaceOnUse">
<stop stop-color="#16202B"/>
<stop offset="1" stop-color="#101419"/>
</linearGradient>
<linearGradient id="paint1_linear_878_18662" x1="16.7094" y1="2.86129" x2="40.8748" y2="57.4024" gradientUnits="userSpaceOnUse">
<stop stop-color="#20303D"/>
<stop offset="1" stop-color="#0C131B"/>
</linearGradient>
<linearGradient id="paint2_linear_878_18662" x1="20.9085" y1="5.3415" x2="37.1704" y2="45.1493" gradientUnits="userSpaceOnUse">
<stop stop-color="#0B0C10"/>
<stop offset="1" stop-color="#1D2835"/>
</linearGradient>
<radialGradient id="paint3_radial_878_18662" cx="0" cy="0" r="1" gradientUnits="userSpaceOnUse" gradientTransform="translate(26.321 14.8022) rotate(90) scale(23.6837 31.5909)">
<stop stop-color="#485661"/>
<stop offset="1" stop-color="#090A0A"/>
</radialGradient>
<linearGradient id="paint4_linear_878_18662" x1="21.624" y1="14.8022" x2="34.0927" y2="42.6025" gradientUnits="userSpaceOnUse">
<stop stop-color="#ECC271"/>
<stop offset="1" stop-color="#7F642E"/>
</linearGradient>
<linearGradient id="paint5_linear_878_18662" x1="24.3247" y1="11.0818" x2="29.617" y2="13.0995" gradientUnits="userSpaceOnUse">
<stop stop-color="#ECC271"/>
<stop offset="1" stop-color="#7F642E"/>
</linearGradient>
<linearGradient id="paint6_linear_878_18662" x1="24.8586" y1="20.4419" x2="23.4522" y2="20.512" gradientUnits="userSpaceOnUse">
<stop stop-color="#ECC271"/>
<stop offset="1" stop-color="#7F642E"/>
</linearGradient>
<linearGradient id="paint7_linear_878_18662" x1="26.321" y1="20.4419" x2="24.2732" y2="22.4479" gradientUnits="userSpaceOnUse">
<stop stop-color="#ECC271"/>
<stop offset="1" stop-color="#7F642E"/>
</linearGradient>
<linearGradient id="paint8_linear_878_18662" x1="33.3332" y1="29.6047" x2="38.009" y2="40.0298" gradientUnits="userSpaceOnUse">
<stop stop-color="#ECC271"/>
<stop offset="1" stop-color="#7F642E"/>
</linearGradient>
</defs>
</svg>
