<svg width="22" height="22" viewBox="0 0 22 22" fill="none" xmlns="http://www.w3.org/2000/svg">
<path d="M16.4536 16.4697L20.5 20.5" stroke="#546271" stroke-width="2" stroke-linecap="round" stroke-linejoin="round"/>
<path d="M3.30511 3.66775L3.63098 3.50682L3.77748 3.17422L4.09201 2.46016C5.34336 1.54187 6.88642 1 8.55856 1H10.4414C12.1344 1 13.6952 1.55548 14.9548 2.49477L15.2606 3.1764L15.4276 3.54841L15.807 3.69763L16.4262 3.94113C17.4134 5.21842 18 6.81878 18 8.55856V10.4414C18 12.1848 17.411 13.7881 16.4202 15.0667L15.596 15.4365L15.224 15.6034L15.0747 15.9829L14.8349 16.5928C13.5968 17.4789 12.0812 18 10.4414 18H8.55856C6.97712 18 5.51151 17.5154 4.2988 16.6863L3.94718 15.9743L3.78625 15.6484L3.45365 15.5019L2.64029 15.1437C1.61301 13.8527 1 12.2199 1 10.4414V8.55856C1 6.88151 1.54505 5.33431 2.46824 4.08102L3.30511 3.66775Z" stroke="#546271" stroke-width="2"/>
</svg>
