<svg width="52" height="52" viewBox="0 0 52 52" fill="none" xmlns="http://www.w3.org/2000/svg">
<path fill-rule="evenodd" clip-rule="evenodd" d="M0 23.4234C0 17.9833 1.85456 12.9764 4.96593 9.00031L7.83373 7.58411L8.97996 4.98188C12.9593 1.86089 17.974 0 23.4234 0H28.5766C34.0829 0 39.1454 1.89997 43.1444 5.08008L44.2629 7.57286L46.6367 8.50636C49.9869 12.5579 52 17.7556 52 23.4234V28.5766C52 34.2294 49.9976 39.4145 46.6634 43.4612L43.8041 44.7443L42.8614 47.1414C38.9078 50.1881 33.9538 52 28.5766 52H23.4234C18.2615 52 13.4895 50.3302 9.61821 47.5014L8.34887 44.931L5.52508 43.6872C2.07801 39.6083 0 34.3351 0 28.5766V23.4234Z" fill="url(#paint0_linear_878_18648)"/>
<ellipse cx="26" cy="26" rx="23.1386" ry="23.1386" fill="url(#paint1_linear_878_18648)"/>
<ellipse cx="26.0001" cy="26.0001" rx="19.9471" ry="19.9471" fill="url(#paint2_linear_878_18648)"/>
<path d="M37.5193 26.6444C37.5193 32.9141 32.5 37.9862 26.321 37.9862C20.1422 37.9862 15.1228 32.9141 15.1228 26.6444C15.1228 20.3747 20.1422 15.3025 26.321 15.3025C32.5 15.3025 37.5193 20.3746 37.5193 26.6444Z" fill="url(#paint3_radial_878_18648)" stroke="url(#paint4_linear_878_18648)"/>
<path fill-rule="evenodd" clip-rule="evenodd" d="M24.0022 12.0215C24.0022 12.839 24.6569 13.5017 25.4644 13.5017L27.5324 13.5017C28.34 13.5017 28.9947 12.839 28.9947 12.0215C28.9947 11.204 28.34 10.5413 27.5324 10.5412L25.4645 10.5413C24.6569 10.5412 24.0021 11.204 24.0022 12.0215Z" fill="url(#paint5_linear_878_18648)"/>
<line x1="22.4341" y1="20.7234" x2="22.4341" y2="31.085" stroke="url(#paint6_linear_878_18648)"/>
<line x1="23.8965" y1="20.7234" x2="23.8965" y2="31.085" stroke="url(#paint7_linear_878_18648)"/>
<line x1="28.2832" y1="20.7234" x2="28.2832" y2="31.085" stroke="url(#paint8_linear_878_18648)"/>
<line x1="29.7456" y1="20.7234" x2="29.7456" y2="31.085" stroke="url(#paint9_linear_878_18648)"/>
<defs>
<linearGradient id="paint0_linear_878_18648" x1="15.5606" y1="-3.61164e-05" x2="39.2329" y2="2.72092" gradientUnits="userSpaceOnUse">
<stop stop-color="#16202B"/>
<stop offset="1" stop-color="#101419"/>
</linearGradient>
<linearGradient id="paint1_linear_878_18648" x1="16.7094" y1="2.86129" x2="40.8748" y2="57.4024" gradientUnits="userSpaceOnUse">
<stop stop-color="#20303D"/>
<stop offset="1" stop-color="#0C131B"/>
</linearGradient>
<linearGradient id="paint2_linear_878_18648" x1="20.9085" y1="5.3415" x2="37.1704" y2="45.1493" gradientUnits="userSpaceOnUse">
<stop stop-color="#0B0C10"/>
<stop offset="1" stop-color="#1D2835"/>
</linearGradient>
<radialGradient id="paint3_radial_878_18648" cx="0" cy="0" r="1" gradientUnits="userSpaceOnUse" gradientTransform="translate(26.321 14.8025) rotate(90) scale(23.6837 31.5909)">
<stop stop-color="#485661"/>
<stop offset="1" stop-color="#090A0A"/>
</radialGradient>
<linearGradient id="paint4_linear_878_18648" x1="21.624" y1="14.8025" x2="34.0927" y2="42.6027" gradientUnits="userSpaceOnUse">
<stop stop-color="#ECC271"/>
<stop offset="1" stop-color="#7F642E"/>
</linearGradient>
<linearGradient id="paint5_linear_878_18648" x1="24.3247" y1="11.0818" x2="29.617" y2="13.0995" gradientUnits="userSpaceOnUse">
<stop stop-color="#ECC271"/>
<stop offset="1" stop-color="#7F642E"/>
</linearGradient>
<linearGradient id="paint6_linear_878_18648" x1="21.9341" y1="23.824" x2="20.5267" y2="23.8842" gradientUnits="userSpaceOnUse">
<stop stop-color="#ECC271"/>
<stop offset="1" stop-color="#7F642E"/>
</linearGradient>
<linearGradient id="paint7_linear_878_18648" x1="23.3965" y1="23.824" x2="21.0429" y2="25.8002" gradientUnits="userSpaceOnUse">
<stop stop-color="#ECC271"/>
<stop offset="1" stop-color="#7F642E"/>
</linearGradient>
<linearGradient id="paint8_linear_878_18648" x1="27.7832" y1="23.824" x2="26.3758" y2="23.8842" gradientUnits="userSpaceOnUse">
<stop stop-color="#ECC271"/>
<stop offset="1" stop-color="#7F642E"/>
</linearGradient>
<linearGradient id="paint9_linear_878_18648" x1="29.2456" y1="23.824" x2="26.892" y2="25.8002" gradientUnits="userSpaceOnUse">
<stop stop-color="#ECC271"/>
<stop offset="1" stop-color="#7F642E"/>
</linearGradient>
</defs>
</svg>
