<svg width="52" height="52" viewBox="0 0 52 52" fill="none" xmlns="http://www.w3.org/2000/svg">
<path d="M5.62158 0L26.3087 6.99338L46.9959 0V42.8345L26.3087 49.3908L5.62158 42.8345V0Z" fill="#1A2632"/>
<path d="M46.996 42.8345V0L26.3088 6.99338V49.3908L46.996 42.8345Z" fill="#13181D"/>
<path d="M46.996 42.8345L49.8068 12.2354L26.3088 29.9346V49.3908L46.996 42.8345Z" fill="#151C23"/>
<path d="M5.6217 42.8345L2.81089 12.2354L26.3088 29.9346V49.3908L5.6217 42.8345Z" fill="#24303D"/>
<path d="M21.5089 17.1382C22.0151 17.1382 22.4255 16.6917 22.4255 16.1408C22.4255 15.5899 22.0151 15.1433 21.5089 15.1433C21.0027 15.1433 20.5923 15.5899 20.5923 16.1408C20.5923 16.6917 21.0027 17.1382 21.5089 17.1382Z" fill="url(#paint0_linear_878_18747)"/>
<path d="M32.2022 17.1382C32.7084 17.1382 33.1188 16.6917 33.1188 16.1408C33.1188 15.5899 32.7084 15.1433 32.2022 15.1433C31.696 15.1433 31.2856 15.5899 31.2856 16.1408C31.2856 16.6917 31.696 17.1382 32.2022 17.1382Z" fill="url(#paint1_linear_878_18747)"/>
<path d="M26.7027 13.148C27.2089 13.148 27.6193 12.7014 27.6193 12.1505C27.6193 11.5997 27.2089 11.1531 26.7027 11.1531C26.1965 11.1531 25.7861 11.5997 25.7861 12.1505C25.7861 12.7014 26.1965 13.148 26.7027 13.148Z" fill="url(#paint2_linear_878_18747)"/>
<g clip-path="url(#clip0_878_18747)">
<path d="M42.8614 35.8324C41.4042 34.2677 39.2867 33.3267 36.5518 33.0221C38.6133 30.8918 39.7465 28.2766 39.6914 25.7033C39.6855 25.4255 39.461 25.2022 39.1833 25.1977C36.6153 25.1558 33.4511 26.2386 30.8739 28.0022C30.8741 27.974 30.8749 27.9457 30.8749 27.9174C30.8749 24.3245 29.4049 20.969 26.8417 18.7112C26.6465 18.5393 26.3539 18.5393 26.1586 18.7112C23.5955 20.969 22.1253 24.3245 22.1253 27.9174C22.1253 27.9424 22.1261 27.9674 22.1262 27.9925C19.5883 26.234 16.4282 25.156 13.817 25.1976C13.5392 25.2021 13.3147 25.4255 13.3089 25.7032C13.2537 28.2766 14.387 30.8917 16.4484 33.0219C13.7134 33.3265 11.5958 34.2677 10.1386 35.8325C9.9538 36.0309 9.9538 36.3384 10.1386 36.5368C12.1932 38.7429 15.2439 40.0083 18.5084 40.0083C19.6191 40.0083 20.6472 39.9213 21.5921 39.7496C21.5802 39.8477 21.5742 39.9455 21.5742 40.0427C21.5742 41.7854 23.3095 43.3702 26.335 44.3904C26.3886 44.4084 26.4444 44.4175 26.5001 44.4175C26.5559 44.4175 26.6117 44.4084 26.6652 44.3904C29.6907 43.3702 31.426 41.7855 31.426 40.0427C31.426 39.9456 31.4196 39.8477 31.4076 39.7494C32.3525 39.9212 33.3808 40.0082 34.4916 40.0082C37.7562 40.0082 40.8069 38.7429 42.8614 36.5366C43.0462 36.3383 43.0462 36.0308 42.8614 35.8324ZM30.7951 29.3353C33.1089 27.5593 36.1792 26.3568 38.6514 26.2394C38.5363 28.6461 37.2626 31.0734 35.0992 32.981C35.961 31.7434 36.4157 30.3692 36.385 29.0091C36.3787 28.7314 36.154 28.5083 35.8763 28.5041C34.0721 28.476 32.4779 28.698 30.7377 29.7879C30.7597 29.6374 30.7784 29.4864 30.7951 29.3353ZM30.8057 30.9863C32.3674 29.8657 33.737 29.5645 35.3365 29.5374C35.2032 31.1408 34.2736 32.751 32.7294 34.0229C31.5412 35.0016 30.1038 35.6846 28.6046 36.0081C30.0672 34.8168 30.8749 33.3403 30.8749 31.7754C30.8749 31.5095 30.8515 31.2462 30.8057 30.9863ZM26.5001 19.8015C28.6293 21.8544 29.8415 24.785 29.8415 27.9175C29.8415 28.2035 29.8308 28.4905 29.8098 28.7772C29.1025 27.8413 28.0594 27.0112 26.7295 26.3522C26.5849 26.2806 26.4152 26.2806 26.2707 26.3522C24.9409 27.0112 23.8978 27.8413 23.1904 28.7772C23.1694 28.4905 23.1587 28.2035 23.1587 27.9175C23.1587 24.7849 24.371 21.8544 26.5001 19.8015ZM26.5001 27.3952C28.6276 28.5147 29.8415 30.101 29.8415 31.7755C29.8415 33.45 28.6276 35.0362 26.5001 36.1558C24.3726 35.0362 23.1587 33.45 23.1587 31.7755C23.1587 30.1009 24.3726 28.5147 26.5001 27.3952ZM24.3966 36.0089C22.8972 35.6856 21.4591 35.0016 20.2708 34.0228C18.7262 32.7508 17.7966 31.1399 17.6637 29.5362C19.3503 29.5573 20.6458 29.8473 22.1949 30.9843C22.1488 31.2448 22.1253 31.5088 22.1253 31.7754C22.1253 33.3407 22.9335 34.8175 24.3966 36.0089ZM14.3488 26.2382C16.8883 26.347 19.8998 27.527 22.2049 29.3335C22.2213 29.4814 22.2396 29.6291 22.261 29.7765C20.5611 28.6871 19.0481 28.4746 17.1239 28.5042C16.8462 28.5085 16.6216 28.7315 16.6152 29.0092C16.5845 30.3694 17.0392 31.7436 17.9011 32.9812C15.7372 31.0731 14.4633 28.6454 14.3488 26.2382ZM18.5084 38.975C15.7113 38.9749 13.0939 37.965 11.2451 36.1883C12.6802 34.8647 14.7692 34.1223 17.4706 33.974C19.6705 35.8212 22.4182 36.9623 25.1969 37.2048C23.6 38.38 21.3576 38.975 18.5084 38.975ZM26.5001 43.3544C24.0589 42.4994 22.6076 41.2678 22.6076 40.0428C22.6076 39.8647 22.6414 39.6843 22.7104 39.4957C24.2334 39.0754 25.5004 38.3977 26.5 37.4656C27.4994 38.3974 28.766 39.0751 30.2885 39.4953C30.358 39.6851 30.3926 39.8655 30.3926 40.0428C30.3926 41.2678 28.9414 42.4994 26.5001 43.3544ZM34.4916 38.9747C31.6424 38.9747 29.4001 38.3797 27.8033 37.2048C30.5819 36.9621 33.33 35.821 35.5297 33.9738C38.2309 34.1222 40.3199 34.8646 41.7549 36.1882C39.9062 37.9649 37.2887 38.9747 34.4916 38.9747Z" fill="url(#paint3_linear_878_18747)"/>
</g>
<defs>
<linearGradient id="paint0_linear_878_18747" x1="21.1408" y1="15.1433" x2="22.2412" y2="17.4255" gradientUnits="userSpaceOnUse">
<stop stop-color="#ECC271"/>
<stop offset="1" stop-color="#7F642E"/>
</linearGradient>
<linearGradient id="paint1_linear_878_18747" x1="31.8342" y1="15.1433" x2="32.9346" y2="17.4255" gradientUnits="userSpaceOnUse">
<stop stop-color="#ECC271"/>
<stop offset="1" stop-color="#7F642E"/>
</linearGradient>
<linearGradient id="paint2_linear_878_18747" x1="26.3347" y1="11.1531" x2="27.4351" y2="13.4352" gradientUnits="userSpaceOnUse">
<stop stop-color="#ECC271"/>
<stop offset="1" stop-color="#7F642E"/>
</linearGradient>
<linearGradient id="paint3_linear_878_18747" x1="19.875" y1="18.5823" x2="31.1531" y2="51.0962" gradientUnits="userSpaceOnUse">
<stop stop-color="#ECC271"/>
<stop offset="1" stop-color="#7F642E"/>
</linearGradient>
<clipPath id="clip0_878_18747">
<rect width="33" height="33" fill="white" transform="translate(10 15)"/>
</clipPath>
</defs>
</svg>
