<svg width="94" height="94" viewBox="0 0 94 94" fill="none" xmlns="http://www.w3.org/2000/svg">
<path d="M14.3623 14.1386L14.5252 14.0581L14.5985 13.8918L16.6169 9.30943C23.6994 3.7886 32.6061 0.5 42.2823 0.5H51.5843C61.3633 0.5 70.3564 3.85886 77.4748 9.48619L79.444 13.8747L79.5275 14.0607L79.7172 14.1353L83.8816 15.773C89.8087 22.9857 93.3665 32.2178 93.3665 42.2823V51.5843C93.3665 61.6261 89.8247 70.8394 83.9216 78.0449L78.8673 80.3129L78.6813 80.3963L78.6067 80.5861L76.9557 84.7842C69.9215 90.168 61.1271 93.3665 51.5843 93.3665H42.2822C33.1177 93.3665 24.6437 90.4166 17.7559 85.4143L15.5191 80.8847L15.4386 80.7217L15.2723 80.6485L10.2811 78.45C4.17655 71.1862 0.5 61.8152 0.5 51.5843V42.2822C0.5 32.6186 3.7801 23.7224 9.288 16.6444L14.3623 14.1386Z" fill="url(#paint0_linear_932_6827)" stroke="#ECC271"/>
<defs>
<linearGradient id="paint0_linear_932_6827" x1="46.9333" y1="-3.49116e-06" x2="46.9333" y2="93.8665" gradientUnits="userSpaceOnUse">
<stop stop-color="#ECC271"/>
<stop offset="1" stop-color="#35270A"/>
</linearGradient>
</defs>
</svg>
