<svg width="33" height="31" viewBox="0 0 33 31" fill="#2C353C" xmlns="http://www.w3.org/2000/svg">
<path d="M0 13.3357L0.0689792 13.6855L0.217827 14.06L0.521978 14.0412C2.20329 11.8385 3.18984 10.6357 3.48163 10.4328C3.71349 10.2729 3.94889 10.222 4.1878 10.28C4.57992 10.3777 5.6714 11.1728 7.46224 12.6653C10.5204 15.2244 13.2051 17.5291 15.5164 19.5796C18.5533 22.2737 21.7872 24.7155 22.0822 25.0926C22.2374 25.3073 22.2562 25.5067 22.1386 25.691C22.0681 25.8016 21.9169 25.9368 21.685 26.0967L16.1004 29.4271L16.0719 29.777C16.7659 30.5465 16.1398 30.3303 16.5458 30.9406L16.8731 31C20.94 27.3733 22.509 27.6723 25.4999 25.5539L25.5724 24.8678C24.0298 23.7495 21.9873 22.1299 19.4449 20.0091C16.9103 17.8761 13.8758 15.2418 10.3415 12.1063C7.92648 9.96392 6.47455 8.55079 5.98567 7.86696C5.76322 7.55417 5.67199 7.25197 5.71197 6.96035C5.76284 6.52445 6.42895 5.16244 7.71031 2.87431L7.66485 2.48764L7.516 2.11316L7.18833 2.16881L5.77689 4.49547C4.34459 6.84211 5.32969 5.24945 4.81231 6.06035C3.36991 8.32106 1.76581 10.7462 0 13.3357Z" fill="#2C353C"/>
<path d="M0.0783255 18.6523L0.147305 18.2831L0.296152 17.8878L0.600303 17.9076C2.28162 20.2327 3.26817 21.5024 3.55996 21.7166C3.79182 21.8854 4.02721 21.9391 4.26613 21.8779C4.65825 21.7747 5.74973 20.9354 7.54057 19.3599C10.5987 16.6587 13.2834 14.2258 15.5948 12.0613C18.6316 9.21747 21.8655 6.63999 22.1605 6.24187C22.3157 6.01529 22.3345 5.80472 22.2169 5.61018C22.1464 5.49345 21.9952 5.35071 21.7633 5.18193L16.1788 1.66648L16.1503 1.2971C16.8442 0.484805 16.2182 0.713049 16.6241 0.06885L16.9514 0.00609752C21.0183 3.83436 22.5873 3.51883 25.5782 5.75494L25.6507 6.47914C24.1081 7.65967 22.0656 9.36927 19.5232 11.6079C16.9886 13.8596 13.9542 16.6403 10.4198 19.95C8.00481 22.2115 6.55288 23.7032 6.06399 24.4251C5.84155 24.7552 5.75031 25.0742 5.7903 25.3821C5.84117 25.8422 6.50728 27.2799 7.78863 29.6952L7.74317 30.1034L7.59433 30.4987L7.26666 30.4399L5.85522 27.984C4.42292 25.5069 5.40802 27.1881 4.89064 26.3321C3.44824 23.9457 1.84413 21.3858 0.0783255 18.6523Z" fill="#2C353C"/>
<path d="M33 13.33L32.931 13.6798L32.7822 14.0542L32.478 14.0355C30.7967 11.8328 29.8102 10.63 29.5184 10.427C29.2865 10.2671 29.0511 10.2162 28.8122 10.2742C28.4201 10.372 27.3286 11.1671 25.5378 12.6596C22.4796 15.2186 19.7949 17.5234 17.4836 19.5739C14.4467 22.268 11.2128 24.7097 10.9178 25.0869C10.7626 25.3015 10.7438 25.501 10.8614 25.6853C10.9319 25.7959 11.0831 25.9311 11.315 26.091L16.8996 29.4213L16.9281 29.7712C16.2341 30.5408 16.8602 30.3245 16.4542 30.9348L16.1269 30.9943C12.06 27.3676 10.491 27.6665 7.5001 25.5482L7.42758 24.8621C8.97019 23.7437 11.0127 22.1242 13.5551 20.0034C16.0897 17.8703 19.1242 15.2361 22.6585 12.1006C25.0735 9.95819 26.5254 8.54506 27.0143 7.86123C27.2368 7.54844 27.328 7.24624 27.288 6.95461C27.2372 6.51872 26.571 5.15671 25.2897 2.86857L25.3352 2.48191L25.484 2.10743L25.8117 2.16308L27.2231 4.48974C28.6554 6.83638 27.6703 5.24371 28.1877 6.05462C29.6301 8.31533 31.2342 10.7404 33 13.33Z" fill="#2C353C"/>
<path d="M32.897 18.6462L32.828 18.277L32.6791 17.8817L32.375 17.9015C30.6937 20.2266 29.7071 21.4963 29.4153 21.7105C29.1835 21.8793 28.9481 21.9331 28.7092 21.8718C28.3171 21.7686 27.2256 20.9293 25.4347 19.3538C22.3766 16.6526 19.6919 14.2197 17.3805 12.0552C14.3437 9.21138 11.1098 6.63389 10.8148 6.23577C10.6596 6.00919 10.6408 5.79862 10.7584 5.60408C10.8289 5.48736 10.9801 5.34461 11.212 5.17584L16.7965 1.66038L16.825 1.291C16.1311 0.478708 16.7571 0.706951 16.3512 0.0627524L16.0239 0C11.957 3.82826 10.388 3.51273 7.39707 5.74884L7.32455 6.47304C8.86716 7.65357 10.9097 9.36317 13.4521 11.6018C15.9867 13.8535 19.0211 16.6342 22.5555 19.9439C24.9705 22.2054 26.4224 23.6971 26.9113 24.419C27.1338 24.7491 27.225 25.0681 27.185 25.376C27.1341 25.8361 26.468 27.2738 25.1867 29.6891L25.2321 30.0973L25.381 30.4926L25.7086 30.4339L27.1201 27.9779C28.5524 25.5008 27.5673 27.182 28.0847 26.326C29.5271 23.9396 31.1312 21.3797 32.897 18.6462Z" fill="#2C353C"/>
</svg>
