<svg width="52" height="52" viewBox="0 0 52 52" fill="none" xmlns="http://www.w3.org/2000/svg">
<path fill-rule="evenodd" clip-rule="evenodd" d="M0 23.4234C0 17.9833 1.85456 12.9764 4.96593 9.00031L7.83373 7.58411L8.97996 4.98188C12.9593 1.86089 17.974 0 23.4234 0H28.5766C34.0829 0 39.1454 1.89997 43.1444 5.08008L44.2629 7.57286L46.6367 8.50636C49.9869 12.5579 52 17.7556 52 23.4234V28.5766C52 34.2294 49.9976 39.4145 46.6634 43.4612L43.8041 44.7443L42.8614 47.1414C38.9078 50.1881 33.9538 52 28.5766 52H23.4234C18.2615 52 13.4895 50.3302 9.61821 47.5014L8.34887 44.931L5.52508 43.6872C2.07801 39.6083 0 34.3351 0 28.5766V23.4234Z" fill="url(#paint0_linear_878_18696)"/>
<circle cx="26" cy="25.9997" r="23.1386" fill="url(#paint1_linear_878_18696)"/>
<ellipse cx="26.0001" cy="25.9998" rx="19.9471" ry="19.9471" fill="url(#paint2_linear_878_18696)"/>
<path d="M15.1228 26.6654C15.1228 20.3956 20.1422 15.3235 26.321 15.3235C32.4999 15.3235 37.5193 20.3956 37.5193 26.6654C37.5193 32.935 32.4999 38.0072 26.321 38.0072C20.1422 38.0072 15.1228 32.935 15.1228 26.6654Z" fill="url(#paint3_radial_878_18696)" stroke="url(#paint4_linear_878_18696)"/>
<line x1="25.3586" y1="17.7842" x2="25.3586" y2="26.6656" stroke="url(#paint5_linear_878_18696)"/>
<line x1="26.821" y1="17.7842" x2="26.821" y2="26.6656" stroke="url(#paint6_linear_878_18696)"/>
<path fill-rule="evenodd" clip-rule="evenodd" d="M34.0606 15.2571C33.4896 15.8353 33.4896 16.7728 34.0606 17.351L35.5229 18.8315C36.0939 19.4097 37.0199 19.4097 37.5909 18.8315C38.1619 18.2533 38.1619 17.3159 37.5909 16.7377L36.1286 15.2571C35.5576 14.6789 34.6316 14.6789 34.0606 15.2571Z" fill="url(#paint7_linear_878_18696)"/>
<defs>
<linearGradient id="paint0_linear_878_18696" x1="15.5606" y1="-3.61164e-05" x2="39.2329" y2="2.72092" gradientUnits="userSpaceOnUse">
<stop stop-color="#16202B"/>
<stop offset="1" stop-color="#101419"/>
</linearGradient>
<linearGradient id="paint1_linear_878_18696" x1="16.7094" y1="2.86104" x2="40.8748" y2="57.4021" gradientUnits="userSpaceOnUse">
<stop stop-color="#20303D"/>
<stop offset="1" stop-color="#0C131B"/>
</linearGradient>
<linearGradient id="paint2_linear_878_18696" x1="20.9085" y1="5.34125" x2="37.1704" y2="45.149" gradientUnits="userSpaceOnUse">
<stop stop-color="#0B0C10"/>
<stop offset="1" stop-color="#1D2835"/>
</linearGradient>
<radialGradient id="paint3_radial_878_18696" cx="0" cy="0" r="1" gradientUnits="userSpaceOnUse" gradientTransform="translate(26.321 14.8235) rotate(90) scale(23.6837 31.5909)">
<stop stop-color="#485661"/>
<stop offset="1" stop-color="#090A0A"/>
</radialGradient>
<linearGradient id="paint4_linear_878_18696" x1="21.624" y1="14.8235" x2="34.0927" y2="42.6237" gradientUnits="userSpaceOnUse">
<stop stop-color="#ECC271"/>
<stop offset="1" stop-color="#7F642E"/>
</linearGradient>
<linearGradient id="paint5_linear_878_18696" x1="24.8586" y1="20.4419" x2="23.4522" y2="20.512" gradientUnits="userSpaceOnUse">
<stop stop-color="#ECC271"/>
<stop offset="1" stop-color="#7F642E"/>
</linearGradient>
<linearGradient id="paint6_linear_878_18696" x1="26.321" y1="20.4419" x2="24.2732" y2="22.4479" gradientUnits="userSpaceOnUse">
<stop stop-color="#ECC271"/>
<stop offset="1" stop-color="#7F642E"/>
</linearGradient>
<linearGradient id="paint7_linear_878_18696" x1="34.9451" y1="14.8235" x2="37.2838" y2="20.0368" gradientUnits="userSpaceOnUse">
<stop stop-color="#ECC271"/>
<stop offset="1" stop-color="#7F642E"/>
</linearGradient>
</defs>
</svg>
