<svg width="53" height="52" viewBox="0 0 53 52" fill="none" xmlns="http://www.w3.org/2000/svg">
<path fill-rule="evenodd" clip-rule="evenodd" d="M0.330017 23.4554C0.330017 18.0835 2.1837 13.1393 5.29362 9.21314L8.16007 7.8147L9.30576 5.24509C13.2832 2.16324 18.2956 0.325684 23.7425 0.325684H28.8932C34.3969 0.325684 39.4571 2.20183 43.4541 5.34207L44.5722 7.80359L46.9448 8.72538C50.2934 12.7261 52.3056 17.8586 52.3056 23.4554V28.5439C52.3056 34.1258 50.3041 39.2459 46.9715 43.242L44.1136 44.5089L43.1713 46.876C39.2196 49.8844 34.2679 51.6736 28.8932 51.6736H23.7424C18.5829 51.6736 13.8132 50.0248 9.94371 47.2314L8.67496 44.6933L5.8525 43.465C2.40706 39.4373 0.330017 34.2303 0.330017 28.5439V23.4554Z" fill="url(#paint0_linear_1313_4796)"/>
<ellipse cx="26.3178" cy="25.9999" rx="23.1278" ry="22.8485" fill="url(#paint1_linear_1313_4796)"/>
<ellipse cx="25.9615" cy="25.9291" rx="20.4623" ry="20.1669" fill="url(#paint2_linear_1313_4796)"/>
<mask id="path-4-inside-1_1313_4796" fill="white">
<path fill-rule="evenodd" clip-rule="evenodd" d="M14.2688 25.9262C14.2688 19.5631 19.5038 14.4048 25.9615 14.4048C32.4192 14.4048 37.6543 19.5631 37.6543 25.9262C37.6543 26.4188 37.6229 26.9041 37.562 27.3804C37.4711 27.373 37.3792 27.3692 37.2864 27.3692C35.6425 27.3692 34.8201 28.1768 33.9986 29.7904C33.1763 28.1768 32.3548 27.3692 30.7109 27.3692C28.8954 27.3692 27.4231 28.8151 27.4231 30.598C27.4231 31.8999 27.9586 32.9762 28.8125 34.0087C29.4363 34.7631 30.2306 35.4941 31.1114 36.2728C29.5576 37.0251 27.8096 37.4476 25.9615 37.4476C19.5038 37.4476 14.2688 32.2893 14.2688 25.9262Z"/>
</mask>
<path fill-rule="evenodd" clip-rule="evenodd" d="M14.2688 25.9262C14.2688 19.5631 19.5038 14.4048 25.9615 14.4048C32.4192 14.4048 37.6543 19.5631 37.6543 25.9262C37.6543 26.4188 37.6229 26.9041 37.562 27.3804C37.4711 27.373 37.3792 27.3692 37.2864 27.3692C35.6425 27.3692 34.8201 28.1768 33.9986 29.7904C33.1763 28.1768 32.3548 27.3692 30.7109 27.3692C28.8954 27.3692 27.4231 28.8151 27.4231 30.598C27.4231 31.8999 27.9586 32.9762 28.8125 34.0087C29.4363 34.7631 30.2306 35.4941 31.1114 36.2728C29.5576 37.0251 27.8096 37.4476 25.9615 37.4476C19.5038 37.4476 14.2688 32.2893 14.2688 25.9262Z" fill="url(#paint3_radial_1313_4796)"/>
<path d="M37.562 27.3804L37.481 28.3771L38.4329 28.4544L38.554 27.5072L37.562 27.3804ZM33.9986 29.7904L33.1077 30.2445L33.9991 31.9935L34.8898 30.2441L33.9986 29.7904ZM28.8125 34.0087L29.5832 33.3715L29.5831 33.3714L28.8125 34.0087ZM31.1114 36.2728L31.5472 37.1729L32.899 36.5184L31.7737 35.5236L31.1114 36.2728ZM25.9615 13.4048C18.9655 13.4048 13.2688 18.997 13.2688 25.9262H15.2688C15.2688 20.1292 20.0421 15.4048 25.9615 15.4048V13.4048ZM38.6543 25.9262C38.6543 18.9969 32.9575 13.4048 25.9615 13.4048V15.4048C31.8809 15.4048 36.6543 20.1293 36.6543 25.9262H38.6543ZM38.554 27.5072C38.6202 26.9889 38.6543 26.4613 38.6543 25.9262H36.6543C36.6543 26.3763 36.6256 26.8192 36.5701 27.2536L38.554 27.5072ZM37.2864 28.3692C37.3521 28.3692 37.417 28.3719 37.481 28.3771L37.643 26.3837C37.5252 26.3741 37.4063 26.3692 37.2864 26.3692V28.3692ZM34.8898 30.2441C35.2792 29.4792 35.6102 29.0295 35.9519 28.7611C36.2592 28.5196 36.6467 28.3692 37.2864 28.3692V26.3692C36.2821 26.3692 35.4365 26.6226 34.7164 27.1883C34.0305 27.7271 33.5396 28.488 33.1075 29.3367L34.8898 30.2441ZM30.7109 28.3692C31.3505 28.3692 31.7377 28.5196 32.045 28.761C32.3866 29.0294 32.7177 29.4793 33.1077 30.2445L34.8896 29.3363C34.4572 28.4879 33.9663 27.7271 33.2806 27.1884C32.5606 26.6226 31.7152 26.3692 30.7109 26.3692V28.3692ZM28.4231 30.598C28.4231 29.3843 29.4305 28.3692 30.7109 28.3692V26.3692C28.3602 26.3692 26.4231 28.2458 26.4231 30.598H28.4231ZM29.5831 33.3714C28.8191 32.4476 28.4231 31.5897 28.4231 30.598H26.4231C26.4231 32.2102 27.0981 33.5048 28.0419 34.646L29.5831 33.3714ZM31.7737 35.5236C30.8924 34.7444 30.1518 34.0592 29.5832 33.3715L28.0418 34.6459C28.7208 35.467 29.5687 36.2438 30.4491 37.022L31.7737 35.5236ZM25.9615 38.4476C27.9634 38.4476 29.8601 37.9897 31.5472 37.1729L30.6756 35.3728C29.2551 36.0606 27.6558 36.4476 25.9615 36.4476V38.4476ZM13.2688 25.9262C13.2688 32.8554 18.9655 38.4476 25.9615 38.4476V36.4476C20.0421 36.4476 15.2688 31.7231 15.2688 25.9262H13.2688Z" fill="url(#paint4_linear_1313_4796)" mask="url(#path-4-inside-1_1313_4796)"/>
<path d="M39.1158 31.2316C39.1158 32.2081 38.6994 33.0153 38.0346 33.7891C37.4149 34.511 36.5794 35.2043 35.6641 35.9805C35.1274 36.4354 34.5629 36.9189 33.999 37.453C33.4351 36.9189 32.8712 36.4354 32.3345 35.9805C31.4193 35.2049 30.5844 34.5116 29.9653 33.7897C29.3012 33.0153 28.8847 32.2081 28.8847 31.2316C28.8847 29.8945 30.0298 28.8101 31.4418 28.8101C32.7204 28.8101 33.3594 29.4157 33.999 30.6259C34.6379 29.4157 35.2776 28.8101 36.5561 28.8101C37.9708 28.8101 39.1158 29.8945 39.1158 31.2316Z" fill="url(#paint5_linear_1313_4796)"/>
<line x1="24.9999" y1="17.2852" x2="24.9999" y2="25.9262" stroke="url(#paint6_linear_1313_4796)"/>
<line x1="26.4615" y1="17.2852" x2="26.4615" y2="25.9262" stroke="url(#paint7_linear_1313_4796)"/>
<path fill-rule="evenodd" clip-rule="evenodd" d="M33.6975 14.8267C33.1268 15.3892 33.1268 16.3013 33.6975 16.8639L35.1592 18.3044C35.7299 18.8669 36.6554 18.8669 37.2262 18.3044C37.7969 17.7418 37.7969 16.8297 37.2262 16.2672L35.7646 14.8267C35.1938 14.2641 34.2683 14.2641 33.6975 14.8267Z" fill="url(#paint8_linear_1313_4796)"/>
<defs>
<linearGradient id="paint0_linear_1313_4796" x1="15.9502" y1="2.36347" x2="37.049" y2="50.6138" gradientUnits="userSpaceOnUse">
<stop stop-color="#1A232E"/>
<stop offset="1" stop-color="#0B131C"/>
</linearGradient>
<linearGradient id="paint1_linear_1313_4796" x1="17.0317" y1="3.15132" x2="40.6991" y2="57.2215" gradientUnits="userSpaceOnUse">
<stop stop-color="#324655"/>
<stop offset="1" stop-color="#090C10"/>
</linearGradient>
<linearGradient id="paint2_linear_1313_4796" x1="20.7384" y1="5.04289" x2="37.0089" y2="45.455" gradientUnits="userSpaceOnUse">
<stop stop-color="#0B0C10"/>
<stop offset="1" stop-color="#1D2835"/>
</linearGradient>
<radialGradient id="paint3_radial_1313_4796" cx="0" cy="0" r="1" gradientUnits="userSpaceOnUse" gradientTransform="translate(25.9615 14.4048) rotate(90) scale(23.0429 31.576)">
<stop stop-color="#485661"/>
<stop offset="1" stop-color="#090A0A"/>
</radialGradient>
<linearGradient id="paint4_linear_1313_4796" x1="21.2667" y1="14.4048" x2="33.18" y2="41.6927" gradientUnits="userSpaceOnUse">
<stop stop-color="#ECC271"/>
<stop offset="1" stop-color="#7F642E"/>
</linearGradient>
<linearGradient id="paint5_linear_1313_4796" x1="31.9463" y1="28.8101" x2="35.9469" y2="39.4987" gradientUnits="userSpaceOnUse">
<stop stop-color="#ECC271"/>
<stop offset="1" stop-color="#7F642E"/>
</linearGradient>
<linearGradient id="paint6_linear_1313_4796" x1="24.4999" y1="19.8709" x2="23.0937" y2="19.943" gradientUnits="userSpaceOnUse">
<stop stop-color="#ECC271"/>
<stop offset="1" stop-color="#7F642E"/>
</linearGradient>
<linearGradient id="paint7_linear_1313_4796" x1="25.9615" y1="19.8709" x2="23.9687" y2="21.8773" gradientUnits="userSpaceOnUse">
<stop stop-color="#ECC271"/>
<stop offset="1" stop-color="#7F642E"/>
</linearGradient>
<linearGradient id="paint8_linear_1313_4796" x1="34.5816" y1="14.4048" x2="36.8161" y2="19.522" gradientUnits="userSpaceOnUse">
<stop stop-color="#ECC271"/>
<stop offset="1" stop-color="#7F642E"/>
</linearGradient>
</defs>
</svg>
