<svg width="29" height="29" viewBox="0 0 29 29" fill="none" xmlns="http://www.w3.org/2000/svg">
<path d="M7.30503 6.21374L7.46797 6.13328L7.54122 5.96698L7.99615 4.93418C9.65212 3.66855 11.7209 2.91699 13.9666 2.91699H16.2417C18.5126 2.91699 20.6026 3.6855 22.2678 4.97698L22.7112 5.96516L22.7947 6.15116L22.9844 6.22577L23.9107 6.59006C25.2701 8.27778 26.0833 10.4226 26.0833 12.7586V15.0337C26.0833 17.3677 25.2715 19.5107 23.9143 21.1978L22.7601 21.7157L22.5741 21.7992L22.4995 21.9889L22.1346 22.9169C20.4918 24.147 18.4525 24.8753 16.2417 24.8753H13.9666C11.8406 24.8753 9.87341 24.2018 8.2648 23.0564L7.75939 22.0329L7.67893 21.87L7.51263 21.7967L6.37304 21.2948C4.9684 19.5932 4.125 17.4126 4.125 15.0337V12.7586C4.125 10.5128 4.87663 8.44391 6.14237 6.7879L7.30503 6.21374Z" stroke="white"/>
<path d="M20.3221 19.1133L15.1607 15.4278L9.8865 19.1131L13.8737 14.1408L9.8865 8.67771L15.2036 12.8108L20.8436 8.67796L16.4906 14.0979L20.3221 19.1133Z" fill="white"/>
</svg>
