<svg width="147" height="147" viewBox="0 0 147 147" fill="none" xmlns="http://www.w3.org/2000/svg">
<g filter="url(#filter0_d_12_195)">
<g filter="url(#filter1_d_12_195)">
<path fill-rule="evenodd" clip-rule="evenodd" d="M1 61.5555C1 48.5271 5.04758 36.444 11.9539 26.4951L22.823 21.1276L27.2196 11.1462C37.2205 4.12279 49.4065 0 62.5555 0H84.3051C97.5834 0 109.88 4.20427 119.935 11.3542L124.307 21.0963L133.671 24.779C141.328 35.0399 145.861 47.7683 145.861 61.5555V83.3051C145.861 96.952 141.42 109.562 133.904 119.768L123.029 124.648L119.396 133.886C109.441 140.805 97.3468 144.861 84.3052 144.861H62.5555C50.2233 144.861 38.7381 141.234 29.1082 134.989L24.2581 125.168L13.4256 120.396C5.6261 110.082 1 97.2336 1 83.3052V61.5555Z" fill="url(#paint0_linear_12_195)"/>
</g>
<rect x="4.21616" y="3.2168" width="138.428" height="138.428" rx="69.2142" fill="url(#paint1_linear_12_195)" stroke="url(#paint2_linear_12_195)"/>
<circle cx="73.3254" cy="71.5123" r="61.8863" fill="black" stroke="url(#paint3_angular_12_195)" stroke-width="3"/>
<circle cx="73" cy="72" r="62" fill="url(#paint4_radial_12_195)"/>
<g clip-path="url(#clip0_12_195)" filter="url(#filter2_i_12_195)">
<path d="M59.5915 72.8668C60.5844 73.1858 61.4492 73.5048 62.2573 74.001C64.3803 75.3124 65.2812 77.3935 64.7611 79.9288C64.4236 81.5758 63.5061 82.8163 62.2408 83.7732C60.6607 84.9705 58.8619 85.5453 56.9773 85.8776C55.7512 86.0925 54.5179 86.1268 53.2795 86.1257C44.732 86.1213 36.1848 86.1242 27.638 86.1346C27.1571 86.1346 27.0043 86.0349 27.0054 85.4811C27.024 77.5109 27.024 69.5408 27.0054 61.5706C27.0054 61.1032 27.0848 60.9481 27.5606 60.9492C57.0891 60.9625 86.6169 60.9666 116.144 60.9614C116.608 60.9614 117.073 60.9836 117.537 60.9725C117.789 60.9669 117.914 61.0312 117.911 61.338C117.9 62.5741 117.903 63.8101 117.911 65.0462C117.911 65.3076 117.818 65.3984 117.576 65.4028C116.889 65.4139 116.204 65.4682 115.518 65.4682C102.602 65.4726 89.6873 65.4744 76.7722 65.4737C75.9166 65.4737 76.0425 65.3796 76.0425 66.2756C76.0384 72.7143 76.0401 79.1531 76.0477 85.5919C76.0477 85.995 76.0002 86.1457 75.5554 86.1401C73.87 86.0991 72.1847 86.1036 70.4983 86.1401C69.9936 86.1501 69.8305 86.0294 69.8326 85.4479C69.8553 79.0239 69.8471 72.6077 69.8471 66.187C69.8471 65.4815 69.8471 65.477 69.1711 65.477C57.374 65.477 45.5765 65.4737 33.7788 65.4671C33.3381 65.4671 33.1956 65.5678 33.1977 66.0718C33.2163 71.1091 33.2184 76.146 33.2039 81.1826C33.2039 81.5591 33.2215 81.7851 33.6859 81.7829C39.9628 81.7596 46.2398 81.7829 52.5157 81.7364C54.1154 81.7253 55.7151 81.5082 57.1744 80.7074C58.7432 79.8479 59.123 78.0248 58.0197 76.7124C57.5831 76.194 57.0134 75.8905 56.4025 75.6712C55.3436 75.2902 54.2475 75.2227 53.1443 75.2227C48.1904 75.2227 43.2365 75.2149 38.2827 75.2348C37.7811 75.2348 37.5757 75.1352 37.618 74.5437C37.6672 73.7693 37.6672 72.9922 37.618 72.2178C37.586 71.664 37.7346 71.4967 38.2692 71.499C42.9995 71.5211 47.7291 71.5241 52.4579 71.5078C53.5045 71.5078 54.5499 71.4956 55.5851 71.2553C57.3396 70.8488 58.0496 69.9195 57.9681 68.0101C57.9536 67.6889 58.0713 67.639 58.3159 67.6401C60.1736 67.6401 62.0313 67.6556 63.889 67.6346C64.2936 67.6291 64.2967 67.8384 64.2595 68.1463C64.0717 69.6836 63.3716 70.8739 62.1593 71.7172C61.4059 72.2421 60.5586 72.539 59.5915 72.8668Z" fill="#10151B"/>
<path d="M96.6437 86.1226C92.0356 86.1226 87.4285 86.1137 82.8203 86.1348C82.3322 86.1348 82.2093 85.9775 82.2259 85.4802C82.2579 84.4479 82.2609 83.4135 82.2259 82.379C82.2073 81.8728 82.3425 81.7321 82.8214 81.7332C89.2201 81.7502 95.6158 81.7539 102.008 81.7443C104.313 81.7443 106.616 81.7554 108.923 81.7443C110.067 81.7355 111.184 81.5472 112.226 80.9845C113.45 80.32 114.012 79.1293 113.737 77.8047C113.558 76.9474 113.045 76.3792 112.348 75.9838C111.12 75.2871 109.781 75.2184 108.434 75.2173C102.964 75.2173 97.4993 75.2395 92.0314 75.2074C89.8197 75.1941 87.6452 74.8496 85.6224 73.8085C83.7306 72.836 82.2651 71.4427 81.7903 69.1278C81.5261 67.8408 81.5891 67.7589 82.8048 67.7589C84.4389 67.7589 86.0723 67.7589 87.705 67.7589C87.9115 67.7589 88.1395 67.6758 88.1519 68.0856C88.2128 70.0183 89.0808 71.0207 90.923 71.3574C91.6196 71.4707 92.3239 71.5208 93.0284 71.5069C98.4787 71.5069 103.929 71.4881 109.379 71.5191C111.463 71.5302 113.532 71.7739 115.496 72.5979C117.46 73.4219 118.998 74.7477 119.475 77.0847C120.167 80.4784 118.836 83.2285 115.809 84.7403C113.951 85.6652 111.982 86.0694 109.959 86.0916C105.521 86.1348 101.084 86.1049 96.6519 86.1049L96.6437 86.1226Z" fill="#10151B"/>
<path d="M69.253 90.2275L73.7408 84.2607H75.2706V90.2275H76.4957V91.478H75.2706V93.3633H73.9693V91.478H69.253V90.2275ZM73.9693 90.2275V85.835L70.6685 90.2275H73.9693ZM74.2105 124.126C74.5279 124.114 74.7543 124.029 74.8897 123.873C75.0251 123.712 75.0929 123.466 75.0929 123.136V122.54C75.0929 122.193 75.0167 121.939 74.8643 121.778C74.712 121.617 74.4644 121.537 74.1217 121.537H71.754C71.4112 121.537 71.1637 121.617 71.0113 121.778C70.859 121.939 70.7828 122.193 70.7828 122.54V123.136C70.7828 123.466 70.8505 123.712 70.9859 123.873C71.1256 124.029 71.352 124.114 71.6651 124.126H74.2105ZM74.2486 128.087C74.5956 128.087 74.8453 128.007 74.9976 127.846C75.15 127.685 75.2262 127.434 75.2262 127.091V126.386C75.2262 126.039 75.15 125.787 74.9976 125.631C74.8453 125.474 74.5956 125.396 74.2486 125.396H71.627C71.28 125.396 71.0304 125.474 70.878 125.631C70.7257 125.787 70.6495 126.039 70.6495 126.386V127.091C70.6495 127.434 70.7257 127.685 70.878 127.846C71.0304 128.007 71.28 128.087 71.627 128.087H74.2486ZM71.5889 129.363C70.1121 129.363 69.3736 128.627 69.3736 127.154V126.697C69.3736 126.13 69.4752 125.675 69.6783 125.333C69.8814 124.99 70.1755 124.761 70.5606 124.647C70.2179 124.486 69.9555 124.241 69.7735 123.911C69.5958 123.576 69.5069 123.153 69.5069 122.641V122.476C69.5069 120.999 70.2432 120.261 71.7159 120.261H74.1597C75.6324 120.261 76.3687 120.999 76.3687 122.476V122.641C76.3687 123.153 76.2777 123.576 76.0958 123.911C75.918 124.241 75.6578 124.486 75.315 124.647C75.7001 124.761 75.9942 124.99 76.1973 125.333C76.4005 125.675 76.502 126.13 76.502 126.697V127.154C76.502 128.627 75.7657 129.363 74.293 129.363H71.5889Z" fill="#10151B"/>
</g>
</g>
<path d="M69.3637 22.2666H67.5997V15.4206C67.5997 14.4126 67.0957 13.8666 66.1717 13.8666H65.1917V12.0886H66.1717C68.2157 12.0886 69.3637 13.3206 69.3637 15.4206V22.2666ZM80.8964 22.2666H71.1244V19.2846C71.1244 17.3106 72.2164 16.3446 74.2604 16.3446H77.9424C78.7124 16.3446 79.2304 15.8826 79.2304 15.1126C79.2304 14.3426 78.7404 13.8666 77.9424 13.8666H71.2084V12.0886H77.9424C79.9584 12.0886 81.0644 13.3066 81.0644 14.9446C81.0644 16.6246 79.8884 17.8426 77.9564 17.8426H74.2604C73.3084 17.8426 72.8044 18.2906 72.8044 19.1586V20.4886H80.8964V22.2666Z" fill="url(#paint5_linear_12_195)"/>
<path d="M69.3637 22.2666V22.7666H69.8637V22.2666H69.3637ZM67.5997 22.2666H67.0997V22.7666H67.5997V22.2666ZM65.1917 13.8666H64.6917V14.3666H65.1917V13.8666ZM65.1917 12.0886V11.5886H64.6917V12.0886H65.1917ZM69.3637 21.7666H67.5997V22.7666H69.3637V21.7666ZM68.0997 22.2666V15.4206H67.0997V22.2666H68.0997ZM68.0997 15.4206C68.0997 14.8394 67.9543 14.3121 67.6001 13.9271C67.2397 13.5353 66.7332 13.3666 66.1717 13.3666V14.3666C66.5342 14.3666 66.7416 14.4709 66.8642 14.6041C66.993 14.7441 67.0997 14.9938 67.0997 15.4206H68.0997ZM66.1717 13.3666H65.1917V14.3666H66.1717V13.3666ZM65.6917 13.8666V12.0886H64.6917V13.8666H65.6917ZM65.1917 12.5886H66.1717V11.5886H65.1917V12.5886ZM66.1717 12.5886C67.092 12.5886 67.7455 12.8634 68.1718 13.3117C68.6016 13.7636 68.8637 14.4586 68.8637 15.4206H69.8637C69.8637 14.2826 69.5517 13.3116 68.8965 12.6226C68.2378 11.9298 67.2954 11.5886 66.1717 11.5886V12.5886ZM68.8637 15.4206V22.2666H69.8637V15.4206H68.8637ZM80.8964 22.2666V22.7666H81.3964V22.2666H80.8964ZM71.1244 22.2666H70.6244V22.7666H71.1244V22.2666ZM71.2084 13.8666H70.7084V14.3666H71.2084V13.8666ZM71.2084 12.0886V11.5886H70.7084V12.0886H71.2084ZM72.8044 20.4886H72.3044V20.9886H72.8044V20.4886ZM80.8964 20.4886H81.3964V19.9886H80.8964V20.4886ZM80.8964 21.7666H71.1244V22.7666H80.8964V21.7666ZM71.6244 22.2666V19.2846H70.6244V22.2666H71.6244ZM71.6244 19.2846C71.6244 18.3882 71.8702 17.8065 72.2652 17.4416C72.6674 17.07 73.3088 16.8446 74.2604 16.8446V15.8446C73.168 15.8446 72.2414 16.1022 71.5866 16.7071C70.9246 17.3187 70.6244 18.207 70.6244 19.2846H71.6244ZM74.2604 16.8446H77.9424V15.8446H74.2604V16.8446ZM77.9424 16.8446C78.4263 16.8446 78.8801 16.6982 79.2172 16.382C79.5583 16.0621 79.7304 15.6144 79.7304 15.1126H78.7304C78.7304 15.3808 78.6435 15.5491 78.5331 15.6527C78.4187 15.76 78.2284 15.8446 77.9424 15.8446V16.8446ZM79.7304 15.1126C79.7304 14.6192 79.5708 14.1684 79.2335 13.8417C78.898 13.5168 78.4405 13.3666 77.9424 13.3666V14.3666C78.2423 14.3666 78.4288 14.4544 78.5378 14.56C78.6449 14.6638 78.7304 14.836 78.7304 15.1126H79.7304ZM77.9424 13.3666H71.2084V14.3666H77.9424V13.3666ZM71.7084 13.8666V12.0886H70.7084V13.8666H71.7084ZM71.2084 12.5886H77.9424V11.5886H71.2084V12.5886ZM77.9424 12.5886C78.8488 12.5886 79.4954 12.8605 79.9124 13.2624C80.329 13.6638 80.5644 14.2404 80.5644 14.9446H81.5644C81.5644 14.0108 81.2468 13.1594 80.6063 12.5423C79.9664 11.9257 79.052 11.5886 77.9424 11.5886V12.5886ZM80.5644 14.9446C80.5644 15.6645 80.3149 16.2534 79.8885 16.663C79.4612 17.0735 78.8159 17.3426 77.9564 17.3426V18.3426C79.0289 18.3426 79.9375 18.0027 80.5813 17.3842C81.2259 16.7648 81.5644 15.9047 81.5644 14.9446H80.5644ZM77.9564 17.3426H74.2604V18.3426H77.9564V17.3426ZM74.2604 17.3426C73.7143 17.3426 73.2109 17.4704 72.8409 17.8035C72.4616 18.1448 72.3044 18.6271 72.3044 19.1586H73.3044C73.3044 18.8221 73.3991 18.6464 73.5099 18.5467C73.6299 18.4388 73.8544 18.3426 74.2604 18.3426V17.3426ZM72.3044 19.1586V20.4886H73.3044V19.1586H72.3044ZM72.8044 20.9886H80.8964V19.9886H72.8044V20.9886ZM80.3964 20.4886V22.2666H81.3964V20.4886H80.3964Z" fill="#1C242A"/>
<path d="M120.284 104.916L119.461 104.319L120.373 103.064L118.424 101.649C117.44 100.935 117.216 100.06 117.972 99.0173L119.382 97.075L120.204 97.6719L118.799 99.6076C118.404 100.151 118.506 100.502 118.998 100.859L120.947 102.274L122.878 99.6128L123.7 100.21L121.769 102.871L122.449 103.364L121.875 104.154L121.195 103.66L120.284 104.916Z" fill="url(#paint6_linear_12_195)"/>
<path d="M120.284 104.916L120.137 105.119L120.339 105.266L120.486 105.063L120.284 104.916ZM119.461 104.319L119.259 104.173L119.112 104.375L119.315 104.522L119.461 104.319ZM120.373 103.064L120.575 103.21L120.722 103.008L120.52 102.861L120.373 103.064ZM119.382 97.075L119.529 96.8727L119.327 96.7259L119.18 96.9282L119.382 97.075ZM120.204 97.6719L120.407 97.8188L120.553 97.6164L120.351 97.4696L120.204 97.6719ZM120.947 102.274L120.8 102.476L121.002 102.623L121.149 102.421L120.947 102.274ZM122.878 99.6128L123.025 99.4105L122.823 99.2636L122.676 99.466L122.878 99.6128ZM123.7 100.21L123.903 100.357L124.049 100.154L123.847 100.007L123.7 100.21ZM121.769 102.871L121.566 102.724L121.42 102.926L121.622 103.073L121.769 102.871ZM122.449 103.364L122.651 103.511L122.798 103.309L122.595 103.162L122.449 103.364ZM121.875 104.154L121.728 104.356L121.931 104.503L122.077 104.301L121.875 104.154ZM121.195 103.66L121.342 103.458L121.14 103.311L120.993 103.513L121.195 103.66ZM120.431 104.714L119.608 104.117L119.315 104.522L120.137 105.119L120.431 104.714ZM119.664 104.466L120.575 103.21L120.171 102.917L119.259 104.173L119.664 104.466ZM120.52 102.861L118.571 101.447L118.278 101.851L120.226 103.266L120.52 102.861ZM118.571 101.447C118.108 101.11 117.859 100.762 117.791 100.409C117.724 100.06 117.822 99.6499 118.174 99.1641L117.77 98.8704C117.366 99.427 117.198 99.9757 117.3 100.504C117.401 101.027 117.757 101.473 118.278 101.851L118.571 101.447ZM118.174 99.1641L119.584 97.2219L119.18 96.9282L117.77 98.8704L118.174 99.1641ZM119.235 97.2774L120.057 97.8742L120.351 97.4696L119.529 96.8727L119.235 97.2774ZM120.002 97.525L118.597 99.4608L119.001 99.7545L120.407 97.8188L120.002 97.525ZM118.597 99.4608C118.383 99.7554 118.264 100.05 118.32 100.349C118.376 100.645 118.588 100.871 118.851 101.061L119.145 100.657C118.916 100.491 118.831 100.362 118.812 100.257C118.793 100.156 118.82 100.004 119.001 99.7545L118.597 99.4608ZM118.851 101.061L120.8 102.476L121.093 102.071L119.145 100.657L118.851 101.061ZM121.149 102.421L123.08 99.7597L122.676 99.466L120.744 102.127L121.149 102.421ZM122.731 99.8151L123.553 100.412L123.847 100.007L123.025 99.4105L122.731 99.8151ZM123.498 100.063L121.566 102.724L121.971 103.017L123.903 100.357L123.498 100.063ZM121.622 103.073L122.302 103.566L122.595 103.162L121.916 102.668L121.622 103.073ZM122.246 103.217L121.673 104.007L122.077 104.301L122.651 103.511L122.246 103.217ZM122.022 103.951L121.342 103.458L121.049 103.863L121.728 104.356L122.022 103.951ZM120.993 103.513L120.081 104.769L120.486 105.063L121.398 103.807L120.993 103.513Z" fill="#1C242A"/>
<path d="M101.304 122.858H96.9444V121.842H101.304C101.848 121.842 102.144 121.538 102.144 121.082C102.144 120.586 101.84 120.33 101.304 120.33H96.9444V117.042H102.824V118.058H97.9924V119.474H101.304C102.472 119.474 103.104 120.026 103.104 121.154C103.104 122.13 102.512 122.858 101.304 122.858Z" fill="url(#paint7_linear_12_195)"/>
<path d="M96.9444 122.858H96.6944V123.108H96.9444V122.858ZM96.9444 121.842V121.592H96.6944V121.842H96.9444ZM96.9444 120.33H96.6944V120.58H96.9444V120.33ZM96.9444 117.042V116.792H96.6944V117.042H96.9444ZM102.824 117.042H103.074V116.792H102.824V117.042ZM102.824 118.058V118.308H103.074V118.058H102.824ZM97.9924 118.058V117.808H97.7424V118.058H97.9924ZM97.9924 119.474H97.7424V119.724H97.9924V119.474ZM101.304 122.608H96.9444V123.108H101.304V122.608ZM97.1944 122.858V121.842H96.6944V122.858H97.1944ZM96.9444 122.092H101.304V121.592H96.9444V122.092ZM101.304 122.092C101.622 122.092 101.899 122.003 102.099 121.816C102.301 121.627 102.394 121.366 102.394 121.082H101.894C101.894 121.255 101.84 121.374 101.758 121.451C101.673 121.53 101.531 121.592 101.304 121.592V122.092ZM102.394 121.082C102.394 120.782 102.3 120.518 102.091 120.333C101.886 120.153 101.608 120.08 101.304 120.08V120.58C101.536 120.58 101.679 120.636 101.76 120.708C101.836 120.775 101.894 120.887 101.894 121.082H102.394ZM101.304 120.08H96.9444V120.58H101.304V120.08ZM97.1944 120.33V117.042H96.6944V120.33H97.1944ZM96.9444 117.292H102.824V116.792H96.9444V117.292ZM102.574 117.042V118.058H103.074V117.042H102.574ZM102.824 117.808H97.9924V118.308H102.824V117.808ZM97.7424 118.058V119.474H98.2424V118.058H97.7424ZM97.9924 119.724H101.304V119.224H97.9924V119.724ZM101.304 119.724C101.853 119.724 102.232 119.854 102.473 120.076C102.711 120.293 102.854 120.637 102.854 121.154H103.354C103.354 120.544 103.182 120.048 102.811 119.707C102.444 119.37 101.924 119.224 101.304 119.224V119.724ZM102.854 121.154C102.854 121.592 102.722 121.95 102.479 122.197C102.237 122.443 101.857 122.608 101.304 122.608V123.108C101.959 123.108 102.48 122.91 102.836 122.548C103.191 122.187 103.354 121.692 103.354 121.154H102.854Z" fill="#1C242A"/>
<path d="M75.5929 134.278H72.4289C69.5589 134.278 67.8089 132.57 67.8089 129.084C67.8089 125.612 69.5589 124.1 72.4289 124.1H78.2669V125.878H72.4289C70.8189 125.878 69.8529 126.62 69.6289 128.342H75.5929C77.5389 128.342 78.6869 129.224 78.6869 131.184C78.6869 133.158 77.5109 134.278 75.5929 134.278ZM75.4249 129.854H69.6149C69.7969 131.688 70.7769 132.5 72.4289 132.5H75.4249C76.4329 132.5 76.9789 131.996 76.9789 131.114C76.9789 130.274 76.4469 129.854 75.4249 129.854Z" fill="url(#paint8_linear_12_195)"/>
<path d="M78.2669 124.1H78.7669V123.6H78.2669V124.1ZM78.2669 125.878V126.378H78.7669V125.878H78.2669ZM69.6289 128.342L69.1331 128.278L69.0596 128.842H69.6289V128.342ZM69.6149 129.854V129.354H69.0628L69.1173 129.904L69.6149 129.854ZM75.5929 133.778H72.4289V134.778H75.5929V133.778ZM72.4289 133.778C71.094 133.778 70.0878 133.384 69.4101 132.649C68.7267 131.909 68.3089 130.749 68.3089 129.084H67.3089C67.3089 130.905 67.7661 132.343 68.6752 133.328C69.5899 134.319 70.8938 134.778 72.4289 134.778V133.778ZM68.3089 129.084C68.3089 127.427 68.7263 126.327 69.3996 125.64C70.0715 124.955 71.0775 124.6 72.4289 124.6V123.6C70.9103 123.6 69.6063 124.001 68.6856 124.94C67.7665 125.878 67.3089 127.27 67.3089 129.084H68.3089ZM72.4289 124.6H78.2669V123.6H72.4289V124.6ZM77.7669 124.1V125.878H78.7669V124.1H77.7669ZM78.2669 125.378H72.4289V126.378H78.2669V125.378ZM72.4289 125.378C71.5514 125.378 70.7761 125.581 70.185 126.084C69.5914 126.589 69.2555 127.336 69.1331 128.278L70.1247 128.407C70.2263 127.626 70.4854 127.141 70.8333 126.845C71.1837 126.547 71.6964 126.378 72.4289 126.378V125.378ZM69.6289 128.842H75.5929V127.842H69.6289V128.842ZM75.5929 128.842C76.5001 128.842 77.1353 129.049 77.5398 129.404C77.9323 129.749 78.1869 130.304 78.1869 131.184H79.1869C79.1869 130.105 78.8675 129.239 78.1995 128.653C77.5435 128.077 76.6317 127.842 75.5929 127.842V128.842ZM78.1869 131.184C78.1869 132.072 77.9247 132.704 77.5079 133.116C77.09 133.528 76.4555 133.778 75.5929 133.778V134.778C76.6483 134.778 77.5608 134.469 78.2104 133.827C78.8611 133.185 79.1869 132.271 79.1869 131.184H78.1869ZM75.4249 129.354H69.6149V130.354H75.4249V129.354ZM69.1173 129.904C69.216 130.898 69.5391 131.693 70.1338 132.235C70.7292 132.777 71.5241 133 72.4289 133V132C71.6817 132 71.1606 131.817 70.8075 131.496C70.4537 131.173 70.1958 130.645 70.1125 129.805L69.1173 129.904ZM72.4289 133H75.4249V132H72.4289V133ZM75.4249 133C76.0062 133 76.5307 132.855 76.9144 132.51C77.3061 132.157 77.4789 131.661 77.4789 131.114H76.4789C76.4789 131.449 76.3787 131.646 76.2454 131.766C76.1041 131.894 75.8516 132 75.4249 132V133ZM77.4789 131.114C77.4789 130.582 77.3049 130.107 76.8988 129.78C76.5126 129.469 75.9921 129.354 75.4249 129.354V130.354C75.8797 130.354 76.1361 130.45 76.2715 130.559C76.3869 130.652 76.4789 130.806 76.4789 131.114H77.4789Z" fill="#1C242A"/>
<path d="M45.4996 122.858H44.1796L48.1556 118.058H44.1316V117.042H49.0196C49.4756 117.042 49.6596 117.258 49.6596 117.522C49.6596 117.674 49.6276 117.81 49.4676 118.002L45.4996 122.858Z" fill="url(#paint9_linear_12_195)"/>
<path d="M45.4996 122.858V123.108H45.6181L45.6931 123.017L45.4996 122.858ZM44.1796 122.858L43.987 122.699L43.6478 123.108H44.1796V122.858ZM48.1556 118.058L48.3481 118.218L48.6873 117.808H48.1556V118.058ZM44.1316 118.058H43.8816V118.308H44.1316V118.058ZM44.1316 117.042V116.792H43.8816V117.042H44.1316ZM49.4676 118.002L49.2755 117.842L49.274 117.844L49.4676 118.002ZM45.4996 122.608H44.1796V123.108H45.4996V122.608ZM44.3721 123.018L48.3481 118.218L47.963 117.899L43.987 122.699L44.3721 123.018ZM48.1556 117.808H44.1316V118.308H48.1556V117.808ZM44.3816 118.058V117.042H43.8816V118.058H44.3816ZM44.1316 117.292H49.0196V116.792H44.1316V117.292ZM49.0196 117.292C49.2114 117.292 49.3062 117.338 49.3492 117.374C49.3871 117.406 49.4096 117.451 49.4096 117.522H49.9096C49.9096 117.329 49.84 117.134 49.6719 116.992C49.5089 116.855 49.2837 116.792 49.0196 116.792V117.292ZM49.4096 117.522C49.4096 117.579 49.4037 117.62 49.3886 117.662C49.3729 117.705 49.3422 117.762 49.2755 117.842L49.6596 118.162C49.7529 118.05 49.8182 117.944 49.8585 117.833C49.8994 117.72 49.9096 117.618 49.9096 117.522H49.4096ZM49.274 117.844L45.306 122.7L45.6931 123.017L49.6611 118.161L49.274 117.844Z" fill="#1C242A"/>
<path d="M29.4023 103.031L27.1645 104.401C26.1958 104.995 25.2046 104.785 24.649 103.878C24.2938 103.298 24.379 102.702 24.7415 102.283C24.3021 102.392 23.7961 102.271 23.4117 101.643C22.8936 100.797 23.2607 99.972 24.2226 99.3829L26.2693 98.1295C27.2313 97.5404 28.14 97.5843 28.658 98.4303C29.0424 99.0579 28.914 99.5681 28.6166 99.9097C29.1546 99.7772 29.7244 99.9724 30.0795 100.552C30.6352 101.46 30.371 102.438 29.4023 103.031ZM28.0479 100.896L25.8784 102.225C25.394 102.521 25.2632 102.92 25.5139 103.33C25.7771 103.759 26.2996 103.74 26.8454 103.405L28.6602 102.294C29.2059 101.96 29.4611 101.503 29.1979 101.073C28.9472 100.664 28.5323 100.599 28.0479 100.896ZM26.632 99.0894L24.9128 100.142C24.3465 100.489 24.122 100.842 24.4019 101.299C24.6651 101.729 25.0015 101.758 25.4927 101.457L27.5394 100.204C28.0307 99.9027 28.1582 99.5901 27.8949 99.1603C27.615 98.7032 27.1983 98.7426 26.632 99.0894Z" fill="url(#paint10_linear_12_195)"/>
<path d="M24.7415 102.283L24.9306 102.446L25.4474 101.849L24.681 102.04L24.7415 102.283ZM28.6166 99.9097L28.428 99.7456L27.9094 100.341L28.6764 100.152L28.6166 99.9097ZM29.2717 102.818L27.034 104.188L27.2951 104.614L29.5328 103.244L29.2717 102.818ZM27.034 104.188C26.5931 104.458 26.1675 104.534 25.803 104.458C25.4404 104.382 25.1087 104.15 24.8622 103.747L24.4358 104.009C24.7449 104.513 25.1866 104.84 25.7007 104.947C26.2129 105.054 26.7672 104.938 27.2951 104.614L27.034 104.188ZM24.8622 103.747C24.5637 103.26 24.6395 102.783 24.9306 102.446L24.5524 102.119C24.1184 102.621 24.024 103.336 24.4358 104.009L24.8622 103.747ZM24.681 102.04C24.5048 102.084 24.3242 102.08 24.1517 102.009C23.9796 101.937 23.7948 101.79 23.6249 101.513L23.1985 101.774C23.4129 102.124 23.6733 102.351 23.9602 102.47C24.2467 102.589 24.5388 102.591 24.802 102.525L24.681 102.04ZM23.6249 101.513C23.4022 101.149 23.3788 100.812 23.4957 100.506C23.6167 100.189 23.9007 99.8732 24.3532 99.5961L24.0921 99.1697C23.5826 99.4818 23.2021 99.8731 23.0286 100.328C22.8509 100.793 22.9031 101.291 23.1985 101.774L23.6249 101.513ZM24.3532 99.5961L26.3999 98.3427L26.1388 97.9163L24.0921 99.1697L24.3532 99.5961ZM26.3999 98.3427C26.8523 98.0656 27.2647 97.9549 27.6041 97.9904C27.932 98.0247 28.2226 98.198 28.4448 98.5608L28.8712 98.2997C28.5754 97.8166 28.1526 97.545 27.6561 97.4931C27.1712 97.4424 26.6482 97.6043 26.1388 97.9163L26.3999 98.3427ZM28.4448 98.5608C28.6141 98.8373 28.6598 99.0692 28.6439 99.256C28.6278 99.4436 28.5477 99.6081 28.428 99.7456L28.8051 100.074C28.9828 99.8698 29.1156 99.6083 29.1421 99.2986C29.1686 98.9879 29.0863 98.6509 28.8712 98.2997L28.4448 98.5608ZM28.6764 100.152C29.1083 100.046 29.5678 100.195 29.8663 100.683L30.2927 100.422C29.8809 99.7493 29.2009 99.5084 28.5568 99.667L28.6764 100.152ZM29.8663 100.683C30.1128 101.085 30.1687 101.486 30.0713 101.844C29.9735 102.203 29.7126 102.548 29.2717 102.818L29.5328 103.244C30.0607 102.921 30.4163 102.48 30.5538 101.975C30.6918 101.468 30.6019 100.927 30.2927 100.422L29.8663 100.683ZM27.9173 100.683L25.7478 102.011L26.009 102.438L28.1785 101.109L27.9173 100.683ZM25.7478 102.011C25.4747 102.179 25.2696 102.394 25.183 102.657C25.0939 102.927 25.1445 103.205 25.3007 103.46L25.7271 103.199C25.6325 103.045 25.6232 102.919 25.6579 102.813C25.6952 102.7 25.7977 102.567 26.009 102.438L25.7478 102.011ZM25.3007 103.46C25.4786 103.751 25.7546 103.894 26.0661 103.904C26.3636 103.913 26.6791 103.8 26.976 103.619L26.7149 103.192C26.4659 103.345 26.2472 103.409 26.0812 103.404C25.9292 103.399 25.8123 103.338 25.7271 103.199L25.3007 103.46ZM26.976 103.619L28.7907 102.507L28.5296 102.081L26.7149 103.192L26.976 103.619ZM28.7907 102.507C29.0876 102.325 29.3312 102.095 29.4584 101.826C29.5916 101.545 29.5891 101.233 29.4111 100.943L28.9847 101.204C29.07 101.343 29.0714 101.475 29.0064 101.613C28.9354 101.763 28.7785 101.928 28.5296 102.081L28.7907 102.507ZM29.4111 100.943C29.255 100.688 29.0302 100.516 28.7488 100.473C28.4754 100.431 28.1904 100.515 27.9173 100.683L28.1785 101.109C28.3897 100.98 28.5544 100.949 28.6723 100.967C28.7821 100.984 28.8902 101.05 28.9847 101.204L29.4111 100.943ZM26.5015 98.8762L24.7822 99.9291L25.0434 100.355L26.7626 99.3026L26.5015 98.8762ZM24.7822 99.9291C24.4882 100.109 24.2393 100.315 24.1153 100.57C23.979 100.85 24.0132 101.143 24.1887 101.43L24.6151 101.169C24.5107 100.998 24.5172 100.887 24.5648 100.789C24.6246 100.666 24.7711 100.522 25.0434 100.355L24.7822 99.9291ZM24.1887 101.43C24.3434 101.683 24.5499 101.864 24.8295 101.9C25.0933 101.934 25.3613 101.831 25.6233 101.67L25.3622 101.244C25.133 101.384 24.9872 101.416 24.8941 101.404C24.817 101.394 24.7236 101.346 24.6151 101.169L24.1887 101.43ZM25.6233 101.67L27.67 100.417L27.4089 99.9903L25.3622 101.244L25.6233 101.67ZM27.67 100.417C27.9321 100.256 28.1464 100.065 28.2356 99.8142C28.3303 99.5485 28.2629 99.2824 28.1081 99.0297L27.6817 99.2908C27.7902 99.468 27.7907 99.5731 27.7646 99.6464C27.7331 99.7348 27.638 99.85 27.4089 99.9903L27.67 100.417ZM28.1081 99.0297C27.9326 98.7431 27.6867 98.5793 27.3755 98.5734C27.0921 98.5681 26.7955 98.6961 26.5015 98.8762L26.7626 99.3026C27.0348 99.1359 27.2297 99.0708 27.3662 99.0733C27.4749 99.0754 27.5774 99.1204 27.6817 99.2908L28.1081 99.0297Z" fill="#1C242A"/>
<path d="M19.4388 79.5742H14.3288V77.7962H19.4388C20.9648 77.7962 21.9168 77.1382 22.1968 75.5702H16.1208C14.2728 75.5702 13.1808 74.6742 13.1808 72.5742C13.1808 70.7682 14.3148 69.3962 16.1208 69.3962H19.4388C22.2948 69.3962 24.0588 71.1042 24.0588 74.5902C24.0588 78.0622 22.2948 79.5742 19.4388 79.5742ZM14.9868 72.6722C14.9868 73.6382 15.5188 74.0862 16.4148 74.0862H22.2668C22.1408 72.0842 21.1608 71.1882 19.4388 71.1882H16.4148C15.5328 71.1882 14.9868 71.7202 14.9868 72.6722Z" fill="url(#paint11_linear_12_195)"/>
<path d="M14.3288 79.5742H13.8288V80.0742H14.3288V79.5742ZM14.3288 77.7962V77.2962H13.8288V77.7962H14.3288ZM22.1968 75.5702L22.6891 75.6581L22.794 75.0702H22.1968V75.5702ZM22.2668 74.0862V74.5862H22.7993L22.7659 74.0548L22.2668 74.0862ZM19.4388 79.0742H14.3288V80.0742H19.4388V79.0742ZM14.8288 79.5742V77.7962H13.8288V79.5742H14.8288ZM14.3288 78.2962H19.4388V77.2962H14.3288V78.2962ZM19.4388 78.2962C20.2689 78.2962 21.0111 78.1175 21.592 77.666C22.1787 77.2099 22.5337 76.528 22.6891 75.6581L21.7046 75.4823C21.58 76.1805 21.319 76.6115 20.9782 76.8765C20.6316 77.1459 20.1348 77.2962 19.4388 77.2962V78.2962ZM22.1968 75.0702H16.1208V76.0702H22.1968V75.0702ZM16.1208 75.0702C15.2701 75.0702 14.682 74.8638 14.3051 74.5C13.9315 74.1393 13.6808 73.542 13.6808 72.5742H12.6808C12.6808 73.7064 12.9762 74.6071 13.6106 75.2195C14.2417 75.8286 15.1236 76.0702 16.1208 76.0702V75.0702ZM13.6808 72.5742C13.6808 71.7743 13.9313 71.1047 14.3461 70.6415C14.7558 70.1839 15.3529 69.8962 16.1208 69.8962V68.8962C15.0828 68.8962 14.2099 69.2945 13.6011 69.9744C12.9973 70.6487 12.6808 71.5681 12.6808 72.5742H13.6808ZM16.1208 69.8962H19.4388V68.8962H16.1208V69.8962ZM19.4388 69.8962C20.7662 69.8962 21.7729 70.2904 22.4528 71.0255C23.138 71.7663 23.5588 72.9261 23.5588 74.5902H24.5588C24.5588 72.7683 24.0977 71.3311 23.1869 70.3465C22.2708 69.356 20.9675 68.8962 19.4388 68.8962V69.8962ZM23.5588 74.5902C23.5588 76.247 23.1385 77.3467 22.4632 78.0338C21.7893 78.7195 20.7827 79.0742 19.4388 79.0742V80.0742C20.951 80.0742 22.2544 79.6729 23.1765 78.7347C24.0972 77.7978 24.5588 76.4055 24.5588 74.5902H23.5588ZM14.4868 72.6722C14.4868 73.2451 14.6465 73.7487 15.0205 74.104C15.3899 74.4549 15.8899 74.5862 16.4148 74.5862V73.5862C16.0438 73.5862 15.8298 73.4935 15.7092 73.379C15.5932 73.2688 15.4868 73.0653 15.4868 72.6722H14.4868ZM16.4148 74.5862H22.2668V73.5862H16.4148V74.5862ZM22.7659 74.0548C22.6985 72.9844 22.3978 72.1236 21.8042 71.5323C21.2056 70.9358 20.3847 70.6882 19.4388 70.6882V71.6882C20.215 71.6882 20.7451 71.8887 21.0984 72.2407C21.4569 72.5978 21.7092 73.1861 21.7678 74.1176L22.7659 74.0548ZM19.4388 70.6882H16.4148V71.6882H19.4388V70.6882ZM16.4148 70.6882C15.8729 70.6882 15.3747 70.8538 15.0128 71.2234C14.652 71.5919 14.4868 72.1017 14.4868 72.6722H15.4868C15.4868 72.2908 15.5947 72.0585 15.7274 71.923C15.859 71.7886 16.0748 71.6882 16.4148 71.6882V70.6882Z" fill="#1C242A"/>
<path d="M22.8071 47.2607L21.9719 46.6964L24.1619 43.4549C24.4844 42.9776 24.4204 42.5578 23.9829 42.2622L23.5189 41.9487L24.0877 41.1069L24.5517 41.4204C25.5195 42.0743 25.669 43.0249 24.9972 44.0192L22.8071 47.2607ZM25.9603 49.478C24.5484 48.5241 24.2137 46.6759 25.1632 45.2706C26.1171 43.8587 27.885 43.5856 29.2969 44.5395C30.7023 45.489 31.1152 47.2356 30.1613 48.6475C29.2118 50.0528 27.3656 50.4275 25.9603 49.478ZM29.2859 48.114C29.9129 47.186 29.771 46.0957 28.7237 45.388C27.6631 44.6714 26.6052 44.9511 25.9781 45.8792C25.3511 46.8072 25.4685 47.9196 26.5225 48.6317C27.5831 49.3483 28.6589 49.0421 29.2859 48.114Z" fill="url(#paint12_linear_12_195)"/>
<path d="M22.8071 47.2607L22.6671 47.4678L22.8743 47.6078L23.0142 47.4006L22.8071 47.2607ZM21.9719 46.6964L21.7647 46.5564L21.6247 46.7636L21.8319 46.9035L21.9719 46.6964ZM23.5189 41.9487L23.3118 41.8088L23.1718 42.0159L23.379 42.1559L23.5189 41.9487ZM24.0877 41.1069L24.2277 40.8997L24.0205 40.7598L23.8806 40.9669L24.0877 41.1069ZM22.947 47.0535L22.1118 46.4892L21.8319 46.9035L22.6671 47.4678L22.947 47.0535ZM22.179 46.8363L24.3691 43.5948L23.9548 43.3149L21.7647 46.5564L22.179 46.8363ZM24.3691 43.5948C24.5519 43.3242 24.6474 43.037 24.6046 42.7532C24.5612 42.4648 24.3829 42.2307 24.1229 42.0551L23.843 42.4694C24.0205 42.5893 24.0929 42.713 24.1102 42.8277C24.1282 42.9469 24.0944 43.1082 23.9548 43.3149L24.3691 43.5948ZM24.1229 42.0551L23.6589 41.7416L23.379 42.1559L23.843 42.4694L24.1229 42.0551ZM23.7261 42.0887L24.2949 41.2468L23.8806 40.9669L23.3118 41.8088L23.7261 42.0887ZM23.9477 41.314L24.4118 41.6275L24.6917 41.2132L24.2277 40.8997L23.9477 41.314ZM24.4118 41.6275C24.8535 41.926 25.0823 42.2729 25.1427 42.6334C25.2036 42.9965 25.1013 43.4185 24.79 43.8792L25.2043 44.1591C25.5649 43.6255 25.7237 43.0751 25.6359 42.5508C25.5476 42.024 25.2177 41.5686 24.6917 41.2132L24.4118 41.6275ZM24.79 43.8792L22.5999 47.1207L23.0142 47.4006L25.2043 44.1591L24.79 43.8792ZM26.1003 49.2709C24.8052 48.3959 24.4964 46.704 25.3703 45.4106L24.956 45.1306C23.9309 46.6478 24.2915 48.6522 25.8204 49.6852L26.1003 49.2709ZM25.3703 45.4106C26.2411 44.1218 27.8505 43.864 29.157 44.7467L29.4369 44.3324C27.9195 43.3072 25.9932 43.5955 24.956 45.1306L25.3703 45.4106ZM29.157 44.7467C30.4572 45.6252 30.8246 47.2191 29.9541 48.5076L30.3684 48.7875C31.4059 47.252 30.9473 45.3529 29.4369 44.3324L29.157 44.7467ZM29.9541 48.5076C29.0805 49.8006 27.389 50.1416 26.1003 49.2709L25.8204 49.6852C27.3422 50.7134 29.3431 50.305 30.3684 48.7875L29.9541 48.5076ZM29.4931 48.254C29.8371 47.7448 29.9803 47.1746 29.8785 46.623C29.7765 46.0699 29.4338 45.5661 28.8636 45.1809L28.5837 45.5952C29.0609 45.9176 29.3128 46.3127 29.3868 46.7137C29.4611 47.1162 29.3618 47.5552 29.0788 47.9741L29.4931 48.254ZM28.8636 45.1809C28.2875 44.7916 27.6905 44.66 27.1387 44.7718C26.5883 44.8834 26.1146 45.2306 25.771 45.7392L26.1853 46.0191C26.4687 45.5996 26.8375 45.343 27.238 45.2619C27.6369 45.181 28.0992 45.2678 28.5837 45.5952L28.8636 45.1809ZM25.771 45.7392C25.4276 46.2474 25.2782 46.8218 25.3735 47.3786C25.4693 47.9378 25.807 48.45 26.3825 48.8388L26.6624 48.4245C26.184 48.1012 25.936 47.7012 25.8664 47.2942C25.7962 46.8847 25.9017 46.4389 26.1853 46.0191L25.771 45.7392ZM26.3825 48.8388C26.961 49.2296 27.5637 49.3532 28.1193 49.234C28.6724 49.1153 29.1497 48.7622 29.4931 48.254L29.0788 47.9741C28.7952 48.3938 28.421 48.6579 28.0144 48.7451C27.6101 48.8319 27.1446 48.7503 26.6624 48.4245L26.3825 48.8388Z" fill="#1C242A"/>
<path d="M44.3009 27.6865H43.2929V23.7745C43.2929 23.1985 43.0049 22.8865 42.4769 22.8865H41.9169V21.8705H42.4769C43.6449 21.8705 44.3009 22.5745 44.3009 23.7745V27.6865ZM47.379 27.6865H46.371V23.7745C46.371 23.1985 46.083 22.8865 45.555 22.8865H44.995V21.8705H45.555C46.723 21.8705 47.379 22.5745 47.379 23.7745V27.6865Z" fill="url(#paint13_linear_12_195)"/>
<path d="M44.3009 27.6865V27.9365H44.5509V27.6865H44.3009ZM43.2929 27.6865H43.0429V27.9365H43.2929V27.6865ZM41.9169 22.8865H41.6669V23.1365H41.9169V22.8865ZM41.9169 21.8705V21.6205H41.6669V21.8705H41.9169ZM44.3009 27.4365H43.2929V27.9365H44.3009V27.4365ZM43.5429 27.6865V23.7745H43.0429V27.6865H43.5429ZM43.5429 23.7745C43.5429 23.4479 43.4612 23.1565 43.2668 22.9453C43.0694 22.7306 42.7906 22.6365 42.4769 22.6365V23.1365C42.6911 23.1365 42.8203 23.1984 42.8989 23.2838C42.9805 23.3725 43.0429 23.5251 43.0429 23.7745H43.5429ZM42.4769 22.6365H41.9169V23.1365H42.4769V22.6365ZM42.1669 22.8865V21.8705H41.6669V22.8865H42.1669ZM41.9169 22.1205H42.4769V21.6205H41.9169V22.1205ZM42.4769 22.1205C43.01 22.1205 43.3938 22.2799 43.6457 22.5448C43.8994 22.8115 44.0509 23.2185 44.0509 23.7745H44.5509C44.5509 23.1305 44.3744 22.5855 44.008 22.2002C43.6399 21.8131 43.1117 21.6205 42.4769 21.6205V22.1205ZM44.0509 23.7745V27.6865H44.5509V23.7745H44.0509ZM47.379 27.6865V27.9365H47.629V27.6865H47.379ZM46.371 27.6865H46.121V27.9365H46.371V27.6865ZM44.995 22.8865H44.745V23.1365H44.995V22.8865ZM44.995 21.8705V21.6205H44.745V21.8705H44.995ZM47.379 27.4365H46.371V27.9365H47.379V27.4365ZM46.621 27.6865V23.7745H46.121V27.6865H46.621ZM46.621 23.7745C46.621 23.4479 46.5393 23.1565 46.345 22.9453C46.1475 22.7306 45.8687 22.6365 45.555 22.6365V23.1365C45.7692 23.1365 45.8985 23.1984 45.977 23.2838C46.0587 23.3725 46.121 23.5251 46.121 23.7745H46.621ZM45.555 22.6365H44.995V23.1365H45.555V22.6365ZM45.245 22.8865V21.8705H44.745V22.8865H45.245ZM44.995 22.1205H45.555V21.6205H44.995V22.1205ZM45.555 22.1205C46.0881 22.1205 46.4719 22.2799 46.7238 22.5448C46.9775 22.8115 47.129 23.2185 47.129 23.7745H47.629C47.629 23.1305 47.4525 22.5855 47.0862 22.2002C46.7181 21.8131 46.1898 21.6205 45.555 21.6205V22.1205ZM47.129 23.7745V27.6865H47.629V23.7745H47.129Z" fill="#1C242A"/>
<path d="M125.103 46.8064L120.103 49.2912L119.345 47.7652C118.843 46.755 119.156 45.983 120.202 45.4633L122.086 44.527C122.48 44.3312 122.628 43.9631 122.432 43.569C122.236 43.175 121.864 43.056 121.456 43.2589L118.01 44.9712L117.558 44.0614L121.004 42.3491C122.035 41.8364 122.911 42.1785 123.328 43.0167C123.755 43.8764 123.463 44.7988 122.474 45.29L120.583 46.2298C120.096 46.4719 119.952 46.8293 120.172 47.2735L120.51 47.9541L124.651 45.8965L125.103 46.8064Z" fill="url(#paint14_linear_12_195)"/>
<path d="M125.103 46.8064L125.215 47.0302L125.439 46.919L125.327 46.6951L125.103 46.8064ZM120.103 49.2912L119.879 49.4024L119.99 49.6263L120.214 49.5151L120.103 49.2912ZM118.01 44.9712L117.786 45.0825L117.897 45.3064L118.121 45.1951L118.01 44.9712ZM117.558 44.0614L117.447 43.8375L117.223 43.9487L117.334 44.1726L117.558 44.0614ZM120.51 47.9541L120.287 48.0654L120.398 48.2893L120.622 48.178L120.51 47.9541ZM124.651 45.8965L124.875 45.7853L124.764 45.5614L124.54 45.6726L124.651 45.8965ZM124.992 46.5825L119.992 49.0673L120.214 49.5151L125.215 47.0302L124.992 46.5825ZM120.327 49.1799L119.568 47.6539L119.121 47.8764L119.879 49.4024L120.327 49.1799ZM119.568 47.6539C119.338 47.1894 119.312 46.8186 119.426 46.5193C119.542 46.2154 119.822 45.9314 120.313 45.6871L120.091 45.2394C119.536 45.5149 119.136 45.8768 118.959 46.3414C118.78 46.8105 118.85 47.3308 119.121 47.8764L119.568 47.6539ZM120.313 45.6871L122.197 44.7509L121.975 44.3031L120.091 45.2394L120.313 45.6871ZM122.197 44.7509C122.439 44.631 122.626 44.4469 122.714 44.2095C122.804 43.9697 122.78 43.7071 122.656 43.4578L122.208 43.6803C122.28 43.825 122.28 43.9435 122.246 44.0352C122.211 44.1294 122.127 44.2272 121.975 44.3031L122.197 44.7509ZM122.656 43.4578C122.534 43.2123 122.344 43.0298 122.099 42.9519C121.856 42.8744 121.593 42.9115 121.345 43.035L121.567 43.4828C121.727 43.4034 121.854 43.3986 121.948 43.4283C122.04 43.4577 122.134 43.5318 122.208 43.6803L122.656 43.4578ZM121.345 43.035L117.899 44.7474L118.121 45.1951L121.567 43.4828L121.345 43.035ZM118.234 44.86L117.782 43.9501L117.334 44.1726L117.786 45.0825L118.234 44.86ZM117.669 44.2853L121.115 42.5729L120.893 42.1252L117.447 43.8375L117.669 44.2853ZM121.115 42.5729C121.585 42.3392 121.995 42.3118 122.321 42.4147C122.647 42.5176 122.921 42.7603 123.104 43.128L123.552 42.9055C123.318 42.4349 122.946 42.0875 122.472 41.9379C121.998 41.7884 121.454 41.8463 120.893 42.1252L121.115 42.5729ZM123.104 43.128C123.291 43.5041 123.314 43.8789 123.196 44.2072C123.079 44.536 122.809 44.8442 122.363 45.0661L122.585 45.5139C123.127 45.2446 123.499 44.846 123.667 44.3759C123.836 43.9052 123.792 43.3891 123.552 42.9055L123.104 43.128ZM122.363 45.0661L120.471 46.006L120.694 46.4537L122.585 45.5139L122.363 45.0661ZM120.471 46.006C120.196 46.1426 119.98 46.3306 119.88 46.5839C119.777 46.843 119.816 47.119 119.948 47.3848L120.396 47.1623C120.307 46.9838 120.308 46.859 120.344 46.7679C120.383 46.6709 120.482 46.5592 120.694 46.4537L120.471 46.006ZM119.948 47.3848L120.287 48.0654L120.734 47.8429L120.396 47.1623L119.948 47.3848ZM120.622 48.178L124.763 46.1204L124.54 45.6726L120.399 47.7302L120.622 48.178ZM124.428 46.0077L124.88 46.9176L125.327 46.6951L124.875 45.7853L124.428 46.0077Z" fill="#1C242A"/>
<path d="M105.621 27.8184H104.613V23.9064C104.613 23.3304 104.325 23.0184 103.797 23.0184H103.237V22.0024H103.797C104.965 22.0024 105.621 22.7064 105.621 23.9064V27.8184Z" fill="url(#paint15_linear_12_195)"/>
<path d="M105.621 27.8184V28.0684H105.871V27.8184H105.621ZM104.613 27.8184H104.363V28.0684H104.613V27.8184ZM103.237 23.0184H102.987V23.2684H103.237V23.0184ZM103.237 22.0024V21.7524H102.987V22.0024H103.237ZM105.621 27.5684H104.613V28.0684H105.621V27.5684ZM104.863 27.8184V23.9064H104.363V27.8184H104.863ZM104.863 23.9064C104.863 23.5798 104.782 23.2884 104.587 23.0771C104.39 22.8625 104.111 22.7684 103.797 22.7684V23.2684C104.012 23.2684 104.141 23.3303 104.219 23.4156C104.301 23.5044 104.363 23.657 104.363 23.9064H104.863ZM103.797 22.7684H103.237V23.2684H103.797V22.7684ZM103.487 23.0184V22.0024H102.987V23.0184H103.487ZM103.237 22.2524H103.797V21.7524H103.237V22.2524ZM103.797 22.2524C104.33 22.2524 104.714 22.4117 104.966 22.6766C105.22 22.9434 105.371 23.3504 105.371 23.9064H105.871C105.871 23.2624 105.695 22.7173 105.328 22.3321C104.96 21.945 104.432 21.7524 103.797 21.7524V22.2524ZM105.371 23.9064V27.8184H105.871V23.9064H105.371Z" fill="#1C242A"/>
<path d="M129.855 79.5742H122.883V77.7962H129.421C130.541 77.7962 131.325 77.3342 131.325 76.4522C131.325 75.6122 130.779 75.1502 129.785 75.1502H125.291V73.6522H129.659C130.667 73.6522 131.143 73.3022 131.143 72.4202C131.143 71.4822 130.485 71.1602 129.309 71.1602H122.925V69.3962H129.659C131.633 69.3962 132.935 70.2922 132.935 72.0282C132.935 73.3162 132.291 73.9602 131.535 74.1982C132.459 74.4922 133.131 75.3042 133.131 76.4942C133.131 78.3422 131.843 79.5742 129.855 79.5742Z" fill="url(#paint16_linear_12_195)"/>
<path d="M122.883 79.5742H122.383V80.0742H122.883V79.5742ZM122.883 77.7962V77.2962H122.383V77.7962H122.883ZM125.291 75.1502H124.791V75.6502H125.291V75.1502ZM125.291 73.6522V73.1522H124.791V73.6522H125.291ZM122.925 71.1602H122.425V71.6602H122.925V71.1602ZM122.925 69.3962V68.8962H122.425V69.3962H122.925ZM131.535 74.1982L131.384 73.7213L129.878 74.1957L131.383 74.6747L131.535 74.1982ZM129.855 79.0742H122.883V80.0742H129.855V79.0742ZM123.383 79.5742V77.7962H122.383V79.5742H123.383ZM122.883 78.2962H129.421V77.2962H122.883V78.2962ZM129.421 78.2962C130.039 78.2962 130.625 78.1701 131.071 77.87C131.54 77.555 131.825 77.0661 131.825 76.4522H130.825C130.825 76.7203 130.717 76.9035 130.514 77.0399C130.288 77.1913 129.922 77.2962 129.421 77.2962V78.2962ZM131.825 76.4522C131.825 75.9178 131.646 75.4392 131.25 75.1044C130.868 74.781 130.351 74.6502 129.785 74.6502V75.6502C130.212 75.6502 130.465 75.7505 130.604 75.868C130.73 75.9743 130.825 76.1467 130.825 76.4522H131.825ZM129.785 74.6502H125.291V75.6502H129.785V74.6502ZM125.791 75.1502V73.6522H124.791V75.1502H125.791ZM125.291 74.1522H129.659V73.1522H125.291V74.1522ZM129.659 74.1522C130.201 74.1522 130.714 74.0619 131.093 73.756C131.497 73.43 131.643 72.9497 131.643 72.4202H130.643C130.643 72.7727 130.551 72.9084 130.465 72.9779C130.353 73.0676 130.124 73.1522 129.659 73.1522V74.1522ZM131.643 72.4202C131.643 71.8147 131.418 71.323 130.935 71.0163C130.499 70.74 129.921 70.6602 129.309 70.6602V71.6602C129.872 71.6602 130.211 71.7414 130.399 71.8606C130.539 71.9495 130.643 72.0877 130.643 72.4202H131.643ZM129.309 70.6602H122.925V71.6602H129.309V70.6602ZM123.425 71.1602V69.3962H122.425V71.1602H123.425ZM122.925 69.8962H129.659V68.8962H122.925V69.8962ZM129.659 69.8962C130.579 69.8962 131.276 70.1061 131.732 70.4573C132.169 70.7943 132.435 71.2993 132.435 72.0282H133.435C133.435 71.0211 133.049 70.2102 132.342 69.6652C131.653 69.1343 130.712 68.8962 129.659 68.8962V69.8962ZM132.435 72.0282C132.435 72.587 132.296 72.9619 132.114 73.2131C131.931 73.465 131.677 73.6292 131.384 73.7213L131.685 74.6751C132.148 74.5292 132.595 74.2525 132.923 73.8008C133.251 73.3486 133.435 72.7575 133.435 72.0282H132.435ZM131.383 74.6747C132.099 74.9024 132.631 75.5212 132.631 76.4942H133.631C133.631 75.0873 132.818 74.082 131.686 73.7218L131.383 74.6747ZM132.631 76.4942C132.631 77.2975 132.354 77.9302 131.895 78.3638C131.433 78.7998 130.745 79.0742 129.855 79.0742V80.0742C130.952 80.0742 131.902 79.7327 132.581 79.0907C133.264 78.4463 133.631 77.5389 133.631 76.4942H132.631Z" fill="#1C242A"/>
<path d="M72 134C106.524 134 134.512 106.345 134.512 72.2308C134.512 50.2479 122.89 30.9472 105.387 20L72 134Z" fill="url(#paint17_linear_12_195)" fill-opacity="0.1"/>
<defs>
<filter id="filter0_d_12_195" x="0" y="0" width="146.861" height="146.86" filterUnits="userSpaceOnUse" color-interpolation-filters="sRGB">
<feFlood flood-opacity="0" result="BackgroundImageFix"/>
<feColorMatrix in="SourceAlpha" type="matrix" values="0 0 0 0 0 0 0 0 0 0 0 0 0 0 0 0 0 0 127 0" result="hardAlpha"/>
<feOffset dy="1"/>
<feGaussianBlur stdDeviation="0.5"/>
<feComposite in2="hardAlpha" operator="out"/>
<feColorMatrix type="matrix" values="0 0 0 0 1 0 0 0 0 1 0 0 0 0 1 0 0 0 0.15 0"/>
<feBlend mode="normal" in2="BackgroundImageFix" result="effect1_dropShadow_12_195"/>
<feBlend mode="normal" in="SourceGraphic" in2="effect1_dropShadow_12_195" result="shape"/>
</filter>
<filter id="filter1_d_12_195" x="0" y="0" width="146.861" height="146.86" filterUnits="userSpaceOnUse" color-interpolation-filters="sRGB">
<feFlood flood-opacity="0" result="BackgroundImageFix"/>
<feColorMatrix in="SourceAlpha" type="matrix" values="0 0 0 0 0 0 0 0 0 0 0 0 0 0 0 0 0 0 127 0" result="hardAlpha"/>
<feOffset dy="1"/>
<feGaussianBlur stdDeviation="0.5"/>
<feComposite in2="hardAlpha" operator="out"/>
<feColorMatrix type="matrix" values="0 0 0 0 1 0 0 0 0 1 0 0 0 0 1 0 0 0 0.1 0"/>
<feBlend mode="normal" in2="BackgroundImageFix" result="effect1_dropShadow_12_195"/>
<feBlend mode="normal" in="SourceGraphic" in2="effect1_dropShadow_12_195" result="shape"/>
</filter>
<filter id="filter2_i_12_195" x="27.0046" y="60.9482" width="92.6415" height="26.1924" filterUnits="userSpaceOnUse" color-interpolation-filters="sRGB">
<feFlood flood-opacity="0" result="BackgroundImageFix"/>
<feBlend mode="normal" in="SourceGraphic" in2="BackgroundImageFix" result="shape"/>
<feColorMatrix in="SourceAlpha" type="matrix" values="0 0 0 0 0 0 0 0 0 0 0 0 0 0 0 0 0 0 127 0" result="hardAlpha"/>
<feOffset dy="1"/>
<feGaussianBlur stdDeviation="0.5"/>
<feComposite in2="hardAlpha" operator="arithmetic" k2="-1" k3="1"/>
<feColorMatrix type="matrix" values="0 0 0 0 0 0 0 0 0 0 0 0 0 0 0 0 0 0 0.25 0"/>
<feBlend mode="normal" in2="shape" result="effect1_innerShadow_12_195"/>
</filter>
<linearGradient id="paint0_linear_12_195" x1="73.4303" y1="0" x2="73.4303" y2="144.861" gradientUnits="userSpaceOnUse">
<stop stop-color="#25323D"/>
<stop offset="1" stop-color="#0D0D0D"/>
</linearGradient>
<linearGradient id="paint1_linear_12_195" x1="73.4304" y1="2.7168" x2="73.4304" y2="142.145" gradientUnits="userSpaceOnUse">
<stop stop-color="#2B3C4A"/>
<stop offset="1" stop-color="#2B3C4A" stop-opacity="0"/>
</linearGradient>
<linearGradient id="paint2_linear_12_195" x1="73.4304" y1="2.7168" x2="76.5081" y2="182.205" gradientUnits="userSpaceOnUse">
<stop stop-color="#111B26"/>
<stop offset="1" stop-color="#080C11" stop-opacity="0"/>
</linearGradient>
<radialGradient id="paint3_angular_12_195" cx="0" cy="0" r="1" gradientUnits="userSpaceOnUse" gradientTransform="translate(73.3254 71.5123) rotate(-128.806) scale(66.0891)">
<stop stop-color="#007AFF"/>
<stop offset="1" stop-color="#21C004" stop-opacity="0"/>
</radialGradient>
<radialGradient id="paint4_radial_12_195" cx="0" cy="0" r="1" gradientUnits="userSpaceOnUse" gradientTransform="translate(160.691 229.833) rotate(-117.164) scale(243.963 329.409)">
<stop stop-color="#293743"/>
<stop offset="1" stop-color="#0C1114"/>
</radialGradient>
<linearGradient id="paint5_linear_12_195" x1="69.839" y1="8.26659" x2="77.6388" y2="9.54735" gradientUnits="userSpaceOnUse">
<stop stop-color="#ECC271"/>
<stop offset="1" stop-color="#7F642E"/>
</linearGradient>
<linearGradient id="paint6_linear_12_195" x1="120.389" y1="95.107" x2="125.734" y2="100.466" gradientUnits="userSpaceOnUse">
<stop stop-color="#ECC271"/>
<stop offset="1" stop-color="#7F642E"/>
</linearGradient>
<linearGradient id="paint7_linear_12_195" x1="96.4931" y1="114.858" x2="104.293" y2="116.139" gradientUnits="userSpaceOnUse">
<stop stop-color="#ECC271"/>
<stop offset="1" stop-color="#7F642E"/>
</linearGradient>
<linearGradient id="paint8_linear_12_195" x1="69.839" y1="120.278" x2="77.5656" y2="121.758" gradientUnits="userSpaceOnUse">
<stop stop-color="#ECC271"/>
<stop offset="1" stop-color="#7F642E"/>
</linearGradient>
<linearGradient id="paint9_linear_12_195" x1="43.3166" y1="114.858" x2="51.0839" y2="116.232" gradientUnits="userSpaceOnUse">
<stop stop-color="#ECC271"/>
<stop offset="1" stop-color="#7F642E"/>
</linearGradient>
<linearGradient id="paint10_linear_12_195" x1="21.1157" y1="98.7246" x2="28.508" y2="95.8559" gradientUnits="userSpaceOnUse">
<stop stop-color="#ECC271"/>
<stop offset="1" stop-color="#7F642E"/>
</linearGradient>
<linearGradient id="paint11_linear_12_195" x1="15.1358" y1="65.5742" x2="22.9356" y2="66.855" gradientUnits="userSpaceOnUse">
<stop stop-color="#ECC271"/>
<stop offset="1" stop-color="#7F642E"/>
</linearGradient>
<linearGradient id="paint12_linear_12_195" x1="26.2974" y1="39.964" x2="32.0132" y2="45.4732" gradientUnits="userSpaceOnUse">
<stop stop-color="#ECC271"/>
<stop offset="1" stop-color="#7F642E"/>
</linearGradient>
<linearGradient id="paint13_linear_12_195" x1="41.3166" y1="19.6865" x2="49.0839" y2="21.06" gradientUnits="userSpaceOnUse">
<stop stop-color="#ECC271"/>
<stop offset="1" stop-color="#7F642E"/>
</linearGradient>
<linearGradient id="paint14_linear_12_195" x1="115.983" y1="42.4051" x2="123.392" y2="40.0812" gradientUnits="userSpaceOnUse">
<stop stop-color="#ECC271"/>
<stop offset="1" stop-color="#7F642E"/>
</linearGradient>
<linearGradient id="paint15_linear_12_195" x1="101.098" y1="19.8184" x2="108.898" y2="21.0991" gradientUnits="userSpaceOnUse">
<stop stop-color="#ECC271"/>
<stop offset="1" stop-color="#7F642E"/>
</linearGradient>
<linearGradient id="paint16_linear_12_195" x1="124.542" y1="65.5742" x2="132.342" y2="66.855" gradientUnits="userSpaceOnUse">
<stop stop-color="#ECC271"/>
<stop offset="1" stop-color="#7F642E"/>
</linearGradient>
<linearGradient id="paint17_linear_12_195" x1="103.256" y1="20" x2="103.256" y2="134" gradientUnits="userSpaceOnUse">
<stop stop-color="white"/>
<stop offset="1" stop-color="white" stop-opacity="0"/>
</linearGradient>
<clipPath id="clip0_12_195">
<rect width="92.6415" height="25.192" fill="white" transform="translate(27.0046 60.9482)"/>
</clipPath>
</defs>
</svg>
