<svg width="52" height="52" viewBox="0 0 52 52" fill="none" xmlns="http://www.w3.org/2000/svg">
<path fill-rule="evenodd" clip-rule="evenodd" d="M0 23.4234C0 17.9833 1.85456 12.9764 4.96593 9.00031L7.83373 7.58411L8.97996 4.98188C12.9593 1.86089 17.974 0 23.4234 0H28.5766C34.0829 0 39.1454 1.89997 43.1444 5.08008L44.2629 7.57286L46.6367 8.50636C49.9869 12.5579 52 17.7556 52 23.4234V28.5766C52 34.2294 49.9976 39.4145 46.6634 43.4612L43.8041 44.7443L42.8614 47.1414C38.9078 50.1881 33.9538 52 28.5766 52H23.4234C18.2615 52 13.4895 50.3302 9.61821 47.5014L8.34887 44.931L5.52508 43.6872C2.07801 39.6083 0 34.3351 0 28.5766V23.4234Z" fill="url(#paint0_linear_878_18708)"/>
<ellipse cx="26" cy="25.9997" rx="23.1386" ry="23.1386" fill="url(#paint1_linear_878_18708)"/>
<ellipse cx="26.0001" cy="26.0001" rx="19.9471" ry="19.9471" fill="url(#paint2_linear_878_18708)"/>
<g clip-path="url(#clip0_878_18708)">
<path d="M34.7091 19.5974L34.3382 19.7195L32.3633 19.8959L31.7959 20.8005L31.3893 20.6694L29.7852 19.2265L29.5529 18.4757L29.2357 17.6707L28.2393 16.7661L27.0642 16.5354L27.0374 17.0782L28.1901 18.2179L28.7531 18.8873L28.1187 19.2265L27.6048 19.0728L26.8318 18.7426V18.1139L25.8489 17.6887L25.5138 19.1768L24.4906 19.4075L24.5933 20.2397L25.9338 20.4975L26.1661 19.1723L27.2652 19.3396L27.7746 19.6427H28.5967L29.1463 20.7643L30.6386 22.2931L30.5269 22.8901L29.325 22.7363L27.2518 23.7947L25.7595 25.6039L25.5674 26.409H25.0267L24.0304 25.9567L23.0608 26.409L23.3021 27.4447L23.7221 26.9517H24.4682L24.4146 27.8563L25.0312 28.0372L25.6612 28.7564L26.6442 28.4533L27.7925 28.6343L29.1329 28.9961L29.7942 29.0775L30.9201 30.3711L33.0961 31.6646L31.6886 34.3784L30.2052 35.0749L29.6423 36.6308L27.4931 38.0827L27.2652 38.9194C29.2178 38.4365 31.0267 37.4845 32.5387 36.144C34.0508 34.8035 35.2215 33.1139 35.9518 31.2183C36.6821 29.3227 36.9504 27.2769 36.7341 25.2541C36.5178 23.2312 35.8232 21.2909 34.7091 19.5974Z" fill="url(#paint3_linear_878_18708)"/>
<path d="M25.7597 33.2612L24.8661 31.5515L25.6837 29.8102L24.8482 29.5569L23.9099 28.6025L21.8278 28.1502L21.1397 26.6441V27.5125H20.8359L19.0486 25.052V23.0258L17.735 20.8638L15.6484 21.2392H14.2365L13.5261 20.7869L14.4197 20.0632L13.5261 20.2713C12.4197 22.1946 11.8336 24.3791 11.8267 26.6047C11.8199 28.8303 12.3926 31.0184 13.4871 32.9487C14.5816 34.8789 16.1593 36.4831 18.0613 37.5996C19.9633 38.716 22.1223 39.3054 24.321 39.3083C24.8455 39.3028 25.3692 39.265 25.8892 39.1953L25.7597 37.662C25.7597 37.662 26.3361 35.4005 26.3361 35.3101C26.3361 35.2196 25.7597 33.2612 25.7597 33.2612Z" fill="url(#paint4_linear_878_18708)"/>
<path d="M16.4615 18.0506L18.6956 17.734L19.7187 17.1686L20.8715 17.5033L22.7124 17.3993L23.3468 16.3952L24.2628 16.5489L26.4968 16.3364L27.1134 15.6489L28.007 15.0654L29.2313 15.2509L29.6781 15.183C27.1664 13.9778 24.3289 13.6565 21.6163 14.2703C18.9036 14.8841 16.4713 16.3977 14.7056 18.5707L16.4615 18.0506ZM24.8481 15.2373L26.1081 14.5272L26.9302 15.0066L25.7417 15.9112L24.6068 16.0288L24.0975 15.6941L24.8481 15.2373ZM21.0636 15.3368L21.64 15.581L22.3683 15.3368L22.7704 16.0424L21.0636 16.4947L20.246 16.0152C20.246 16.0152 21.0458 15.4951 21.0636 15.3368Z" fill="url(#paint5_linear_878_18708)"/>
<rect x="36" y="24" width="2" height="5" fill="url(#paint6_linear_878_18708)"/>
<path fill-rule="evenodd" clip-rule="evenodd" d="M39.522 22.6007C38.3504 22.5936 37.395 23.526 37.3879 24.6834L37.3698 27.6471C37.3627 28.8045 38.3068 29.7486 39.4784 29.7557C40.65 29.7628 41.6055 28.8304 41.6126 27.673L41.6306 24.7093C41.6377 23.5519 40.6936 22.6078 39.522 22.6007Z" fill="url(#paint7_linear_878_18708)"/>
<path fill-rule="evenodd" clip-rule="evenodd" d="M34.263 15.7501C33.7446 16.11 33.6125 16.817 33.9681 17.3291L34.8786 18.6405C35.2341 19.1527 35.9427 19.2761 36.4611 18.9162C36.9795 18.5562 37.1115 17.8493 36.756 17.3371L35.8455 16.0257C35.49 15.5136 34.7814 15.3901 34.263 15.7501Z" fill="url(#paint8_linear_878_18708)"/>
<path fill-rule="evenodd" clip-rule="evenodd" d="M34.2616 37.1134C33.7435 36.753 33.6121 36.046 33.9681 35.5342L34.8798 34.2235C35.2358 33.7117 35.9445 33.5889 36.4625 33.9493C36.9806 34.3097 37.112 35.0168 36.7561 35.5286L35.8444 36.8392C35.4884 37.3511 34.7797 37.4738 34.2616 37.1134Z" fill="url(#paint9_linear_878_18708)"/>
</g>
<defs>
<linearGradient id="paint0_linear_878_18708" x1="15.5606" y1="-3.61164e-05" x2="39.2329" y2="2.72092" gradientUnits="userSpaceOnUse">
<stop stop-color="#16202B"/>
<stop offset="1" stop-color="#101419"/>
</linearGradient>
<linearGradient id="paint1_linear_878_18708" x1="16.7094" y1="2.86104" x2="40.8748" y2="57.4021" gradientUnits="userSpaceOnUse">
<stop stop-color="#20303D"/>
<stop offset="1" stop-color="#0C131B"/>
</linearGradient>
<linearGradient id="paint2_linear_878_18708" x1="20.9085" y1="5.3415" x2="37.1704" y2="45.1493" gradientUnits="userSpaceOnUse">
<stop stop-color="#0B0C10"/>
<stop offset="1" stop-color="#1D2835"/>
</linearGradient>
<linearGradient id="paint3_linear_878_18708" x1="27.1742" y1="16.5354" x2="42.1492" y2="37.291" gradientUnits="userSpaceOnUse">
<stop stop-color="#ECC271"/>
<stop offset="1" stop-color="#7F642E"/>
</linearGradient>
<linearGradient id="paint4_linear_878_18708" x1="16.1685" y1="20.0632" x2="28.0212" y2="40.2319" gradientUnits="userSpaceOnUse">
<stop stop-color="#ECC271"/>
<stop offset="1" stop-color="#7F642E"/>
</linearGradient>
<linearGradient id="paint5_linear_878_18708" x1="19.186" y1="13.9663" x2="20.0544" y2="20.3399" gradientUnits="userSpaceOnUse">
<stop stop-color="#ECC271"/>
<stop offset="1" stop-color="#7F642E"/>
</linearGradient>
<linearGradient id="paint6_linear_878_18708" x1="36.5985" y1="24" x2="40.105" y2="27.1656" gradientUnits="userSpaceOnUse">
<stop stop-color="#ECC271"/>
<stop offset="1" stop-color="#7F642E"/>
</linearGradient>
<linearGradient id="paint7_linear_878_18708" x1="40.8659" y1="23.0712" x2="37.928" y2="30.638" gradientUnits="userSpaceOnUse">
<stop stop-color="#ECC271"/>
<stop offset="1" stop-color="#7F642E"/>
</linearGradient>
<linearGradient id="paint8_linear_878_18708" x1="35.0009" y1="15.5409" x2="36.0514" y2="19.7854" gradientUnits="userSpaceOnUse">
<stop stop-color="#ECC271"/>
<stop offset="1" stop-color="#7F642E"/>
</linearGradient>
<linearGradient id="paint9_linear_878_18708" x1="34.9993" y1="37.3233" x2="36.0536" y2="33.0797" gradientUnits="userSpaceOnUse">
<stop stop-color="#ECC271"/>
<stop offset="1" stop-color="#7F642E"/>
</linearGradient>
<clipPath id="clip0_878_18708">
<rect width="32.1701" height="32.5651" fill="white" transform="translate(10.2358 10.3616)"/>
</clipPath>
</defs>
</svg>
