<svg width="69" height="69" viewBox="0 0 69 69" fill="none" xmlns="http://www.w3.org/2000/svg">
<g filter="url(#filter0_d_597_2564)">
<path fill-rule="evenodd" clip-rule="evenodd" d="M4 27.4775C4 21.0958 6.17553 15.2223 9.8254 10.5581L13.1895 8.89675L14.5341 5.84413C19.2022 2.18297 25.0849 0 31.4774 0H37.5224C43.9817 0 49.9205 2.22881 54.6115 5.95933L55.9237 8.88355L58.7083 9.97861C62.6383 14.7313 64.9998 20.8286 64.9998 27.4775V33.5225C64.9998 40.1537 62.6509 46.2362 58.7396 50.9834L55.3855 52.4885L54.2796 55.3005C49.6417 58.8745 43.8303 61 37.5224 61H31.4774C25.422 61 19.8242 59.0412 15.2829 55.7228L13.7938 52.7075L10.4813 51.2484C6.43766 46.4636 4 40.2777 4 33.5225V27.4775Z" fill="url(#paint0_linear_597_2564)"/>
<ellipse cx="34.5" cy="30.5001" rx="26.4333" ry="26.4334" fill="url(#paint1_linear_597_2564)"/>
<circle cx="34.5" cy="30.5" r="23" fill="url(#paint2_linear_597_2564)" stroke="#1D2025"/>
<g filter="url(#filter1_d_597_2564)">
<path d="M37.2842 30.9888L35.0671 27.7967L32.53 30.7429L34.7467 33.9354L37.2842 30.9888Z" fill="#0D0D0D"/>
<path d="M37.1 30.7238L35.2512 28.0617L32.7142 31.0083L34.5629 33.6704L37.1 30.7238Z" fill="#0D0D0D"/>
<path d="M36.9158 30.4588L35.4354 28.3271L32.8983 31.2733L34.3787 33.405L36.9158 30.4588Z" fill="#0D0D0D"/>
<path d="M36.7317 30.1937L35.6196 28.5921L33.0821 31.5383L34.1946 33.14L36.7317 30.1937Z" fill="#0D0D0D"/>
<path d="M28.0604 38.5H28.895C29.0675 38.5 29.2312 38.425 29.3437 38.2942L41.7179 23.9246C41.8612 23.7579 41.7429 23.5 41.5229 23.5H40.6883C40.5158 23.5 40.3521 23.575 40.2396 23.7058L27.8654 38.0754C27.7221 38.2421 27.8404 38.5 28.0604 38.5Z" fill="#0D0D0D"/>
<path d="M33.4487 33.5271L37.1092 29.2763L36.365 28.205L32.7046 32.4558L33.4487 33.5271Z" fill="#0D0D0D"/>
<path d="M33.5612 33.3967L36.9971 29.4067L36.2529 28.3354L32.8171 32.3254L33.5612 33.3967Z" fill="#0D0D0D"/>
<path d="M33.6733 33.2662L36.8846 29.5371L36.1404 28.4658L32.9296 32.195L33.6733 33.2662Z" fill="#0D0D0D"/>
<path d="M33.7858 33.1358L36.7721 29.6675L36.0283 28.5963L33.0417 32.0646L33.7858 33.1358Z" fill="#0D0D0D"/>
<path d="M33.8979 33.0054L36.66 29.7979L35.9158 28.7267L33.1542 31.9342L33.8979 33.0054Z" fill="#0D0D0D"/>
<path d="M41.6537 38.5H38.2958C38.0583 38.5 37.8354 38.3837 37.7 38.1883L27.9829 24.195C27.7787 23.9017 27.9887 23.5 28.3462 23.5H31.7037C31.9412 23.5 32.1642 23.6163 32.2996 23.8117L42.0171 37.805C42.2212 38.0983 42.0112 38.5 41.6537 38.5Z" fill="#0D0D0D"/>
<path d="M31.7042 23.7083C31.8733 23.7083 32.0321 23.7912 32.1287 23.9304L41.8462 37.9237C41.8971 37.9967 41.9025 38.0871 41.8612 38.1658C41.82 38.2446 41.7425 38.2917 41.6537 38.2917H38.2958C38.1267 38.2917 37.9679 38.2087 37.8712 38.0696L28.1537 24.0762C28.1033 24.0033 28.0975 23.9129 28.1387 23.8342C28.18 23.7554 28.2575 23.7083 28.3462 23.7083H31.7042ZM31.7037 23.5H28.3462C27.9887 23.5 27.7787 23.9017 27.9829 24.195L37.7 38.1883C37.8354 38.3837 38.0583 38.5 38.2958 38.5H41.6537C42.0112 38.5 42.2212 38.0983 42.0171 37.805L32.2996 23.8117C32.1642 23.6163 31.9412 23.5 31.7037 23.5Z" fill="#0D0D0D"/>
<path d="M34.0104 32.875L36.5475 29.9288L35.8037 28.8571L33.2662 31.8038L34.0104 32.875Z" fill="#0D0D0D"/>
<path d="M40.8333 37.6667H38.4258L29.1667 24.3333H31.5742L40.8333 37.6667Z" fill="#0D0D0D"/>
</g>
</g>
<defs>
<filter id="filter0_d_597_2564" x="0" y="0" width="69" height="69" filterUnits="userSpaceOnUse" color-interpolation-filters="sRGB">
<feFlood flood-opacity="0" result="BackgroundImageFix"/>
<feColorMatrix in="SourceAlpha" type="matrix" values="0 0 0 0 0 0 0 0 0 0 0 0 0 0 0 0 0 0 127 0" result="hardAlpha"/>
<feOffset dy="4"/>
<feGaussianBlur stdDeviation="2"/>
<feComposite in2="hardAlpha" operator="out"/>
<feColorMatrix type="matrix" values="0 0 0 0 0 0 0 0 0 0 0 0 0 0 0 0 0 0 0.25 0"/>
<feBlend mode="normal" in2="BackgroundImageFix" result="effect1_dropShadow_597_2564"/>
<feBlend mode="normal" in="SourceGraphic" in2="effect1_dropShadow_597_2564" result="shape"/>
</filter>
<filter id="filter1_d_597_2564" x="26.8027" y="23.5" width="16.2944" height="17" filterUnits="userSpaceOnUse" color-interpolation-filters="sRGB">
<feFlood flood-opacity="0" result="BackgroundImageFix"/>
<feColorMatrix in="SourceAlpha" type="matrix" values="0 0 0 0 0 0 0 0 0 0 0 0 0 0 0 0 0 0 127 0" result="hardAlpha"/>
<feOffset dy="1"/>
<feGaussianBlur stdDeviation="0.5"/>
<feComposite in2="hardAlpha" operator="out"/>
<feColorMatrix type="matrix" values="0 0 0 0 1 0 0 0 0 1 0 0 0 0 1 0 0 0 0.15 0"/>
<feBlend mode="normal" in2="BackgroundImageFix" result="effect1_dropShadow_597_2564"/>
<feBlend mode="normal" in="SourceGraphic" in2="effect1_dropShadow_597_2564" result="shape"/>
</filter>
<linearGradient id="paint0_linear_597_2564" x1="22.2537" y1="-4.23674e-05" x2="50.023" y2="3.19182" gradientUnits="userSpaceOnUse">
<stop stop-color="#1D2126"/>
<stop offset="1" stop-color="#3F4B58"/>
</linearGradient>
<linearGradient id="paint1_linear_597_2564" x1="27.7527" y1="3.12381" x2="55.8942" y2="62.5775" gradientUnits="userSpaceOnUse">
<stop stop-color="#414E5B"/>
<stop offset="1" stop-color="#141519"/>
</linearGradient>
<linearGradient id="paint2_linear_597_2564" x1="28.5015" y1="6.16179" x2="53.52" y2="59.0177" gradientUnits="userSpaceOnUse">
<stop stop-color="#414E5B"/>
<stop offset="1" stop-color="#141519"/>
</linearGradient>
</defs>
</svg>
