<svg width="182" height="104" viewBox="0 0 182 104" fill="none" xmlns="http://www.w3.org/2000/svg">
<g filter="url(#filter0_d_1065_43481)">
<path fill-rule="evenodd" clip-rule="evenodd" d="M99.7 53.4667C99.7 50.958 100.32 48.6314 101.379 46.7157L103.044 45.6822L103.718 43.7603C105.251 42.4079 107.118 41.614 109.133 41.614H112.467C114.501 41.614 116.386 42.4236 117.927 43.8003L118.597 45.6762L120.032 46.3853C121.205 48.361 121.9 50.8119 121.9 53.4667V57.6546C121.9 60.2823 121.219 62.7104 120.068 64.6756L118.401 65.6152L117.844 67.394C116.319 68.7263 114.465 69.5073 112.467 69.5073H109.133C107.244 69.5073 105.483 68.809 104.008 67.6065L103.264 65.7154L101.604 64.7966C100.409 62.8105 99.7 60.3366 99.7 57.6546V53.4667Z" fill="url(#paint0_linear_1065_43481)"/>
<path fill-rule="evenodd" clip-rule="evenodd" d="M60.25 53.4666C60.25 50.9579 60.8703 48.6313 61.9287 46.7156L63.5944 45.6821L64.2682 43.7602C65.8008 42.4078 67.6683 41.6139 69.6834 41.6139H73.0166C75.0514 41.6139 76.9359 42.4235 78.4769 43.8002L79.1468 45.6761L80.582 46.3852C81.7553 48.3609 82.45 50.8118 82.45 53.4666V57.6545C82.45 60.2823 81.7694 62.7103 80.6176 64.6755L78.951 65.6151L78.3942 67.394C76.8687 68.7262 75.0152 69.5072 73.0166 69.5072H69.6834C67.7935 69.5072 66.0334 68.8089 64.5576 67.6064L63.8143 65.7153L62.1542 64.7965C60.9589 62.8104 60.25 60.3365 60.25 57.6545V53.4666Z" fill="url(#paint1_linear_1065_43481)"/>
<path d="M73 47.0129L75.175 47.7349L77.35 47.0129V51.4349L75.175 52.1117L73 51.4349V47.0129Z" fill="url(#paint2_linear_1065_43481)"/>
<path d="M104.2 47.0129L106.45 47.7349L108.7 47.0129V51.4349L106.45 52.1117L104.2 51.4349V47.0129Z" fill="url(#paint3_linear_1065_43481)"/>
<path d="M90.9564 70.2765L101.285 66.2706C101.285 66.2706 97.0668 73.615 90.9564 77.3331V70.2765Z" fill="url(#paint4_linear_1065_43481)"/>
<path d="M90.9535 70.2765L80.6253 66.2706C80.6253 66.2706 84.843 73.615 90.9535 77.3331V70.2765Z" fill="url(#paint5_linear_1065_43481)"/>
<path d="M91.0086 81.9346L101.815 78.5298C101.815 78.5298 95.8096 82.3069 91.0086 83.4839V81.9346Z" fill="url(#paint6_linear_1065_43481)"/>
<path d="M91.0063 81.9346L80.2 78.5298C80.2 78.5298 86.2052 82.3069 91.0063 83.4839V81.9346Z" fill="url(#paint7_linear_1065_43481)"/>
<path d="M115.831 5.67123C114.172 7.88558 113.2 10.575 113.2 13.4748V16.0934C122.397 17.0875 129.652 26.2848 130.514 34.5789H133.212C136.345 34.5789 139.251 33.6762 141.642 32.1362L142.515 30.08L145.128 28.9939C146.933 26.7223 148 21.3531 148 18.3157V14.4998C148 11.4311 146.911 8.59811 145.072 6.3143L142.822 5.49463L141.772 3.32631C139.356 1.73492 136.402 0.799156 133.212 0.799156H127.988C124.829 0.799156 121.901 0.69174 119.499 2.25497L118.443 4.47656L115.831 5.67123Z" fill="url(#paint8_linear_1065_43481)"/>
<path d="M65.1979 5.4153C66.807 7.81505 67.75 10.7296 67.75 13.8722V16.7099C58.8303 17.7872 51.7943 27.5401 50.9583 36.5286H48.3413C45.3029 36.5286 42.4851 35.5503 40.1659 33.8814L39.3194 31.6531L36.7856 30.476C35.0347 28.0142 34 22.4101 34 19.1183V13.8721C34 10.5466 35.056 8.50141 36.8399 6.0264L39.0217 5.1381L40.0401 2.78825C42.3829 1.06362 45.2478 0.0495192 48.3414 0.0495192H53.4086C56.4721 0.0495192 59.3112 0.0189271 61.6413 1.71303L62.6656 4.12062L65.1979 5.4153Z" fill="url(#paint9_linear_1065_43481)"/>
<path d="M91.0014 96.5185L101.808 98.8982C101.808 98.8982 95.8024 96.1462 91.0014 94.9692V96.5185Z" fill="white"/>
<path d="M90.9991 96.5185L80.1928 98.8982C80.1928 98.8982 86.1981 96.1462 90.9991 94.9692V96.5185Z" fill="white"/>
<path d="M119.2 11.3484C119.2 2.02977 139.364 0.600071 129.818 0.600071C121.036 0.600071 114.386 4.02569 113.287 12.3102C110.34 11.2215 107.376 10.5517 104.514 10.1528C100.239 9.55414 96.167 9.52408 92.61 9.52171C92.0593 9.52171 91.5218 9.52387 91.0002 9.52387C90.4804 9.52387 89.9431 9.52171 89.39 9.52171C86.2281 9.52387 82.66 9.54982 78.9027 9.97261C76.0872 10.2914 73.1608 10.8355 70.2274 11.7786C69.7233 11.9391 69.2172 12.1168 68.7131 12.3032C67.6095 4.02137 60.3618 0 51.5822 0C42.0362 0.000216259 62.35 2.62984 62.35 11.9482C62.35 20.3497 59.5 16.8833 48.811 33.7156C48.2491 34.8558 47.7007 36.0309 47.1902 37.2844C41.3146 51.6349 39.5361 59.7155 39.5361 67.1976C39.5361 69.7776 39.7492 71.9826 40.0801 73.8342C40.4132 75.6858 40.8639 77.1817 41.3614 78.3741C42.7182 81.6243 44.8431 84.2062 47.2322 86.2053C50.8229 89.2102 54.9864 90.9926 58.5656 92.2783C60.3552 92.918 62.0052 93.4294 63.3508 93.8674C64.0214 94.0843 64.6143 94.2836 65.0938 94.4636C65.5734 94.6411 65.9419 94.804 66.133 94.908C66.9858 95.3589 68.1359 96.0505 69.5572 96.8158C71.6888 97.9694 74.4489 99.2875 77.9749 100.293C81.4987 101.304 85.7889 102.002 91.0004 102C97.9482 102.004 103.26 100.753 107.301 99.2031C109.322 98.4291 111.022 97.5857 112.443 96.816C113.862 96.0509 115.013 95.3593 115.868 94.9082C116.123 94.7694 116.689 94.5308 117.422 94.2795C118.714 93.8241 120.526 93.2822 122.553 92.5882C125.598 91.5389 129.15 90.1384 132.461 87.9313C134.115 86.8253 135.707 85.5161 137.117 83.9333C138.527 82.355 139.749 80.5034 140.639 78.3743C141.137 77.184 141.587 75.686 141.92 73.8344C142.253 71.9828 142.464 69.7778 142.464 67.1954C142.462 59.7157 140.686 51.6329 134.81 37.2846C134.3 36.0313 133.756 34.8521 133.194 33.7159C122.731 17.783 119.2 19.7477 119.2 11.3484ZM139.263 67.1952C139.263 69.4458 139.079 71.2929 138.815 72.7628C138.553 74.2308 138.209 75.3214 137.911 76.0279C136.976 78.2526 135.555 80.0086 133.781 81.5045C131.127 83.7376 124.513 85.2987 121.254 86.4564C119.624 87.0375 118.052 87.5253 116.642 87.9849C115.934 88.2148 115.268 88.4382 114.639 88.6722C114.008 88.9083 113.418 89.1514 112.834 89.4594C111.744 90.0424 110.642 90.7059 109.37 91.391C107.469 92.4186 105.2 93.4982 102.242 94.3438C99.2868 95.1893 95.6385 95.7988 91.0002 95.8009C84.8139 95.7964 80.3951 94.7214 77.0177 93.4312C75.328 92.7828 73.8981 92.0761 72.6301 91.391C71.3576 90.7059 70.2562 90.0422 69.1661 89.4594C68.3889 89.0517 67.594 88.7502 66.7191 88.4423C65.1959 87.909 63.4352 87.3867 61.5565 86.7403C58.7432 85.7756 52.0991 84.5397 49.5253 82.8139C48.2351 81.9554 47.065 80.9774 46.0703 79.8609C45.0757 78.7443 44.2517 77.4933 43.6389 76.0275C43.3412 75.3207 42.997 74.2304 42.7352 72.7624C42.471 71.2925 42.2845 69.4454 42.2865 67.197C42.2845 60.6776 44.8953 53.0557 50.5352 39.2841C52.7425 33.8921 55.3693 27.3856 58.1981 24.4566C60.3208 22.2581 62.5636 20.6234 64.8927 19.3745C68.3833 17.5056 72.0938 16.5127 75.8376 15.9879C79.5769 15.4632 85.8817 15.7199 89.39 15.7199C89.9298 15.7199 90.4671 15.7242 91.0002 15.7242C91.5309 15.7242 92.0682 15.7199 92.61 15.7199C95.7276 15.7199 101.591 15.7545 104.917 16.1317C107.41 16.4137 109.908 16.8864 112.34 17.6667C115.988 18.8418 119.487 20.6848 122.731 23.7027C125.971 26.7249 128.98 33.5199 131.465 39.5838C137.105 53.3544 139.266 60.678 139.263 67.1952Z" fill="url(#paint10_linear_1065_43481)"/>
</g>
<path fill-rule="evenodd" clip-rule="evenodd" d="M99.2659 53.83C99.2659 51.4465 99.8552 49.236 100.861 47.4159L102.443 46.434L103.084 44.608C104.54 43.3231 106.314 42.5688 108.228 42.5688H111.395C113.329 42.5688 115.119 43.338 116.583 44.646L117.22 46.4282L118.583 47.102C119.698 48.9791 120.358 51.3077 120.358 53.8299V57.8089C120.358 60.3055 119.711 62.6123 118.617 64.4794L117.034 65.3722L116.505 67.0622C115.055 68.328 113.294 69.07 111.395 69.07H108.228C106.433 69.07 104.761 68.4065 103.358 67.2641L102.652 65.4673L101.075 64.5944C99.9394 62.7074 99.2659 60.357 99.2659 57.8089V53.83Z" fill="url(#paint11_linear_1065_43481)"/>
<path fill-rule="evenodd" clip-rule="evenodd" d="M61.7847 53.83C61.7847 51.4465 62.374 49.236 63.3796 47.4159L64.9621 46.434L65.6023 44.608C67.0585 43.3231 68.8328 42.5688 70.7473 42.5688H73.9141C75.8474 42.5688 77.6378 43.338 79.1019 44.646L79.7384 46.4282L81.1019 47.102C82.2167 48.9791 82.8767 51.3077 82.8767 53.83V57.8089C82.8767 60.3055 82.2301 62.6123 81.1358 64.4794L79.5523 65.3722L79.0233 67.0622C77.5739 68.328 75.813 69.07 73.9141 69.07H70.7473C68.9517 69.07 67.2794 68.4065 65.8773 67.2641L65.1711 65.4673L63.5939 64.5944C62.4582 62.7074 61.7847 60.357 61.7847 57.8089V53.83Z" fill="url(#paint12_linear_1065_43481)"/>
<g filter="url(#filter1_d_1065_43481)">
<path d="M73.8984 47.6982L75.9649 48.3842L78.0313 47.6982V51.8995L75.9649 52.5425L73.8984 51.8995V47.6982Z" fill="url(#paint13_linear_1065_43481)"/>
</g>
<g filter="url(#filter2_d_1065_43481)">
<path d="M103.541 47.6982L105.679 48.3842L107.817 47.6982V51.8995L105.679 52.5425L103.541 51.8995V47.6982Z" fill="url(#paint14_linear_1065_43481)"/>
</g>
<path d="M90.9583 70.3865L100.925 66.4199C100.925 66.4199 96.3225 72.8674 90.9583 76.1314V70.3865Z" fill="url(#paint15_linear_1065_43481)"/>
<path d="M90.9558 70.3865L80.9888 66.4199C80.9888 66.4199 85.5916 72.8674 90.9558 76.1314V70.3865Z" fill="url(#paint16_linear_1065_43481)"/>
<path d="M91.0081 80.8771L101.275 78.6162C101.275 78.6162 95.5695 81.2309 91.0081 82.3491V80.8771Z" fill="url(#paint17_linear_1065_43481)"/>
<path d="M91.0061 80.8771L80.7391 78.6162C80.7391 78.6162 86.4447 81.2309 91.0061 82.3491V80.8771Z" fill="url(#paint18_linear_1065_43481)"/>
<path fill-rule="evenodd" clip-rule="evenodd" d="M114.592 8.42018C113.016 10.524 112.092 13.0792 112.092 15.8343V18.3222C120.83 19.2667 127.723 25.5703 128.542 33.4504H131.106C134.082 33.4504 136.843 32.5928 139.115 31.1296L139.944 29.1761L142.426 28.1441C144.142 25.9859 145.155 23.3194 145.155 20.4336V15.8342C145.155 12.9187 144.121 10.2271 142.373 8.05728L140.236 7.27851L139.238 5.21841C136.943 3.70644 134.136 2.81738 131.106 2.81738H126.142C123.14 2.81738 120.359 3.68921 118.076 5.17442L117.073 7.28514L114.592 8.42018Z" fill="url(#paint19_linear_1065_43481)"/>
<path fill-rule="evenodd" clip-rule="evenodd" d="M66.4857 8.17734C68.0144 10.4573 68.9104 13.2264 68.9104 16.2121V18.9084C60.4359 19.9319 53.7512 26.7632 52.9567 35.3031H50.4704C47.5836 35.3031 44.9064 34.3737 42.703 32.788L41.8988 30.6709L39.4914 29.5526C37.8278 27.2137 36.8448 24.3239 36.8448 21.1965V16.2121C36.8448 13.0525 37.8481 10.1355 39.543 7.78405L41.6158 6.94009L42.5835 4.70751C44.8094 3.06896 47.5312 2.10547 50.4704 2.10547H55.2848C58.1954 2.10547 60.8928 3.05029 63.1066 4.65984L64.0798 6.94727L66.4857 8.17734Z" fill="url(#paint20_linear_1065_43481)"/>
<path d="M91.0012 94.7335L101.268 96.9944C101.268 96.9944 95.5627 94.3797 91.0012 93.2615V94.7335Z" fill="url(#paint21_linear_1065_43481)"/>
<path d="M90.9991 94.7335L80.7321 96.9944C80.7321 96.9944 86.4376 94.3797 90.9991 93.2615V94.7335Z" fill="url(#paint22_linear_1065_43481)"/>
<path d="M117.793 13.814C117.793 4.96045 136.95 2.62823 127.881 2.62823C119.537 2.62823 113.219 6.85677 112.174 14.7278C109.375 13.6934 106.559 13.0571 103.839 12.678C99.7782 12.1093 95.909 12.0807 92.5295 12.0785C92.0064 12.0785 91.4957 12.0805 91.0001 12.0805C90.5062 12.0805 89.9957 12.0785 89.4703 12.0785C86.4662 12.0805 83.0762 12.1052 79.5064 12.5069C76.8314 12.8097 74.051 13.3267 71.2641 14.2227C70.7851 14.3752 70.3043 14.5441 69.8253 14.7212C68.7768 6.85266 61.8909 2.05811 53.5494 2.05811C44.4798 2.05831 63.7798 5.53058 63.7798 14.3839C63.7798 22.3661 61.072 16.6379 50.9165 32.6302C50.3826 33.7135 49.8616 34.83 49.3766 36.0208C43.7942 49.6552 42.1045 59.7672 42.1045 66.8759C42.1045 69.3271 42.3069 71.422 42.6213 73.1812C42.9378 74.9404 43.366 76.3617 43.8387 77.4946C45.1277 80.5825 47.1466 83.0356 49.4165 84.9349C52.828 87.7899 56.7837 89.4833 60.1843 90.7048C61.8845 91.3126 63.4522 91.7985 64.7306 92.2146C65.3678 92.4207 65.9311 92.6101 66.3867 92.7811C66.8423 92.9497 67.1924 93.1045 67.374 93.2033C68.1842 93.6317 69.277 94.2888 70.6273 95.0159C72.6525 96.1119 75.2749 97.3642 78.6249 98.32C81.9729 99.28 86.0489 99.9434 91.0003 99.9413C97.6013 99.9453 102.648 98.757 106.487 97.2841C108.407 96.5487 110.023 95.7474 111.373 95.0161C112.721 94.2892 113.814 93.6321 114.626 93.2035C114.869 93.0716 115.407 92.845 116.103 92.6062C117.331 92.1735 119.052 91.6586 120.978 90.9993C123.871 90.0023 127.246 88.6717 130.392 86.5748C131.964 85.524 133.476 84.2801 134.816 82.7763C136.155 81.2768 137.316 79.5176 138.162 77.4948C138.634 76.3639 139.062 74.9407 139.379 73.1814C139.695 71.4222 139.896 69.3273 139.896 66.8738C139.894 59.7674 138.206 49.6533 132.624 36.021C132.138 34.8304 131.622 33.71 131.088 32.6304C121.148 17.4928 117.793 21.7941 117.793 13.814ZM136.855 66.8736C136.855 69.0119 136.68 70.7668 136.428 72.1634C136.18 73.5581 135.852 74.5942 135.57 75.2655C134.682 77.3791 133.331 79.0475 131.646 80.4687C129.125 82.5904 122.841 84.0736 119.744 85.1735C118.196 85.7256 116.702 86.1891 115.362 86.6257C114.689 86.8441 114.056 87.0564 113.459 87.2787C112.86 87.503 112.299 87.734 111.744 88.0266C110.708 88.5805 109.662 89.2109 108.453 89.8618C106.647 90.8382 104.491 91.8639 101.681 92.6672C98.8732 93.4706 95.407 94.0496 91.0001 94.0517C85.1226 94.0474 80.9243 93.026 77.7154 91.8002C76.1101 91.1842 74.7515 90.5127 73.5468 89.8618C72.3379 89.2109 71.2914 88.5803 70.2557 88.0266C69.5173 87.6393 68.762 87.3529 67.9308 87.0603C66.4837 86.5536 64.8108 86.0574 63.0259 85.4433C60.353 84.5267 54.0405 83.3524 51.5951 81.7128C50.3694 80.8971 49.2577 79.968 48.3126 78.9072C47.3676 77.8463 46.5848 76.6577 46.0025 75.2651C45.7197 74.5936 45.3927 73.5576 45.144 72.1629C44.8929 70.7664 44.7157 69.0115 44.7176 66.8753C44.7157 60.6813 47.1962 51.0051 52.5546 37.9208C54.6518 32.7979 57.1475 29.0508 59.8351 26.268C61.8519 24.1792 63.9827 22.6261 66.1956 21.4395C69.512 19.6639 73.0373 18.7206 76.5942 18.2219C80.1469 17.7235 86.1371 17.9673 89.4703 17.9673C89.9831 17.9673 90.4936 17.9715 91.0001 17.9715C91.5043 17.9715 92.0148 17.9673 92.5295 17.9673C95.4916 17.9673 101.062 18.0002 104.222 18.3586C106.591 18.6265 108.965 19.0756 111.275 19.817C114.741 20.9335 118.066 22.6844 121.148 25.5517C124.226 28.4231 127.084 32.4443 129.445 38.2056C134.804 51.2888 136.857 60.6817 136.855 66.8736Z" fill="url(#paint23_linear_1065_43481)"/>
<g filter="url(#filter3_d_1065_43481)">
<path fill-rule="evenodd" clip-rule="evenodd" d="M141.202 84.6156C138.569 87.98 137 94.2167 137 98.8198V101H181V98.8198C181 94.0239 179.297 87.6259 176.462 84.1977L174.453 83.4078L173.507 81.2985C170.123 78.6077 165.839 77 161.18 77H156.82C152.209 77 147.966 78.5746 144.598 81.2154L143.629 83.4173L141.202 84.6156Z" fill="url(#paint24_linear_1065_43481)"/>
</g>
<path fill-rule="evenodd" clip-rule="evenodd" d="M142.82 86.9233C140.427 89.9818 139 93.8333 139 98.018V100H179V98.018C179 93.6581 177.451 89.6599 174.874 86.5434L173.048 85.8253L172.188 83.9078C169.112 81.4615 165.218 80 160.982 80H157.018C152.826 80 148.969 81.4315 145.908 83.8322L145.026 85.8339L142.82 86.9233Z" fill="url(#paint25_linear_1065_43481)"/>
<g filter="url(#filter4_d_1065_43481)">
<path fill-rule="evenodd" clip-rule="evenodd" d="M5.20194 84.6156C2.56924 87.98 1 94.2167 1 98.8198V101H45V98.8198C45 94.0239 43.2966 87.6259 40.4618 84.1977L38.4533 83.4078L37.5068 81.2985C34.1231 78.6077 29.8394 77 25.1802 77H20.8198C16.2088 77 11.9655 78.5746 8.59843 81.2154L7.62855 83.4173L5.20194 84.6156Z" fill="url(#paint26_linear_1065_43481)"/>
</g>
<path fill-rule="evenodd" clip-rule="evenodd" d="M6.81995 86.9233C4.42658 89.9818 3 93.8333 3 98.018V100H43V98.018C43 93.6581 41.4515 89.6599 38.8744 86.5434L37.0484 85.8253L36.188 83.9078C33.1119 81.4615 29.2176 80 24.982 80H21.018C16.8262 80 12.9687 81.4315 9.90766 83.8322L9.02595 85.8339L6.81995 86.9233Z" fill="url(#paint27_linear_1065_43481)"/>
<defs>
<filter id="filter0_d_1065_43481" x="33" y="0" width="116" height="104" filterUnits="userSpaceOnUse" color-interpolation-filters="sRGB">
<feFlood flood-opacity="0" result="BackgroundImageFix"/>
<feColorMatrix in="SourceAlpha" type="matrix" values="0 0 0 0 0 0 0 0 0 0 0 0 0 0 0 0 0 0 127 0" result="hardAlpha"/>
<feOffset dy="1"/>
<feGaussianBlur stdDeviation="0.5"/>
<feComposite in2="hardAlpha" operator="out"/>
<feColorMatrix type="matrix" values="0 0 0 0 1 0 0 0 0 1 0 0 0 0 1 0 0 0 0.1 0"/>
<feBlend mode="normal" in2="BackgroundImageFix" result="effect1_dropShadow_1065_43481"/>
<feBlend mode="normal" in="SourceGraphic" in2="effect1_dropShadow_1065_43481" result="shape"/>
</filter>
<filter id="filter1_d_1065_43481" x="72.8984" y="47.6982" width="6.13281" height="6.84424" filterUnits="userSpaceOnUse" color-interpolation-filters="sRGB">
<feFlood flood-opacity="0" result="BackgroundImageFix"/>
<feColorMatrix in="SourceAlpha" type="matrix" values="0 0 0 0 0 0 0 0 0 0 0 0 0 0 0 0 0 0 127 0" result="hardAlpha"/>
<feOffset dy="1"/>
<feGaussianBlur stdDeviation="0.5"/>
<feComposite in2="hardAlpha" operator="out"/>
<feColorMatrix type="matrix" values="0 0 0 0 1 0 0 0 0 1 0 0 0 0 1 0 0 0 0.15 0"/>
<feBlend mode="normal" in2="BackgroundImageFix" result="effect1_dropShadow_1065_43481"/>
<feBlend mode="normal" in="SourceGraphic" in2="effect1_dropShadow_1065_43481" result="shape"/>
</filter>
<filter id="filter2_d_1065_43481" x="102.541" y="47.6982" width="6.27539" height="6.84424" filterUnits="userSpaceOnUse" color-interpolation-filters="sRGB">
<feFlood flood-opacity="0" result="BackgroundImageFix"/>
<feColorMatrix in="SourceAlpha" type="matrix" values="0 0 0 0 0 0 0 0 0 0 0 0 0 0 0 0 0 0 127 0" result="hardAlpha"/>
<feOffset dy="1"/>
<feGaussianBlur stdDeviation="0.5"/>
<feComposite in2="hardAlpha" operator="out"/>
<feColorMatrix type="matrix" values="0 0 0 0 1 0 0 0 0 1 0 0 0 0 1 0 0 0 0.15 0"/>
<feBlend mode="normal" in2="BackgroundImageFix" result="effect1_dropShadow_1065_43481"/>
<feBlend mode="normal" in="SourceGraphic" in2="effect1_dropShadow_1065_43481" result="shape"/>
</filter>
<filter id="filter3_d_1065_43481" x="136" y="77" width="46" height="26" filterUnits="userSpaceOnUse" color-interpolation-filters="sRGB">
<feFlood flood-opacity="0" result="BackgroundImageFix"/>
<feColorMatrix in="SourceAlpha" type="matrix" values="0 0 0 0 0 0 0 0 0 0 0 0 0 0 0 0 0 0 127 0" result="hardAlpha"/>
<feOffset dy="1"/>
<feGaussianBlur stdDeviation="0.5"/>
<feComposite in2="hardAlpha" operator="out"/>
<feColorMatrix type="matrix" values="0 0 0 0 1 0 0 0 0 1 0 0 0 0 1 0 0 0 0.15 0"/>
<feBlend mode="normal" in2="BackgroundImageFix" result="effect1_dropShadow_1065_43481"/>
<feBlend mode="normal" in="SourceGraphic" in2="effect1_dropShadow_1065_43481" result="shape"/>
</filter>
<filter id="filter4_d_1065_43481" x="0" y="77" width="46" height="26" filterUnits="userSpaceOnUse" color-interpolation-filters="sRGB">
<feFlood flood-opacity="0" result="BackgroundImageFix"/>
<feColorMatrix in="SourceAlpha" type="matrix" values="0 0 0 0 0 0 0 0 0 0 0 0 0 0 0 0 0 0 127 0" result="hardAlpha"/>
<feOffset dy="1"/>
<feGaussianBlur stdDeviation="0.5"/>
<feComposite in2="hardAlpha" operator="out"/>
<feColorMatrix type="matrix" values="0 0 0 0 1 0 0 0 0 1 0 0 0 0 1 0 0 0 0.15 0"/>
<feBlend mode="normal" in2="BackgroundImageFix" result="effect1_dropShadow_1065_43481"/>
<feBlend mode="normal" in="SourceGraphic" in2="effect1_dropShadow_1065_43481" result="shape"/>
</filter>
<linearGradient id="paint0_linear_1065_43481" x1="91.0002" y1="-1.02504" x2="91.0002" y2="102" gradientUnits="userSpaceOnUse">
<stop stop-color="#304556"/>
<stop offset="1" stop-color="#151E27"/>
</linearGradient>
<linearGradient id="paint1_linear_1065_43481" x1="91.0002" y1="-1.02504" x2="91.0002" y2="102" gradientUnits="userSpaceOnUse">
<stop stop-color="#304556"/>
<stop offset="1" stop-color="#151E27"/>
</linearGradient>
<linearGradient id="paint2_linear_1065_43481" x1="91.0002" y1="-1.02504" x2="91.0002" y2="102" gradientUnits="userSpaceOnUse">
<stop stop-color="#304556"/>
<stop offset="1" stop-color="#151E27"/>
</linearGradient>
<linearGradient id="paint3_linear_1065_43481" x1="91.0002" y1="-1.02504" x2="91.0002" y2="102" gradientUnits="userSpaceOnUse">
<stop stop-color="#304556"/>
<stop offset="1" stop-color="#151E27"/>
</linearGradient>
<linearGradient id="paint4_linear_1065_43481" x1="91.0002" y1="-1.02504" x2="91.0002" y2="102" gradientUnits="userSpaceOnUse">
<stop stop-color="#304556"/>
<stop offset="1" stop-color="#151E27"/>
</linearGradient>
<linearGradient id="paint5_linear_1065_43481" x1="91.0002" y1="-1.02504" x2="91.0002" y2="102" gradientUnits="userSpaceOnUse">
<stop stop-color="#304556"/>
<stop offset="1" stop-color="#151E27"/>
</linearGradient>
<linearGradient id="paint6_linear_1065_43481" x1="91.0002" y1="-1.02504" x2="91.0002" y2="102" gradientUnits="userSpaceOnUse">
<stop stop-color="#304556"/>
<stop offset="1" stop-color="#151E27"/>
</linearGradient>
<linearGradient id="paint7_linear_1065_43481" x1="91.0002" y1="-1.02504" x2="91.0002" y2="102" gradientUnits="userSpaceOnUse">
<stop stop-color="#304556"/>
<stop offset="1" stop-color="#151E27"/>
</linearGradient>
<linearGradient id="paint8_linear_1065_43481" x1="91.0002" y1="-1.02504" x2="91.0002" y2="102" gradientUnits="userSpaceOnUse">
<stop stop-color="#304556"/>
<stop offset="1" stop-color="#151E27"/>
</linearGradient>
<linearGradient id="paint9_linear_1065_43481" x1="91.0002" y1="-1.02504" x2="91.0002" y2="102" gradientUnits="userSpaceOnUse">
<stop stop-color="#304556"/>
<stop offset="1" stop-color="#151E27"/>
</linearGradient>
<linearGradient id="paint10_linear_1065_43481" x1="91.0002" y1="-1.02504" x2="91.0002" y2="102" gradientUnits="userSpaceOnUse">
<stop stop-color="#304556"/>
<stop offset="1" stop-color="#151E27"/>
</linearGradient>
<linearGradient id="paint11_linear_1065_43481" x1="105.578" y1="42.5688" x2="121.457" y2="71.0937" gradientUnits="userSpaceOnUse">
<stop stop-color="#ECC271"/>
<stop offset="1" stop-color="#7F642E"/>
</linearGradient>
<linearGradient id="paint12_linear_1065_43481" x1="68.0963" y1="42.5688" x2="83.9759" y2="71.0937" gradientUnits="userSpaceOnUse">
<stop stop-color="#ECC271"/>
<stop offset="1" stop-color="#7F642E"/>
</linearGradient>
<linearGradient id="paint13_linear_1065_43481" x1="75.9649" y1="47.6982" x2="75.9649" y2="52.5425" gradientUnits="userSpaceOnUse">
<stop stop-color="#324559"/>
<stop offset="1" stop-color="#131D28"/>
</linearGradient>
<linearGradient id="paint14_linear_1065_43481" x1="105.679" y1="47.6982" x2="105.679" y2="52.5425" gradientUnits="userSpaceOnUse">
<stop stop-color="#324559"/>
<stop offset="1" stop-color="#131D28"/>
</linearGradient>
<linearGradient id="paint15_linear_1065_43481" x1="93.9408" y1="66.4199" x2="98.9234" y2="77.9615" gradientUnits="userSpaceOnUse">
<stop stop-color="#ECC271"/>
<stop offset="1" stop-color="#7F642E"/>
</linearGradient>
<linearGradient id="paint16_linear_1065_43481" x1="87.9733" y1="66.4199" x2="82.9906" y2="77.9615" gradientUnits="userSpaceOnUse">
<stop stop-color="#ECC271"/>
<stop offset="1" stop-color="#7F642E"/>
</linearGradient>
<linearGradient id="paint17_linear_1065_43481" x1="94.0804" y1="78.6162" x2="94.9068" y2="83.7463" gradientUnits="userSpaceOnUse">
<stop stop-color="#ECC271"/>
<stop offset="1" stop-color="#7F642E"/>
</linearGradient>
<linearGradient id="paint18_linear_1065_43481" x1="87.9338" y1="78.6162" x2="87.1074" y2="83.7463" gradientUnits="userSpaceOnUse">
<stop stop-color="#ECC271"/>
<stop offset="1" stop-color="#7F642E"/>
</linearGradient>
<linearGradient id="paint19_linear_1065_43481" x1="128.87" y1="2.81738" x2="128.87" y2="33.4504" gradientUnits="userSpaceOnUse">
<stop stop-color="#ECC271"/>
<stop offset="1" stop-color="#7F642E"/>
</linearGradient>
<linearGradient id="paint20_linear_1065_43481" x1="52.6383" y1="2.10547" x2="52.6383" y2="35.3031" gradientUnits="userSpaceOnUse">
<stop stop-color="#ECC271"/>
<stop offset="1" stop-color="#7F642E"/>
</linearGradient>
<linearGradient id="paint21_linear_1065_43481" x1="71.3678" y1="2.05804" x2="115.887" y2="7.17038" gradientUnits="userSpaceOnUse">
<stop stop-color="#ECC271"/>
<stop offset="1" stop-color="#7F642E"/>
</linearGradient>
<linearGradient id="paint22_linear_1065_43481" x1="71.3678" y1="2.05804" x2="115.887" y2="7.17038" gradientUnits="userSpaceOnUse">
<stop stop-color="#ECC271"/>
<stop offset="1" stop-color="#7F642E"/>
</linearGradient>
<linearGradient id="paint23_linear_1065_43481" x1="71.3678" y1="2.05801" x2="122.513" y2="117.385" gradientUnits="userSpaceOnUse">
<stop stop-color="#ECC271"/>
<stop offset="1" stop-color="#7F642E"/>
</linearGradient>
<linearGradient id="paint24_linear_1065_43481" x1="159.328" y1="77" x2="159.328" y2="99" gradientUnits="userSpaceOnUse">
<stop stop-color="#2C4050"/>
<stop offset="1" stop-color="#17212A"/>
</linearGradient>
<linearGradient id="paint25_linear_1065_43481" x1="159.299" y1="80" x2="159.299" y2="100" gradientUnits="userSpaceOnUse">
<stop stop-color="#ECC271"/>
<stop offset="1" stop-color="#7F642E"/>
</linearGradient>
<linearGradient id="paint26_linear_1065_43481" x1="23.3284" y1="77" x2="23.3284" y2="99" gradientUnits="userSpaceOnUse">
<stop stop-color="#2C4050"/>
<stop offset="1" stop-color="#17212A"/>
</linearGradient>
<linearGradient id="paint27_linear_1065_43481" x1="23.2985" y1="80" x2="23.2985" y2="100" gradientUnits="userSpaceOnUse">
<stop stop-color="#ECC271"/>
<stop offset="1" stop-color="#7F642E"/>
</linearGradient>
</defs>
</svg>
