<svg width="157" height="143" viewBox="0 0 157 143" fill="none" xmlns="http://www.w3.org/2000/svg">
<path fill-rule="evenodd" clip-rule="evenodd" d="M90.4637 75.5789C90.4637 72.1439 91.3167 68.9581 92.7721 66.3351L95.0627 64.9199L95.9892 62.2883C98.0968 60.4366 100.665 59.3496 103.436 59.3496H108.019C110.818 59.3496 113.409 60.4581 115.528 62.3432L116.449 64.9117L118.423 65.8826C120.036 68.5879 120.992 71.9438 120.992 75.5788V81.3132C120.992 84.9112 120.056 88.2358 118.472 90.9266L116.18 92.2132L115.414 94.6489C113.317 96.4731 110.768 97.5424 108.019 97.5424H103.436C100.837 97.5424 98.4166 96.5863 96.3872 94.9398L95.3651 92.3504L93.0823 91.0924C91.4386 88.3729 90.4637 84.9855 90.4637 81.3132V75.5789Z" fill="url(#paint0_linear_354_8807)"/>
<path fill-rule="evenodd" clip-rule="evenodd" d="M36.2147 75.5789C36.2147 72.1439 37.0676 68.9581 38.5231 66.3351L40.8136 64.9199L41.7402 62.2883C43.8478 60.4366 46.4159 59.3496 49.1869 59.3496H53.7704C56.5687 59.3496 59.16 60.4581 61.2791 62.3432L62.2004 64.9117L64.1738 65.8826C65.7874 68.5879 66.7426 71.9438 66.7426 75.5788V81.3132C66.7426 84.9112 65.8067 88.2358 64.2229 90.9266L61.931 92.2132L61.1654 94.6489C59.0675 96.4731 56.5188 97.5424 53.7704 97.5424H49.1869C46.588 97.5424 44.1676 96.5863 42.1382 94.9398L41.1161 92.3504L38.8332 91.0924C37.1896 88.3729 36.2147 84.9855 36.2147 81.3132V75.5789Z" fill="url(#paint1_linear_354_8807)"/>
<g filter="url(#filter0_d_354_8807)">
<path d="M53.7476 66.7422L56.7385 67.7307L59.7294 66.7422V72.7969L56.7385 73.7237L53.7476 72.7969V66.7422Z" fill="url(#paint2_linear_354_8807)"/>
</g>
<g filter="url(#filter1_d_354_8807)">
<path d="M96.6518 66.7422L99.7458 67.7307L102.84 66.7422V72.7969L99.7458 73.7237L96.6518 72.7969V66.7422Z" fill="url(#paint3_linear_354_8807)"/>
</g>
<path d="M78.4398 99.4398L92.8658 93.7231C92.8658 93.7231 86.2039 103.015 78.4398 107.719V99.4398Z" fill="url(#paint4_linear_354_8807)"/>
<path d="M78.4362 99.4398L64.0103 93.7231C64.0103 93.7231 70.6721 103.015 78.4362 107.719V99.4398Z" fill="url(#paint5_linear_354_8807)"/>
<path d="M78.5118 114.559L93.3719 111.3C93.3719 111.3 85.1139 115.069 78.5118 116.68V114.559Z" fill="url(#paint6_linear_354_8807)"/>
<path d="M78.5086 114.559L63.6485 111.3C63.6485 111.3 71.9066 115.069 78.5086 116.68V114.559Z" fill="url(#paint7_linear_354_8807)"/>
<path fill-rule="evenodd" clip-rule="evenodd" d="M112.647 10.1352C110.365 13.1672 109.028 16.8496 109.028 20.8202V24.4057C121.675 25.7669 131.652 34.8515 132.837 46.2082H136.548C140.856 46.2082 144.851 44.9721 148.14 42.8635L149.34 40.0481L152.933 38.5608C155.416 35.4504 156.883 31.6076 156.883 27.4486V20.8201C156.883 16.6184 155.385 12.7393 152.856 9.61216L149.762 8.48983L148.318 5.52085C144.996 3.34184 140.934 2.06055 136.548 2.06055H129.363C125.019 2.06055 120.993 3.31701 117.69 5.45746L116.237 8.49938L112.647 10.1352Z" fill="url(#paint8_linear_354_8807)"/>
<path fill-rule="evenodd" clip-rule="evenodd" d="M43.0187 9.78482C45.2314 13.0707 46.5282 17.0614 46.5282 21.3644V25.2501C34.2625 26.7253 24.5871 36.5704 23.4373 48.8779H19.8387C15.6604 48.8779 11.7856 47.5384 8.59633 45.2532L7.43239 42.2021L3.94806 40.5903C1.54023 37.2195 0.117435 33.0549 0.117435 28.5477V21.3644C0.117435 16.8108 1.56964 12.6069 4.02265 9.21802L7.02288 8.00172L8.42341 4.78418C11.6451 2.42274 15.5846 1.03418 19.8387 1.03418H26.8069C31.0196 1.03418 34.9238 2.39583 38.1279 4.71548L39.5365 8.01207L43.0187 9.78482Z" fill="url(#paint9_linear_354_8807)"/>
<path d="M78.5019 134.528L93.362 137.786C93.362 137.786 85.104 134.018 78.5019 132.406V134.528Z" fill="url(#paint10_linear_354_8807)"/>
<path d="M78.4988 134.528L63.6387 137.786C63.6387 137.786 71.8967 134.018 78.4988 132.406V134.528Z" fill="url(#paint11_linear_354_8807)"/>
<path d="M117.279 17.9086C117.279 5.1491 145.007 1.78796 131.88 1.78796C119.803 1.78796 110.659 7.88203 109.147 19.2255C105.095 17.7349 101.019 16.8178 97.0834 16.2715C91.2055 15.4519 85.6053 15.4107 80.7139 15.4074C79.9568 15.4074 79.2176 15.4104 78.5003 15.4104C77.7855 15.4104 77.0466 15.4074 76.2861 15.4074C71.938 15.4104 67.0314 15.4459 61.8647 16.0248C57.993 16.4613 53.9687 17.2063 49.935 18.4977C49.2417 18.7174 48.5458 18.9608 47.8526 19.216C46.3349 7.87611 36.3685 0.966309 24.2953 0.966309C11.1683 0.966605 39.1024 5.97075 39.1024 18.73C39.1024 30.2337 35.1833 21.9784 20.4845 45.0261C19.7118 46.5872 18.9577 48.1963 18.2557 49.9126C10.176 69.5621 7.73032 84.1353 7.73032 94.3802C7.73032 97.9128 8.02331 100.932 8.47834 103.467C8.93642 106.003 9.55622 108.051 10.2403 109.684C12.1061 114.134 15.0281 117.669 18.3135 120.406C23.2512 124.521 28.9765 126.961 33.8984 128.722C36.3593 129.598 38.6284 130.298 40.4786 130.898C41.4009 131.195 42.2162 131.468 42.8756 131.714C43.535 131.957 44.0418 132.18 44.3047 132.323C45.4773 132.94 47.0589 133.887 49.0133 134.935C51.9445 136.514 55.7401 138.319 60.5888 139.697C65.4345 141.08 71.3341 142.036 78.5006 142.033C88.0547 142.039 95.3586 140.327 100.916 138.204C103.695 137.144 106.033 135.989 107.988 134.935C109.939 133.888 111.521 132.941 112.696 132.323C113.047 132.133 113.826 131.806 114.834 131.462C116.611 130.838 119.102 130.096 121.89 129.146C126.076 127.709 130.962 125.792 135.514 122.77C137.79 121.255 139.979 119.463 141.918 117.295C143.857 115.134 145.536 112.599 146.76 109.684C147.444 108.054 148.064 106.003 148.522 103.468C148.98 100.932 149.27 97.9131 149.27 94.3772C149.268 84.1356 146.825 69.5594 138.745 49.9129C138.043 48.1969 137.295 46.5822 136.522 45.0264C122.135 23.2104 117.279 29.4093 117.279 17.9086ZM144.869 94.3769C144.869 97.4586 144.615 99.9877 144.252 102C143.892 104.01 143.418 105.504 143.009 106.471C141.724 109.517 139.769 111.922 137.329 113.97C133.681 117.027 124.585 119.165 120.103 120.75C117.862 121.546 115.7 122.214 113.761 122.843C112.787 123.158 111.871 123.464 111.007 123.784C110.14 124.108 109.327 124.44 108.525 124.862C107.025 125.66 105.511 126.569 103.761 127.507C101.147 128.914 98.0269 130.392 93.9597 131.55C89.8955 132.708 84.8786 133.542 78.5003 133.545C69.9934 133.539 63.9169 132.067 59.2725 130.3C56.9489 129.413 54.9826 128.445 53.2389 127.507C51.4892 126.569 49.9745 125.66 48.4754 124.862C47.4067 124.304 46.3136 123.891 45.1105 123.469C43.016 122.739 40.5947 122.024 38.0113 121.139C34.1427 119.818 25.0062 118.126 21.4668 115.763C19.6926 114.587 18.0836 113.248 16.7158 111.719C15.3479 110.191 14.2149 108.478 13.3722 106.47C12.9628 105.503 12.4895 104.01 12.1295 102C11.7662 99.9871 11.5097 97.458 11.5125 94.3793C11.5097 85.4527 15.0999 71.5076 22.8555 52.6508C25.8909 45.2678 29.5031 39.8676 33.393 35.857C36.3121 32.8468 39.3961 30.6084 42.599 28.8984C47.399 26.3394 52.5015 24.9799 57.6496 24.2613C62.7917 23.5429 71.4617 23.8943 76.2861 23.8943C77.0283 23.8943 77.7672 23.9003 78.5003 23.9003C79.2301 23.9003 79.9689 23.8943 80.7139 23.8943C85.0011 23.8943 93.0634 23.9417 97.6375 24.4581C101.066 24.8443 104.502 25.4916 107.845 26.5599C112.862 28.169 117.674 30.6925 122.135 34.8248C126.59 38.9629 130.728 44.7582 134.144 53.0612C141.9 71.9165 144.872 85.4533 144.869 94.3769Z" fill="url(#paint12_linear_354_8807)"/>
<defs>
<filter id="filter0_d_354_8807" x="52.7476" y="66.7422" width="7.98184" height="8.98145" filterUnits="userSpaceOnUse" color-interpolation-filters="sRGB">
<feFlood flood-opacity="0" result="BackgroundImageFix"/>
<feColorMatrix in="SourceAlpha" type="matrix" values="0 0 0 0 0 0 0 0 0 0 0 0 0 0 0 0 0 0 127 0" result="hardAlpha"/>
<feOffset dy="1"/>
<feGaussianBlur stdDeviation="0.5"/>
<feComposite in2="hardAlpha" operator="out"/>
<feColorMatrix type="matrix" values="0 0 0 0 1 0 0 0 0 1 0 0 0 0 1 0 0 0 0.15 0"/>
<feBlend mode="normal" in2="BackgroundImageFix" result="effect1_dropShadow_354_8807"/>
<feBlend mode="normal" in="SourceGraphic" in2="effect1_dropShadow_354_8807" result="shape"/>
</filter>
<filter id="filter1_d_354_8807" x="95.6518" y="66.7422" width="8.18811" height="8.98145" filterUnits="userSpaceOnUse" color-interpolation-filters="sRGB">
<feFlood flood-opacity="0" result="BackgroundImageFix"/>
<feColorMatrix in="SourceAlpha" type="matrix" values="0 0 0 0 0 0 0 0 0 0 0 0 0 0 0 0 0 0 127 0" result="hardAlpha"/>
<feOffset dy="1"/>
<feGaussianBlur stdDeviation="0.5"/>
<feComposite in2="hardAlpha" operator="out"/>
<feColorMatrix type="matrix" values="0 0 0 0 1 0 0 0 0 1 0 0 0 0 1 0 0 0 0.15 0"/>
<feBlend mode="normal" in2="BackgroundImageFix" result="effect1_dropShadow_354_8807"/>
<feBlend mode="normal" in="SourceGraphic" in2="effect1_dropShadow_354_8807" result="shape"/>
</filter>
<linearGradient id="paint0_linear_354_8807" x1="99.5989" y1="59.3496" x2="122.432" y2="100.542" gradientUnits="userSpaceOnUse">
<stop stop-color="#ECC271"/>
<stop offset="1" stop-color="#7F642E"/>
</linearGradient>
<linearGradient id="paint1_linear_354_8807" x1="45.3499" y1="59.3496" x2="68.1834" y2="100.542" gradientUnits="userSpaceOnUse">
<stop stop-color="#ECC271"/>
<stop offset="1" stop-color="#7F642E"/>
</linearGradient>
<linearGradient id="paint2_linear_354_8807" x1="56.7385" y1="66.7422" x2="56.7385" y2="73.7237" gradientUnits="userSpaceOnUse">
<stop stop-color="#324559"/>
<stop offset="1" stop-color="#131D28"/>
</linearGradient>
<linearGradient id="paint3_linear_354_8807" x1="99.7458" y1="66.7422" x2="99.7458" y2="73.7237" gradientUnits="userSpaceOnUse">
<stop stop-color="#324559"/>
<stop offset="1" stop-color="#131D28"/>
</linearGradient>
<linearGradient id="paint4_linear_354_8807" x1="82.7567" y1="93.7231" x2="89.9164" y2="110.379" gradientUnits="userSpaceOnUse">
<stop stop-color="#ECC271"/>
<stop offset="1" stop-color="#7F642E"/>
</linearGradient>
<linearGradient id="paint5_linear_354_8807" x1="74.1193" y1="93.7231" x2="66.9596" y2="110.379" gradientUnits="userSpaceOnUse">
<stop stop-color="#ECC271"/>
<stop offset="1" stop-color="#7F642E"/>
</linearGradient>
<linearGradient id="paint6_linear_354_8807" x1="82.9586" y1="111.3" x2="84.1447" y2="118.695" gradientUnits="userSpaceOnUse">
<stop stop-color="#ECC271"/>
<stop offset="1" stop-color="#7F642E"/>
</linearGradient>
<linearGradient id="paint7_linear_354_8807" x1="74.0619" y1="111.3" x2="72.8757" y2="118.695" gradientUnits="userSpaceOnUse">
<stop stop-color="#ECC271"/>
<stop offset="1" stop-color="#7F642E"/>
</linearGradient>
<linearGradient id="paint8_linear_354_8807" x1="133.312" y1="2.06055" x2="133.312" y2="46.2082" gradientUnits="userSpaceOnUse">
<stop stop-color="#ECC271"/>
<stop offset="1" stop-color="#7F642E"/>
</linearGradient>
<linearGradient id="paint9_linear_354_8807" x1="22.9765" y1="1.03418" x2="22.9765" y2="48.8779" gradientUnits="userSpaceOnUse">
<stop stop-color="#ECC271"/>
<stop offset="1" stop-color="#7F642E"/>
</linearGradient>
<linearGradient id="paint10_linear_354_8807" x1="50.0851" y1="0.966211" x2="114.514" y2="8.39661" gradientUnits="userSpaceOnUse">
<stop stop-color="#ECC271"/>
<stop offset="1" stop-color="#7F642E"/>
</linearGradient>
<linearGradient id="paint11_linear_354_8807" x1="50.0851" y1="0.966211" x2="114.514" y2="8.39661" gradientUnits="userSpaceOnUse">
<stop stop-color="#ECC271"/>
<stop offset="1" stop-color="#7F642E"/>
</linearGradient>
<linearGradient id="paint12_linear_354_8807" x1="50.0851" y1="0.966178" x2="123.583" y2="167.406" gradientUnits="userSpaceOnUse">
<stop stop-color="#ECC271"/>
<stop offset="1" stop-color="#7F642E"/>
</linearGradient>
</defs>
</svg>
